v -221.970952 24.196846 -0.230978
v -233.519235 -25.224859 -0.230978
v -226.594208 -25.224859 -0.230978
v -232.592613 -7.663322 91.698370
v -254.767486 6.186782 -0.230978
v -204.882646 -4.434917 88.449887
v -238.137563 24.201775 88.449887
v -247.374219 -18.753263 88.917813
v -204.882646 -4.434917 -0.230978
v -209.959357 15.881855 88.917813
v -218.737629 -22.908294 88.917813
v -254.767486 5.723469 88.917813
v -252.455858 -12.286595 -0.230978
v -244.604208 20.968441 -0.230978
v -206.267652 9.420116 -0.230978
v -209.959357 -15.978313 -0.230978
v -233.055924 -25.224859 88.917813
v -221.970952 24.196846 88.917813
v -249.222535 16.808481 88.917813
v -254.767486 -5.819927 88.917813
v -242.292579 -22.449910 -0.230978
v -234.440929 25.128401 -0.230978
v -209.037663 -14.593303 88.917813
v -214.119302 20.041815 -0.230978
v -204.882646 3.875146 88.917813
v -251.992546 13.116763 -0.230978
v -215.504307 -21.064899 -0.230978
v -255.230797 -3.508291 -0.230978
v -227.979214 25.128401 89.385738
v -239.059257 -23.834920 88.917813
v -225.204274 6.645166 91.698370
v -215.967619 21.431754 88.458886
v -250.144229 13.575147 90.303592
v -252.455858 -12.286595 88.458886
v -206.267652 -9.516574 -0.230978
v -249.222535 -16.904939 -0.230978
v -206.726034 -6.741625 90.303592
v -213.655990 -19.674960 88.458886
v -225.204274 -24.761546 89.385738
v -253.382481 10.341813 88.458886
v -248.300841 -15.978313 90.303592
v -244.604208 20.968441 88.917813
v -204.882646 4.338459 -0.230978
v -206.267652 9.420116 88.458886
v -208.574351 14.038460 -0.230978
v -210.885979 14.960158 90.303592
v -225.667585 25.128401 -0.230978
v -219.664252 -23.376536 -0.230978
v -255.230797 3.411833 88.458886
v -223.819269 -23.371607 90.303592
v -234.440929 23.738462 90.303592
v -240.444263 23.275149 -0.230978
v -206.267652 -9.516574 88.458886
v -234.440929 25.128401 88.449887
v -249.685847 16.350097 -0.230978
v -223.819269 -24.761546 88.449887
v -244.604208 -21.059971 88.458886
v -237.674252 2.948519 91.698370
v -253.840863 -3.971604 90.303592
v -236.289246 -24.761546 -0.230978
v -254.304175 -7.668251 -0.230978
v -246.915836 -19.216576 -0.230978
v -222.434263 -3.049906 91.698370
v -220.585946 23.738462 -0.230978
f 32 24 64
f 3 2 1
f 1 2 5
f 3 1 9
f 5 2 13
f 1 5 14
f 9 1 15
f 3 9 16
f 2 3 17
f 13 2 21
f 1 14 22
f 15 1 24
f 6 9 25
f 14 5 26
f 3 16 27
f 5 13 28
f 10 24 32
f 9 6 35
f 16 9 35
f 23 16 35
f 13 21 36
f 8 34 36
f 34 13 36
f 6 25 37
f 23 11 38
f 16 23 38
f 11 27 38
f 27 16 38
f 5 12 40
f 26 5 40
f 19 26 40
f 12 33 40
f 33 19 40
f 8 30 41
f 34 8 41
f 14 19 42
f 19 33 42
f 9 15 43
f 25 9 43
f 25 43 44
f 43 15 44
f 44 15 45
f 15 24 45
f 24 10 45
f 10 44 45
f 18 29 46
f 32 18 46
f 10 32 46
f 37 25 46
f 25 44 46
f 44 10 46
f 18 1 47
f 1 22 47
f 29 18 47
f 22 29 47
f 3 27 48
f 27 11 48
f 12 5 49
f 5 28 49
f 28 20 49
f 11 23 50
f 30 17 50
f 23 37 50
f 39 11 50
f 17 39 50
f 41 30 50
f 4 41 50
f 7 42 51
f 42 33 51
f 46 29 51
f 31 46 51
f 22 14 52
f 7 22 52
f 42 7 52
f 14 42 52
f 35 6 53
f 23 35 53
f 6 37 53
f 37 23 53
f 22 7 54
f 29 22 54
f 7 51 54
f 51 29 54
f 19 14 55
f 14 26 55
f 26 19 55
f 17 3 56
f 11 39 56
f 39 17 56
f 3 48 56
f 48 11 56
f 30 8 57
f 21 30 57
f 4 31 58
f 41 4 58
f 31 51 58
f 51 33 58
f 33 12 59
f 20 34 59
f 34 41 59
f 12 49 59
f 49 20 59
f 41 58 59
f 58 33 59
f 2 17 60
f 21 2 60
f 17 30 60
f 30 21 60
f 28 13 61
f 20 28 61
f 13 34 61
f 34 20 61
f 8 36 62
f 36 21 62
f 57 8 62
f 21 57 62
f 31 4 63
f 46 31 63
f 37 46 63
f 4 50 63
f 50 37 63
f 1 18 64
f 24 1 64
f 18 32 64
