v -227.975909 6.648874 170.230978
v -232.594234 -7.670512 91.713743
v -227.514823 -7.670512 91.713743
v -232.594234 7.574054 91.713743
v -237.676630 -2.125406 168.832042
v -222.432427 -2.587995 168.832042
v -222.432427 2.954127 91.713743
v -231.207991 -7.670512 169.293230
v -237.676630 -2.587995 91.713743
v -236.751473 4.338911 168.832042
v -224.742336 6.187777 168.370854
v -237.676630 2.491537 91.713743
v -222.895006 -3.972779 91.713743
v -225.667493 -6.745332 168.832042
v -226.128579 7.111464 91.713743
v -232.594234 7.574054 168.832042
v -234.441565 -6.745332 168.370854
v -222.432427 2.491537 168.832042
v -235.827808 5.725187 91.713743
v -227.514823 7.574054 168.832042
v -236.751473 -4.435369 91.713743
v -237.676630 2.028947 168.832042
v -224.281249 -5.821646 92.174931
v -236.751473 -4.435369 168.370854
v -227.514823 -7.670512 168.370854
v -223.818671 -4.897959 169.293230
v -236.290387 -3.050585 170.230978
v -223.818671 5.262598 91.713743
v -224.281249 -3.972779 170.230978
v -234.441565 6.648874 168.832042
v -222.432427 -2.587995 91.713743
v -227.514823 7.574054 91.713743
v -222.895006 3.876321 168.370854
v -234.441565 -6.745332 91.713743
v -233.980478 7.111464 91.713743
v -235.827808 3.877814 170.230978
v -232.131656 -7.670512 168.832042
v -223.357584 2.028947 170.230978
v -228.438488 -6.745332 170.230978
v -226.128579 7.111464 168.370854
v -223.357584 -4.435369 168.832042
v -225.667493 -6.745332 91.713743
v -223.818671 5.262598 168.370854
v -224.742336 6.187777 91.713743
v -236.751473 4.338911 91.713743
f 10 19 45
f 3 2 4
f 3 4 7
f 2 3 8
f 4 2 9
f 4 9 12
f 9 5 12
f 3 7 13
f 7 4 15
f 6 7 18
f 4 12 19
f 16 1 20
f 4 16 20
f 9 2 21
f 12 5 22
f 10 12 22
f 5 9 24
f 9 21 24
f 21 17 24
f 8 3 25
f 14 23 26
f 22 5 27
f 5 24 27
f 24 17 27
f 7 15 28
f 26 6 29
f 14 26 29
f 1 27 29
f 19 10 30
f 7 6 31
f 6 13 31
f 13 7 31
f 15 4 32
f 4 20 32
f 20 15 32
f 18 7 33
f 7 28 33
f 2 17 34
f 21 2 34
f 17 21 34
f 16 4 35
f 4 19 35
f 30 16 35
f 19 30 35
f 1 16 36
f 10 22 36
f 27 1 36
f 22 27 36
f 30 10 36
f 16 30 36
f 2 8 37
f 17 2 37
f 8 27 37
f 27 17 37
f 11 1 38
f 6 18 38
f 1 29 38
f 29 6 38
f 18 33 38
f 8 25 39
f 25 14 39
f 27 8 39
f 14 29 39
f 29 27 39
f 1 11 40
f 11 15 40
f 20 1 40
f 15 20 40
f 13 6 41
f 23 13 41
f 6 26 41
f 26 23 41
f 3 13 42
f 13 23 42
f 23 14 42
f 25 3 42
f 14 25 42
f 28 11 43
f 33 28 43
f 11 38 43
f 38 33 43
f 15 11 44
f 28 15 44
f 11 28 44
f 12 10 45
f 19 12 45
