v 279.721136 25.284007 11.399547
v 270.279136 -25.271548 11.399547
v 279.721136 -25.271548 11.399547
v 289.163137 -20.268449 120.256461
v 250.281690 6.390006 119.148069
v 298.050891 11.393106 118.593873
v 300.272829 -4.714796 11.399547
v 249.722494 4.727255 11.399547
v 258.615196 -19.709250 119.148069
v 266.389506 24.170558 118.593873
v 259.723691 20.835158 11.399547
v 253.057876 -13.602598 11.399547
v 295.828952 15.277808 11.399547
v 284.719261 23.611359 119.148069
v 299.164334 -8.604447 118.593873
v 271.946826 -25.271548 119.148069
v 295.828952 -15.265349 11.399547
v 250.281690 -6.377548 119.148069
v 254.725567 15.837007 118.593873
v 300.272829 4.727255 11.399547
v 261.391382 -21.936149 11.399547
v 287.495446 -22.485450 118.593873
v 300.272829 3.059555 119.148069
v 253.057876 13.615057 11.399547
v 270.279136 25.284007 11.399547
v 290.276581 20.835158 11.964400
v 291.939323 18.054008 120.256461
v 278.053445 25.284007 119.148069
v 288.608890 -21.936149 11.399547
v 295.274705 -15.824548 118.593873
v 249.722494 -4.709848 11.399547
v 253.057876 11.393106 120.256461
v 266.389506 -24.158099 118.593873
v 290.830828 20.280907 118.593873
v 252.503629 -12.489148 118.593873
v 279.161940 -25.271548 118.593873
v 259.169444 20.280907 118.593873
v 258.056000 -18.046498 120.256461
v 249.722494 -3.047097 119.148069
v 251.949381 11.393106 118.039677
v 298.610087 -10.267198 11.399547
v 271.946826 25.284007 119.148069
v 264.726764 23.611359 11.399547
v 295.274705 15.837007 118.593873
v 285.273508 23.611359 11.399547
v 290.830828 -20.268449 118.593873
v 300.272829 -3.047097 119.148069
v 298.610087 10.279657 11.399547
v 254.171319 -15.270298 11.399547
v 251.390185 -10.267198 11.399547
v 268.057197 23.616307 120.256461
v 285.273508 -23.598900 11.964400
v 299.164334 8.611957 118.593873
v 251.390185 10.279657 11.399547
v 299.164334 -4.714796 120.256461
v 283.610766 -24.158099 118.593873
v 254.725567 -15.824548 118.593873
v 263.613320 23.057108 118.593873
v 298.050891 -11.380647 118.593873
v 249.722494 4.168056 118.039677
v 263.613320 -23.044649 118.593873
v 264.726764 -23.598900 11.399547
v 286.386952 23.057108 118.039677
v 283.610766 24.165609 118.593873
f 14 63 64
f 3 2 1
f 3 1 7
f 1 2 8
f 1 8 11
f 8 2 12
f 7 1 13
f 2 3 16
f 3 7 17
f 7 13 20
f 12 2 21
f 7 20 23
f 11 8 24
f 19 11 24
f 1 11 25
f 23 6 27
f 1 25 28
f 27 14 28
f 3 17 29
f 8 12 31
f 4 27 32
f 2 16 33
f 14 27 34
f 16 3 36
f 4 16 36
f 11 19 37
f 19 32 37
f 16 4 38
f 4 32 38
f 32 18 38
f 33 16 38
f 18 35 38
f 8 31 39
f 31 18 39
f 32 5 39
f 18 32 39
f 19 24 40
f 5 32 40
f 32 19 40
f 7 15 41
f 17 7 41
f 25 10 42
f 28 25 42
f 10 25 43
f 25 11 43
f 6 13 44
f 13 26 44
f 27 6 44
f 26 34 44
f 34 27 44
f 13 1 45
f 26 13 45
f 4 22 46
f 29 17 46
f 22 29 46
f 30 4 46
f 17 30 46
f 15 7 47
f 7 23 47
f 13 6 48
f 20 13 48
f 12 21 49
f 21 9 49
f 31 12 50
f 18 31 50
f 12 35 50
f 35 18 50
f 27 28 51
f 32 27 51
f 37 32 51
f 42 10 51
f 28 42 51
f 3 29 52
f 29 22 52
f 6 23 53
f 23 20 53
f 48 6 53
f 20 48 53
f 8 5 54
f 24 8 54
f 5 40 54
f 40 24 54
f 27 4 55
f 23 27 55
f 4 30 55
f 15 47 55
f 47 23 55
f 22 4 56
f 36 3 56
f 4 36 56
f 3 52 56
f 52 22 56
f 35 12 57
f 9 38 57
f 38 35 57
f 12 49 57
f 49 9 57
f 11 37 58
f 10 43 58
f 43 11 58
f 51 10 58
f 37 51 58
f 30 17 59
f 41 15 59
f 17 41 59
f 55 30 59
f 15 55 59
f 5 8 60
f 39 5 60
f 8 39 60
f 9 21 61
f 33 38 61
f 38 9 61
f 21 2 62
f 2 33 62
f 61 21 62
f 33 61 62
f 34 26 63
f 14 34 63
f 26 45 63
f 63 45 64
f 1 28 64
f 28 14 64
f 45 1 64
