v 335.264618 5.835756 8.609508
v 214.722222 -5.823297 -0.276745
v 214.722222 -5.823297 8.609508
v 280.828781 -60.271548 -0.275603
v 288.050704 59.162944 -0.275603
v 252.507514 55.268726 10.276680
v 264.178236 -58.595854 10.276680
v 331.382244 -22.485831 -0.276745
v 319.156897 -40.257627 10.276680
v 309.716474 48.601353 10.276680
v 228.611444 39.160824 -0.276745
v 326.945245 31.384188 -0.276745
v 235.833367 -46.370369 -0.276745
v 249.167964 -2.483710 11.388889
v 224.174445 -31.371729 10.276680
v 219.725646 22.498290 10.276680
v 330.272994 22.498290 10.276680
v 300.830676 2.496169 11.388889
v 311.380349 -48.600694 -0.276745
v 297.491127 -55.256267 10.276680
v 255.835262 57.499051 -0.275603
v 281.938031 59.162944 10.276680
v 332.491494 -15.818457 10.276680
v 334.709993 10.272805 -0.276745
v 235.278742 45.828197 9.165613
v 272.509409 -25.813617 11.388889
v 240.282166 -48.600694 10.276680
v 254.171388 -56.920161 -0.275603
v 269.169859 25.283246 11.388889
v 216.952522 17.494809 -0.276745
v 219.171021 -23.595093 -0.276745
v 311.380349 48.601353 -0.276745
v 320.832572 39.715455 9.165613
v 269.169859 60.284007 8.609508
v 299.721427 55.280527 9.165613
v 215.843272 6.945018 10.276680
v 335.264618 -5.823297 -0.276745
v 279.719532 -60.271548 9.165613
v 325.824195 -33.047423 9.165613
v 295.827253 -56.920161 -0.275603
v 243.621716 51.929139 -0.275603
v 223.065196 31.384188 8.609508
v 321.387197 -39.148365 -0.276745
v 309.716474 -49.698156 9.165613
v 228.611444 -39.148365 8.609508
v 250.289014 -55.268068 9.165613
v 295.272628 -16.373088 11.388889
v 217.507147 -18.036982 9.721717
v 289.159954 21.943659 11.388889
v 230.841744 40.270086 10.276680
v 264.732861 -59.705117 -0.275603
v 269.169859 60.284007 -0.275603
v 331.382244 22.498290 8.054546
v 215.288648 10.272805 8.609508
v 334.155368 -13.033501 8.609508
v 226.392945 -36.375209 -0.276745
v 254.726013 16.385547 11.388889
v 250.289014 55.280527 9.165613
v 280.828781 60.284007 8.609508
v 258.620187 -20.267307 11.388889
v 292.499504 -58.041223 8.609508
v 222.498770 -30.262467 9.165613
v 334.155368 6.945018 10.276680
v 264.732861 -59.705117 8.609508
f 51 38 64
f 8 2 11
f 8 11 12
f 2 8 13
f 4 13 19
f 13 8 19
f 8 12 24
f 18 14 26
f 7 20 26
f 14 18 29
f 22 6 29
f 11 2 30
f 2 13 31
f 12 11 32
f 10 17 33
f 32 10 33
f 12 32 33
f 6 22 34
f 22 10 35
f 32 5 35
f 10 32 35
f 15 14 36
f 14 16 36
f 24 1 37
f 8 24 37
f 20 7 38
f 23 9 39
f 4 19 40
f 21 11 41
f 11 25 41
f 25 11 42
f 11 30 42
f 30 16 42
f 19 8 43
f 39 9 43
f 8 39 43
f 9 20 44
f 40 19 44
f 43 9 44
f 19 43 44
f 13 27 45
f 27 15 45
f 7 27 46
f 27 13 46
f 13 28 46
f 20 9 47
f 9 23 47
f 23 18 47
f 18 26 47
f 26 20 47
f 3 2 48
f 2 31 48
f 36 3 48
f 15 36 48
f 17 10 49
f 18 17 49
f 10 22 49
f 29 18 49
f 22 29 49
f 6 25 50
f 25 42 50
f 42 16 50
f 13 4 51
f 28 13 51
f 4 38 51
f 11 21 52
f 5 32 52
f 32 11 52
f 21 34 52
f 17 1 53
f 1 24 53
f 24 12 53
f 12 33 53
f 33 17 53
f 2 3 54
f 30 2 54
f 16 30 54
f 3 36 54
f 36 16 54
f 37 1 55
f 8 37 55
f 39 8 55
f 23 39 55
f 31 13 56
f 13 45 56
f 16 14 57
f 14 29 57
f 29 6 57
f 50 16 57
f 6 50 57
f 25 6 58
f 34 21 58
f 6 34 58
f 21 41 58
f 41 25 58
f 34 22 59
f 35 5 59
f 22 35 59
f 5 52 59
f 52 34 59
f 14 15 60
f 7 26 60
f 26 14 60
f 27 7 60
f 15 27 60
f 38 4 61
f 20 38 61
f 4 40 61
f 44 20 61
f 40 44 61
f 45 15 62
f 48 31 62
f 15 48 62
f 31 56 62
f 56 45 62
f 1 17 63
f 17 18 63
f 18 23 63
f 55 1 63
f 23 55 63
f 38 7 64
f 7 46 64
f 46 28 64
f 28 51 64
