v 442.558635 -2.706964 86.699019
v 457.626007 2.018226 87.306818
v 457.626007 -2.115939 87.306818
v 457.626007 -1.526418 -0.147727
v 447.285329 7.335945 -0.147727
v 447.581594 -7.435162 -0.147727
v 447.876354 7.632210 87.306818
v 451.715759 -7.731427 87.306818
v 442.558635 2.312987 -0.147727
v 454.079858 6.744921 -0.147727
v 454.374619 -6.547873 -0.147727
v 442.853395 3.495036 87.306818
v 454.670883 6.448656 87.306818
v 443.149660 -3.890517 -0.147727
v 445.513759 -6.547873 87.306818
v 456.738718 4.086061 -0.147727
v 456.147693 -5.071063 87.306818
v 451.715759 7.632210 -0.147727
v 445.513759 6.448656 -0.147727
v 452.012024 7.632210 87.306818
v 450.829974 -7.731427 -0.147727
v 448.467379 -7.731427 87.306818
v 444.922734 6.153896 87.306818
v 442.262371 -0.935394 -0.147727
v 456.443958 -4.480038 -0.147727
v 442.262371 1.427202 87.306818
v 443.444420 4.380822 -0.147727
v 445.217495 -6.253113 -0.147727
v 457.626007 1.721962 -0.147727
v 456.443958 4.675582 87.306818
v 443.444420 -4.480038 87.306818
v 454.079858 -6.844137 87.306818
v 455.261908 5.857632 -0.147727
v 453.194073 -7.140402 -0.147727
v 448.467379 7.632210 -0.147727
v 442.262371 -1.524915 87.306818
v 446.399544 7.041185 86.116902
v 457.329743 -3.003228 86.699019
v 448.763643 -7.731427 -0.147727
v 457.329743 -2.706964 -0.147727
v 446.694305 -7.140402 -0.147727
v 447.285329 -7.435162 87.306818
v 444.035445 5.268111 86.699019
v 442.262371 0.836177 -0.147727
v 442.558635 -2.412204 -0.147727
v 443.740685 -4.776303 -0.147727
v 454.965644 -6.253113 87.007199
v 452.897809 7.335945 86.116902
v 457.329743 2.904012 86.407961
v 456.738718 -4.185278 87.306818
v 453.488834 -7.140402 87.007199
v 457.034982 3.495036 -0.147727
v 442.853395 3.198772 -0.147727
v 453.488834 7.041185 -0.147727
v 455.852933 5.266607 -0.147727
v 452.306784 -7.435162 -0.147727
f 21 34 56
f 2 3 4
f 5 4 6
f 3 2 7
f 3 7 8
f 5 6 9
f 4 5 10
f 6 4 11
f 8 7 12
f 7 2 13
f 9 6 14
f 8 12 15
f 4 10 16
f 3 8 17
f 10 5 18
f 5 9 19
f 7 13 20
f 18 7 20
f 6 11 21
f 8 15 22
f 21 8 22
f 12 7 23
f 9 14 24
f 11 4 25
f 12 9 26
f 15 12 26
f 19 9 27
f 14 6 28
f 2 4 29
f 4 16 29
f 13 2 30
f 1 14 31
f 15 26 31
f 28 15 31
f 17 8 32
f 10 13 33
f 16 10 33
f 13 30 33
f 21 11 34
f 5 7 35
f 18 5 35
f 7 18 35
f 26 24 36
f 1 31 36
f 31 26 36
f 7 5 37
f 5 19 37
f 23 7 37
f 19 23 37
f 6 21 39
f 22 6 39
f 21 22 39
f 4 3 40
f 25 4 40
f 3 38 40
f 38 25 40
f 28 6 41
f 15 28 41
f 6 22 42
f 22 15 42
f 41 6 42
f 15 41 42
f 12 23 43
f 23 19 43
f 27 12 43
f 19 27 43
f 9 24 44
f 26 9 44
f 24 26 44
f 14 1 45
f 24 14 45
f 1 36 45
f 36 24 45
f 14 28 46
f 31 14 46
f 28 31 46
f 11 25 47
f 25 17 47
f 32 11 47
f 17 32 47
f 20 13 48
f 18 20 48
f 2 29 49
f 30 2 49
f 3 17 50
f 17 25 50
f 38 3 50
f 25 38 50
f 32 8 51
f 11 32 51
f 8 34 51
f 34 11 51
f 29 16 52
f 16 30 52
f 49 29 52
f 30 49 52
f 9 12 53
f 27 9 53
f 12 27 53
f 13 10 54
f 10 18 54
f 48 13 54
f 18 48 54
f 30 16 55
f 16 33 55
f 33 30 55
f 8 21 56
f 34 8 56
