v 450.534173 16.788524 121.576191
v 448.764222 -20.140517 107.695669
v 451.124156 -20.140517 107.695669
v 447.879246 7.631978 87.306818
v 470.035098 1.130359 106.810838
v 429.853280 0.831434 112.417562
v 453.488024 -7.432270 128.667418
v 448.174238 -7.731195 87.306818
v 448.469230 19.447384 104.147959
v 437.833792 -5.662319 125.417447
v 433.106056 -9.501146 103.560867
v 465.008437 -13.638898 107.699863
v 466.192338 7.333053 120.095881
v 462.943495 15.014640 105.036983
v 457.920768 -0.340667 87.306818
v 433.696040 10.876888 104.152152
v 439.898734 11.765797 123.345852
v 464.418454 -10.980038 119.508790
v 444.925395 -17.182733 119.806529
v 450.829164 5.563102 129.556442
v 442.266535 1.720342 87.306818
v 434.581015 -12.749989 114.191418
v 461.759594 -12.749989 99.128326
v 438.128783 16.194607 113.600133
v 456.146883 -17.772717 118.032674
v 440.787643 -17.182733 103.854413
v 431.922156 0.536442 100.604442
v 457.920768 18.263483 114.484963
v 461.169611 2.605318 126.893563
v 460.284635 11.765797 96.767379
v 468.851198 -3.593443 116.850104
v 432.811064 7.628045 118.028480
v 440.197659 15.309632 100.604442
v 467.376238 1.130359 99.426065
v 457.920768 12.060789 124.528422
v 452.603048 -17.776650 100.310896
v 441.377627 1.720342 128.373872
v 436.944883 -9.796138 97.652210
v 467.671230 -6.547295 102.084751
v 465.897346 12.060789 114.484963
v 446.400354 19.152392 115.965273
v 454.078008 17.673500 100.604442
v 432.217148 -2.114551 119.802335
v 447.879246 -11.275030 126.889369
v 454.962983 -6.248370 87.306818
v 467.077313 8.513021 102.671843
v 453.783016 7.038062 87.306818
v 460.284635 -17.477725 107.699863
v 463.828470 -3.884502 124.532616
v 456.146883 -13.044981 124.528422
v 440.787643 -18.071642 112.119823
v 436.649891 9.397996 97.652210
v 437.833792 -12.749989 120.393621
v 445.810370 -3.888435 129.556442
v 468.556206 -8.321179 110.941447
v 469.441181 5.559169 112.417562
v 446.990338 10.585830 127.187108
v 430.742188 -6.547295 110.643707
v 436.059908 3.494227 124.532616
v 443.151511 -15.703841 98.830587
v 442.856519 -3.589510 87.306818
v 454.667991 19.742376 108.580500
v 440.492651 17.972425 108.580500
v 431.037180 7.333053 109.465331
f 32 24 64
f 8 4 15
f 4 8 21
f 2 3 25
f 19 2 25
f 22 11 26
f 20 7 29
f 17 24 32
f 9 4 33
f 28 1 35
f 29 13 35
f 20 29 35
f 3 2 36
f 26 11 38
f 11 27 38
f 12 23 39
f 34 5 39
f 15 34 39
f 14 28 40
f 28 35 40
f 35 13 40
f 17 1 41
f 24 17 41
f 1 28 41
f 4 9 42
f 14 30 42
f 32 6 43
f 8 15 45
f 36 8 45
f 23 36 45
f 39 23 45
f 15 39 45
f 30 14 46
f 15 30 46
f 5 34 46
f 34 15 46
f 14 40 46
f 15 4 47
f 30 15 47
f 4 42 47
f 42 30 47
f 12 18 48
f 23 12 48
f 25 3 48
f 18 25 48
f 3 36 48
f 36 23 48
f 13 29 49
f 29 7 49
f 31 13 49
f 18 31 49
f 25 18 50
f 19 25 50
f 44 19 50
f 7 44 50
f 49 7 50
f 18 49 50
f 2 19 51
f 26 2 51
f 22 26 51
f 4 21 52
f 27 16 52
f 21 27 52
f 33 4 52
f 16 33 52
f 43 22 53
f 10 43 53
f 44 10 53
f 19 44 53
f 51 19 53
f 22 51 53
f 7 20 54
f 37 10 54
f 20 37 54
f 10 44 54
f 44 7 54
f 18 12 55
f 5 31 55
f 31 18 55
f 12 39 55
f 39 5 55
f 31 5 56
f 13 31 56
f 40 13 56
f 5 46 56
f 46 40 56
f 1 17 57
f 35 1 57
f 20 35 57
f 37 20 57
f 17 37 57
f 11 22 58
f 6 27 58
f 27 11 58
f 43 6 58
f 22 43 58
f 17 32 59
f 10 37 59
f 37 17 59
f 43 10 59
f 32 43 59
f 2 26 60
f 36 2 60
f 8 36 60
f 38 8 60
f 26 38 60
f 21 8 61
f 27 21 61
f 8 38 61
f 38 27 61
f 28 14 62
f 9 41 62
f 41 28 62
f 42 9 62
f 14 42 62
f 16 24 63
f 9 33 63
f 33 16 63
f 41 9 63
f 24 41 63
f 24 16 64
f 27 6 64
f 16 27 64
f 6 32 64
