v 37.791165 2.596350 0.661188
v 39.961036 3.913772 18.715168
v 39.728436 3.913901 7.403675
v 39.651115 2.596350 0.505939
v 37.791165 2.596350 18.406475
v 38.411219 3.913901 0.348885
v 39.651115 2.596350 18.482294
v 38.411219 3.913901 18.639348
v 39.961036 3.913772 0.273066
v 39.961036 3.448709 18.637543
v 39.883715 3.138924 0.428315
v 38.333686 3.836262 0.348885
v 37.791165 2.673990 18.406475
v 39.806182 2.906393 18.559919
v 38.333686 3.836262 18.639348
v 37.791165 2.673990 0.661188
v 39.961036 3.448709 0.350690
f 12 9 17
f 1 4 5
f 5 4 7
f 2 3 8
f 3 6 8
f 3 2 9
f 6 3 9
f 9 2 10
f 4 1 12
f 8 6 12
f 6 9 12
f 1 5 13
f 7 4 14
f 5 7 14
f 10 2 14
f 11 10 14
f 4 11 14
f 2 8 15
f 8 12 15
f 13 5 15
f 5 14 15
f 14 2 15
f 12 1 16
f 1 13 16
f 15 12 16
f 13 15 16
f 9 10 17
f 10 11 17
f 11 4 17
f 4 12 17
