v 36.163541 1.666314 17.940274
v 38.331501 1.588705 0.658775
v 37.788555 1.433654 0.736612
v -0.030296 1.511263 9.030555
v 36.083246 -0.038751 17.862437
v 2.141487 -0.038585 6.937610
v 36.083246 -0.038751 1.125796
v 1.755307 -0.038585 11.972786
v 1.755307 1.511263 11.972786
v 39.031213 1.588705 18.329458
v 2.141487 1.511263 6.937610
v 39.031213 1.666314 0.658775
v 37.635612 0.426570 0.894016
v 37.478846 0.348961 18.094218
v -0.030296 -0.038585 9.957678
v 37.555318 1.666314 18.251621
v 36.702663 1.666314 0.892286
v 38.255029 0.813781 0.814449
v 0.359707 -0.038585 8.022136
v 35.463829 -0.038585 17.864167
v 35.077649 -0.038585 1.203633
v 0.359707 1.511263 10.966097
v 38.255029 0.813781 18.173785
v 36.859429 0.116300 0.971852
v 0.979124 1.511263 7.402902
v 2.065015 -0.038585 12.050623
v 39.031213 1.666314 18.329458
v 0.979124 -0.038585 11.585332
v 36.163541 1.666314 1.047959
v 36.859429 0.116300 18.016381
v 2.065015 1.511263 12.050623
v 39.031213 1.588705 0.658775
v 36.626192 1.511263 18.095948
v 1.212361 -0.038585 7.247228
v 0.359707 1.511263 8.022136
v -0.030296 1.511263 9.957678
v 0.359707 -0.038585 10.966097
v 0.049998 -0.038585 8.720938
v 1.212361 1.511263 11.741006
v 36.549721 0.038858 17.940274
f 24 30 40
f 7 5 15
f 12 1 16
f 14 10 16
f 2 3 17
f 6 11 17
f 1 12 17
f 12 2 17
f 13 2 18
f 7 6 21
f 17 3 21
f 6 17 21
f 10 14 23
f 14 13 23
f 13 18 23
f 3 2 24
f 2 13 24
f 13 14 24
f 21 3 24
f 7 21 24
f 8 5 26
f 9 8 26
f 5 20 26
f 10 12 27
f 12 16 27
f 16 10 27
f 5 8 28
f 4 1 29
f 1 17 29
f 17 11 29
f 11 25 29
f 14 16 30
f 16 20 30
f 24 14 30
f 1 9 31
f 16 1 31
f 9 26 31
f 2 12 32
f 12 10 32
f 18 2 32
f 10 23 32
f 23 18 32
f 20 16 33
f 26 20 33
f 16 31 33
f 31 26 33
f 6 7 34
f 11 6 34
f 7 19 34
f 25 11 34
f 19 25 34
f 25 19 35
f 4 29 35
f 29 25 35
f 1 4 36
f 4 15 36
f 22 1 36
f 15 22 36
f 15 5 37
f 22 15 37
f 5 28 37
f 28 22 37
f 15 4 38
f 7 15 38
f 19 7 38
f 4 35 38
f 35 19 38
f 9 1 39
f 8 9 39
f 1 22 39
f 28 8 39
f 22 28 39
f 5 7 40
f 20 5 40
f 7 24 40
f 30 20 40
