v 39.961158 11.586516 18.327205
v 38.411189 3.913901 0.351259
v 38.411189 4.069233 0.274750
v 40.038585 3.914698 0.274750
v 38.643788 3.914698 18.713484
v 38.488775 12.051716 1.592202
v 40.038744 11.741051 0.815913
v 38.488775 11.972855 17.707667
v 40.038585 3.914698 18.713484
v 38.411189 4.301833 18.713484
v 40.038744 12.050919 17.397897
v 38.488775 10.423515 -0.035019
v 38.488775 10.501580 19.026985
v 40.038744 10.423515 -0.035019
v 40.038744 10.501580 19.026985
v 40.038744 12.051716 1.592202
v 38.488775 5.696637 19.026985
v 38.488775 5.774701 -0.035019
v 40.038585 5.696637 19.026985
v 40.038585 5.774701 -0.035019
v 38.488775 12.051716 17.396031
v 38.411189 3.913901 18.636974
v 38.488775 11.198583 0.274750
v 38.488775 11.198583 18.713484
v 38.488775 11.741051 0.815913
v 40.038744 11.198583 0.274750
f 14 23 26
f 2 3 4
f 2 4 9
f 3 2 10
f 6 3 10
f 8 1 11
f 9 4 14
f 7 11 14
f 11 1 15
f 9 14 15
f 14 11 15
f 7 6 16
f 11 7 16
f 5 9 17
f 13 10 17
f 15 13 17
f 4 3 18
f 3 12 18
f 12 14 18
f 9 15 19
f 17 9 19
f 15 17 19
f 14 4 20
f 4 18 20
f 18 14 20
f 6 10 21
f 10 8 21
f 8 11 21
f 16 6 21
f 11 16 21
f 2 9 22
f 9 5 22
f 10 2 22
f 5 17 22
f 17 10 22
f 12 3 23
f 14 12 23
f 1 8 24
f 8 10 24
f 10 13 24
f 15 1 24
f 13 15 24
f 3 6 25
f 6 7 25
f 23 3 25
f 7 23 25
f 7 14 26
f 23 7 26
