v 37.093592 1.666314 0.815268
v 39.650918 2.596168 18.482704
v 38.565982 2.596168 18.482704
v 39.650918 2.596168 0.503769
v 39.108609 1.666314 18.403509
v 36.473857 1.666314 18.018096
v 37.713965 2.596168 0.662159
v 39.108609 1.666314 0.662159
v 37.713965 2.596168 18.326075
v 36.396111 1.743870 2.752896
v 39.573491 2.363682 0.503769
v 36.473857 1.666314 0.970138
v 36.473857 1.743870 18.018096
v 39.340891 1.976448 18.403509
v 39.650918 2.518703 18.482704
v 39.186036 1.743961 0.584724
f 11 14 16
f 3 2 4
f 1 5 6
f 5 3 6
f 3 4 7
f 5 1 8
f 6 3 9
f 3 7 9
f 9 7 10
f 7 4 11
f 1 6 12
f 7 1 12
f 10 7 12
f 6 10 12
f 6 9 13
f 9 10 13
f 10 6 13
f 14 11 15
f 2 3 15
f 4 2 15
f 3 5 15
f 11 4 15
f 5 14 15
f 1 7 16
f 8 1 16
f 5 8 16
f 7 11 16
f 14 5 16
