v -374.780822 163.449612 39.470547
v -401.650097 131.201550 39.471139
v -380.157307 132.887187 39.134367
v -374.780822 131.201550 45.180879
v -401.650097 163.449612 45.180879
v -401.650097 163.449612 39.471139
v -374.780822 163.449612 45.180879
v -401.650097 131.201550 45.180879
v -374.780822 131.201550 39.470547
v -374.780822 162.104891 39.134367
v -380.157307 162.104891 39.134367
v -374.780822 132.887187 39.134367
f 10 9 12
f 2 5 6
f 3 2 6
f 5 1 6
f 4 1 7
f 1 5 7
f 5 4 7
f 2 4 8
f 4 5 8
f 5 2 8
f 2 3 9
f 4 2 9
f 1 4 9
f 1 9 10
f 6 1 11
f 3 6 11
f 1 10 11
f 10 3 11
f 9 3 12
f 3 10 12
