v -374.780362 168.487879 44.171844
v -425.163026 164.794334 37.791421
v -425.163026 164.458318 38.127766
v -425.163026 169.159253 43.500601
v -374.780362 170.167959 37.791421
v -374.780362 163.450928 45.180155
v -374.780362 164.458318 38.127766
v -425.163026 163.450928 45.180155
v -425.163026 170.167959 37.791421
v -374.780362 163.450928 39.470975
v -374.780362 170.167959 41.485426
v -425.163026 166.473756 45.180155
v -425.163026 163.450928 39.470975
v -425.163026 170.167959 41.485426
v -374.780362 166.473756 45.180155
v -374.780362 164.794334 37.791421
v -374.780362 169.159253 43.500601
v -425.163026 168.487879 44.171844
f 4 12 18
f 2 3 4
f 5 1 6
f 5 6 7
f 3 2 7
f 4 3 8
f 2 4 9
f 5 2 9
f 7 6 10
f 3 7 10
f 6 8 10
f 1 5 11
f 5 9 11
f 4 8 12
f 8 6 12
f 8 3 13
f 3 10 13
f 10 8 13
f 9 4 14
f 4 11 14
f 11 9 14
f 6 1 15
f 1 12 15
f 12 6 15
f 2 5 16
f 5 7 16
f 7 2 16
f 4 1 17
f 1 11 17
f 11 4 17
f 1 4 18
f 12 1 18
