v -374.782992 128.513160 45.180879
v -425.165657 124.819746 7.894057
v -425.165657 124.819746 41.483585
v -425.165657 131.200301 39.129435
v -374.782992 130.192155 7.894057
v -374.782992 124.819746 7.894057
v -425.165657 130.192155 7.894057
v -374.782992 124.819746 41.483585
v -374.782992 131.200301 45.180879
v -425.165657 131.200301 45.180879
v -425.165657 126.499990 44.169871
v -374.782992 131.200301 39.129435
v -374.782992 125.828517 43.498300
v -425.165657 128.513160 45.180879
v -425.165657 125.828517 43.498300
v -374.782992 126.499990 44.169871
f 11 13 16
f 2 3 4
f 2 5 6
f 3 2 6
f 5 1 6
f 2 4 7
f 4 5 7
f 5 2 7
f 6 1 8
f 3 6 8
f 1 5 9
f 4 3 10
f 1 9 10
f 9 4 10
f 10 3 11
f 5 4 12
f 4 9 12
f 9 5 12
f 8 1 13
f 3 8 13
f 1 10 14
f 11 1 14
f 10 11 14
f 11 3 15
f 3 13 15
f 13 11 15
f 1 11 16
f 13 1 16
