v -425.167959 169.160075 1.511792
v -425.167959 39.832041 -0.167959
v -374.780362 39.832041 -0.167959
v -425.167959 39.832041 5.206126
v -374.785294 170.155201 5.542636
v -374.785294 166.468133 -0.167959
v -374.780362 39.832041 5.206126
v -425.167959 170.167959 5.542636
v -425.167959 166.468133 -0.167959
v -375.120685 170.167959 3.526376
v -375.120685 163.100016 5.542636
v -374.785294 168.483900 0.839892
v -425.167959 163.112774 5.542636
v -425.167959 170.167959 3.526376
v -375.120685 169.160075 1.511792
v -425.167959 168.483900 0.839892
f 12 9 16
f 2 3 4
f 1 2 4
f 3 2 6
f 4 3 7
f 3 5 7
f 1 4 8
f 2 1 9
f 6 2 9
f 8 5 10
f 4 7 11
f 7 5 11
f 5 8 11
f 5 3 12
f 3 6 12
f 6 9 12
f 10 5 12
f 8 4 13
f 4 11 13
f 11 8 13
f 1 8 14
f 10 1 14
f 8 10 14
f 1 10 15
f 12 1 15
f 10 12 15
f 9 1 16
f 1 12 16
