v -415.424844 163.449612 39.470547
v -425.165657 131.201550 39.470547
v -425.165657 131.201550 45.180879
v -401.653747 131.201550 45.180879
v -425.165657 163.449612 45.180879
v -401.653747 163.449612 39.471139
v -401.653747 131.201550 39.471139
v -401.653747 163.449612 45.180879
v -425.165657 162.104891 39.134367
v -419.793479 132.887187 39.134367
v -425.165657 163.449612 39.470547
v -419.793479 162.104891 39.134367
v -425.165657 132.887187 39.134367
f 9 10 13
f 3 2 4
f 2 3 5
f 3 4 5
f 1 5 6
f 4 2 7
f 6 4 7
f 5 4 8
f 4 6 8
f 6 5 8
f 2 5 9
f 7 2 10
f 6 7 10
f 5 1 11
f 1 9 11
f 9 5 11
f 1 6 12
f 9 1 12
f 6 10 12
f 10 9 12
f 2 9 13
f 10 2 13
