v 17.741718 7.246164 8.560969
v 0.053954 19.802842 10.354445
v 0.053954 19.802842 11.251937
v 18.511586 24.805836 13.302915
v 3.644111 3.910834 14.969900
v 8.514822 20.575182 3.945514
v 6.464400 2.501436 6.253994
v 11.843877 20.447279 19.198349
v 17.100481 3.785391 14.457908
v 2.361638 24.675473 15.609890
v 15.562665 24.677932 6.509990
v 3.515480 24.677932 6.893984
v 13.254981 3.271317 5.997998
v 10.177429 -0.064012 12.790924
v 1.977664 4.427368 9.200958
v 19.536796 20.958893 14.072409
v 17.613087 20.958893 6.765986
v 3.131506 20.191472 17.404872
v 2.876163 20.316915 6.125996
v 8.259479 25.064102 17.660868
v 1.593690 5.066885 13.816413
v 16.716507 21.345063 17.276874
v 14.280192 1.092038 8.560969
v 13.126350 20.447279 4.331014
v 6.080426 0.577965 9.330462
v 19.536796 21.345063 9.586458
v 18.254323 4.938982 10.611947
v 0.182585 21.214699 14.200407
v 9.029347 25.064102 5.484501
v 7.746874 19.163324 19.071857
v 16.330613 8.399755 16.123387
v 1.720401 25.064102 9.586458
v 10.434692 2.885147 5.484501
v 13.767587 24.677932 17.660868
v 10.306061 0.322158 7.535479
v 11.459903 1.475749 14.328405
v 4.540690 1.475749 13.432419
v 0.568479 21.214699 8.432971
v 17.741718 25.064102 9.200958
v 2.874243 8.783465 15.993883
v 5.696452 4.169101 6.125996
v 15.818008 4.424908 7.151486
v 17.870349 5.834306 14.456403
v 7.489611 23.908052 18.430362
v 5.823164 21.340143 4.587010
v 15.562665 1.603652 12.918922
v 2.747532 5.322692 7.919473
v 0.823822 20.319375 15.481892
v 18.638297 20.575182 15.737888
v 10.563323 24.294222 4.716513
v 14.024849 15.827995 18.174366
v 15.562665 20.189012 5.356503
v 1.336427 5.706402 10.354445
v 16.716507 25.064102 15.353894
v 0.823822 24.294222 13.304421
v 8.002216 3.785391 5.484501
v 2.618900 2.887606 10.098450
v 5.055216 20.958893 18.430362
v 17.484455 3.529584 9.842454
v 18.254323 4.938982 12.918922
v 11.204560 20.703086 3.945514
v 19.667348 20.447279 10.354445
v 6.977006 24.422125 5.100507
v 18.125692 24.291762 15.097898
f 4 54 64
f 4 16 26
f 1 17 26
f 1 26 27
f 2 3 28
f 3 21 28
f 10 20 32
f 29 12 32
f 20 29 32
f 24 13 33
f 8 22 34
f 13 23 35
f 23 14 35
f 14 25 35
f 25 7 35
f 7 33 35
f 33 13 35
f 30 5 36
f 9 31 36
f 5 21 37
f 25 14 37
f 36 5 37
f 14 36 37
f 12 19 38
f 32 12 38
f 17 11 39
f 4 26 39
f 26 17 39
f 11 29 39
f 29 20 39
f 21 5 40
f 5 30 40
f 17 1 42
f 23 13 42
f 31 9 43
f 20 10 44
f 30 8 44
f 34 20 44
f 8 34 44
f 19 12 45
f 41 19 45
f 14 23 46
f 36 14 46
f 9 36 46
f 7 15 47
f 15 38 47
f 38 19 47
f 41 7 47
f 19 41 47
f 18 10 48
f 10 28 48
f 28 21 48
f 21 40 48
f 40 18 48
f 22 31 49
f 43 16 49
f 31 43 49
f 11 24 50
f 29 11 50
f 22 8 51
f 8 30 51
f 31 22 51
f 30 36 51
f 36 31 51
f 11 17 52
f 24 11 52
f 13 24 52
f 17 42 52
f 42 13 52
f 3 2 53
f 21 3 53
f 2 38 53
f 38 15 53
f 20 34 54
f 4 39 54
f 39 20 54
f 2 28 55
f 28 10 55
f 10 32 55
f 38 2 55
f 32 38 55
f 6 33 56
f 33 7 56
f 7 41 56
f 45 6 56
f 41 45 56
f 15 7 57
f 7 25 57
f 37 21 57
f 25 37 57
f 21 53 57
f 53 15 57
f 10 18 58
f 18 40 58
f 40 30 58
f 44 10 58
f 30 44 58
f 1 27 59
f 42 1 59
f 23 42 59
f 46 23 59
f 46 59 60
f 16 43 60
f 43 9 60
f 9 46 60
f 59 27 60
f 33 6 61
f 24 33 61
f 6 50 61
f 50 24 61
f 26 16 62
f 27 26 62
f 16 60 62
f 60 27 62
f 12 29 63
f 45 12 63
f 6 45 63
f 50 6 63
f 29 50 63
f 16 4 64
f 34 22 64
f 49 16 64
f 22 49 64
f 54 34 64
