v 0.238114 1.540887 9.875684
v 7.915978 -0.025107 -0.025260
v 7.563302 -0.025107 0.025656
v 3.875784 -0.025107 11.745708
v 12.716356 1.540887 7.046347
v 7.563302 1.540887 0.025656
v 12.716356 -0.025107 -0.025260
v 0.390151 -0.025107 6.844995
v 12.716356 -0.025107 7.046347
v 12.716356 1.540887 -0.025260
v 4.532533 1.540887 11.543199
v 0.744073 1.540887 6.340459
v 1.248786 -0.025107 11.139339
v 5.897127 -0.025107 0.834534
v 2.259457 1.540887 11.645032
v 5.897127 1.540887 0.834534
v -0.014865 -0.025107 8.916371
v -0.014865 1.540887 8.057734
v 5.240377 -0.025107 11.189098
v 1.147843 -0.025107 5.885682
v 1.248786 1.540887 11.139339
v 0.491093 -0.025107 10.330461
v 2.663227 -0.025107 11.745708
v 12.614167 1.540887 7.148180
v 3.319977 1.540887 11.796625
v 6.754515 1.540887 0.279081
v 5.290225 1.540887 1.440903
v 0.036229 -0.025107 7.754549
v 0.238114 1.540887 7.148180
v 12.614167 -0.025107 7.148180
v 5.796184 1.540887 10.887071
v 6.451688 -0.025107 0.430674
v 7.915978 1.540887 -0.025260
v -0.014865 1.540887 8.916371
v 5.290225 -0.025107 1.440903
v 0.643130 1.540887 10.532970
v 1.854441 -0.025107 11.492283
v 0.036229 -0.025107 9.270472
v 4.532533 -0.025107 11.543199
v 1.147843 1.540887 5.885682
v 3.875784 1.540887 11.745708
v 7.007495 -0.025107 0.177248
v 1.551613 1.540887 11.340691
v 3.319977 -0.025107 11.796625
v 0.238114 -0.025107 9.875684
v 0.542188 -0.025107 6.592727
v 2.663227 1.540887 11.745708
v -0.014865 -0.025107 8.057734
v 8.471785 -0.025107 9.422064
v 0.542188 1.540887 6.592727
v 6.148860 1.540887 0.633182
v 0.036229 1.540887 9.270472
v 0.087323 1.540887 7.553197
v 0.137171 -0.025107 7.401605
v 0.643130 -0.025107 10.532970
v 7.158285 1.540887 0.127489
v 2.259457 -0.025107 11.645032
f 37 23 57
f 3 2 4
f 2 3 6
f 1 5 6
f 4 2 7
f 3 4 8
f 4 7 9
f 7 5 9
f 6 5 10
f 7 2 10
f 5 7 10
f 5 1 11
f 1 6 12
f 8 4 13
f 3 8 14
f 11 1 15
f 12 6 16
f 8 13 17
f 1 12 18
f 4 9 19
f 14 8 20
f 15 1 21
f 17 13 22
f 13 4 23
f 9 5 24
f 5 11 24
f 11 15 25
f 16 6 26
f 12 16 27
f 16 14 27
f 8 17 28
f 18 12 29
f 19 9 30
f 9 24 30
f 11 19 31
f 24 11 31
f 3 14 32
f 2 6 33
f 10 2 33
f 6 10 33
f 1 18 34
f 18 17 34
f 14 20 35
f 27 14 35
f 20 27 35
f 21 1 36
f 13 21 36
f 1 22 36
f 13 23 37
f 17 22 38
f 34 17 38
f 11 4 39
f 4 19 39
f 19 11 39
f 20 12 40
f 12 27 40
f 27 20 40
f 4 11 41
f 25 4 41
f 11 25 41
f 3 32 42
f 32 26 42
f 21 13 43
f 15 21 43
f 13 37 43
f 37 15 43
f 23 4 44
f 4 25 44
f 25 23 44
f 22 1 45
f 1 38 45
f 38 22 45
f 20 8 46
f 12 20 46
f 15 23 47
f 25 15 47
f 23 25 47
f 17 18 48
f 28 17 48
f 18 28 48
f 19 30 49
f 30 24 49
f 24 31 49
f 31 19 49
f 8 29 50
f 29 12 50
f 46 8 50
f 12 46 50
f 14 16 51
f 16 26 51
f 32 14 51
f 26 32 51
f 1 34 52
f 38 1 52
f 34 38 52
f 28 18 53
f 18 29 53
f 53 29 54
f 8 28 54
f 29 8 54
f 28 53 54
f 22 13 55
f 13 36 55
f 36 22 55
f 6 3 56
f 26 6 56
f 3 42 56
f 42 26 56
f 23 15 57
f 15 37 57
