v 23.275259 1.540887 5.329280
v 12.717493 -0.025107 -0.025260
v 12.717493 -0.025107 7.047662
v 12.717493 1.540887 -0.025260
v 22.870105 -0.025107 0.733542
v 12.717493 1.540887 7.047662
v 21.910966 -0.025107 6.946581
v 21.809677 1.540887 0.025280
v 21.304269 1.540887 7.047662
v 21.556456 -0.025107 -0.025260
v 23.275259 -0.025107 5.329280
v 23.275259 1.540887 1.693122
v 22.617917 1.540887 6.542256
v 23.275259 -0.025107 1.693122
v 21.304269 -0.025107 7.047662
v 22.819461 -0.025107 6.339401
v 22.870105 1.540887 0.733542
v 21.556456 1.540887 -0.025260
v 22.365730 -0.025107 0.278676
v 23.173970 1.540887 5.733605
v 21.910966 1.540887 6.946581
v 22.516629 1.540887 0.379757
v 23.173970 -0.025107 1.288797
v 22.264442 -0.025107 6.794267
v 23.173970 -0.025107 5.733605
v 23.173970 1.540887 1.288797
v 23.022038 1.540887 6.036157
v 21.961610 -0.025107 0.075821
v 22.264442 1.540887 6.794267
v 22.567273 -0.025107 6.592796
v 21.961610 1.540887 0.075821
v 22.971393 1.540887 0.884471
v 21.708389 1.540887 6.997122
v 22.819461 1.540887 6.339401
f 16 27 34
f 2 3 4
f 3 2 5
f 4 3 6
f 1 4 6
f 3 5 7
f 4 1 8
f 1 6 9
f 6 3 9
f 2 4 10
f 5 2 10
f 7 5 11
f 8 1 12
f 1 11 12
f 1 9 13
f 11 5 14
f 12 11 14
f 3 7 15
f 9 3 15
f 7 11 16
f 8 12 17
f 4 8 18
f 10 4 18
f 8 10 18
f 5 10 19
f 11 1 20
f 1 13 20
f 13 9 21
f 17 5 22
f 8 17 22
f 5 19 22
f 14 5 23
f 12 14 23
f 7 16 24
f 21 7 24
f 16 11 25
f 11 20 25
f 17 12 26
f 12 23 26
f 20 13 27
f 16 25 27
f 25 20 27
f 10 8 28
f 19 10 28
f 13 21 29
f 21 24 29
f 29 24 30
f 16 13 30
f 24 16 30
f 13 29 30
f 8 22 31
f 22 19 31
f 28 8 31
f 19 28 31
f 5 17 32
f 23 5 32
f 17 26 32
f 26 23 32
f 15 7 33
f 9 15 33
f 7 21 33
f 21 9 33
f 13 16 34
f 27 13 34
