v -65.150043 125.763948 1.653630
v -14.800464 128.511742 8.061036
v -14.800464 123.020038 8.061036
v -14.800464 120.577469 1.348077
v -65.150043 120.577469 6.534587
v -65.150043 128.511742 8.061036
v -14.800464 127.901293 3.484317
v -65.150043 120.577469 1.348077
v -14.800464 120.577469 6.534587
v -65.150043 128.511742 4.704556
v -14.800464 124.849053 1.348077
v -65.150043 123.020038 8.061036
v -14.800464 128.511742 4.704556
v -65.150043 127.901293 3.484317
v -14.800464 126.374396 1.958525
v -65.150043 124.849053 1.348077
v -65.150043 126.374396 1.958525
f 14 15 17
f 2 3 4
f 3 2 6
f 1 5 6
f 2 4 7
f 5 1 8
f 4 5 8
f 4 3 9
f 5 4 9
f 3 5 9
f 6 2 10
f 1 6 10
f 7 4 11
f 4 8 11
f 5 3 12
f 3 6 12
f 6 5 12
f 2 7 13
f 10 2 13
f 7 10 13
f 1 10 14
f 10 7 14
f 11 1 15
f 7 11 15
f 14 7 15
f 8 1 16
f 1 11 16
f 11 8 16
f 1 14 17
f 15 1 17
