v -45.316631 83.347418 51.405455
v -34.637193 88.534196 51.101277
v -34.637193 83.347418 51.101277
v -34.941423 88.534196 131.652597
v -45.316631 88.534196 49.884562
v -45.011354 83.347418 131.652597
v -45.011354 88.534196 131.652597
v -34.941423 83.347418 131.652597
v -34.637193 83.347418 49.884562
v -45.316631 83.347418 49.884562
v -34.637193 88.534196 49.884562
f 9 5 11
f 3 2 4
f 4 2 5
f 1 3 6
f 5 1 7
f 4 5 7
f 1 6 7
f 6 4 7
f 3 4 8
f 6 3 8
f 4 6 8
f 3 1 9
f 2 3 9
f 5 9 10
f 1 5 10
f 9 1 10
f 5 2 11
f 2 9 11
