v -57.218309 127.589737 44.984727
v -65.152582 91.281691 41.325115
v -57.218309 91.281691 41.325115
v -65.152582 128.511742 38.884128
v -65.152582 91.281691 46.511744
v -65.152582 125.148063 46.511744
v -57.218309 91.281691 46.511744
v -57.218309 128.511742 38.884128
v -57.218309 125.148063 46.511744
v -57.218309 123.322275 38.884128
v -65.152582 128.511742 43.153801
v -65.152582 123.322275 38.884128
v -57.218309 128.511742 43.153801
v -65.152582 126.984785 45.595534
f 11 6 14
f 2 3 5
f 4 2 5
f 4 5 6
f 6 5 7
f 3 1 7
f 5 3 7
f 1 3 8
f 6 7 9
f 7 1 9
f 3 2 10
f 8 3 10
f 4 8 10
f 4 6 11
f 8 4 11
f 2 4 12
f 10 2 12
f 4 10 12
f 1 8 13
f 11 1 13
f 8 11 13
f 9 1 14
f 6 9 14
f 1 11 14
