v -14.800464 83.653329 4.406113
v -65.147086 87.314047 1.347420
v -52.026899 86.398464 1.656139
v -14.800464 88.534465 46.510638
v -65.147086 83.347418 46.510638
v -65.147086 88.534465 46.510638
v -14.800464 88.839838 1.347420
v -14.800464 83.347418 46.510638
v -65.147086 83.347418 5.318021
v -65.147086 88.839838 1.347420
v -45.619596 88.534465 49.868552
v -34.332883 83.347418 49.868552
v -14.800464 83.347418 5.318021
v -14.800464 85.179121 2.268827
v -65.147086 84.263538 3.185485
v -34.332883 88.534465 49.868552
v -45.619596 83.347418 49.868552
v -14.800464 88.839838 8.979904
v -65.147086 88.839838 8.979904
v -14.800464 87.314047 1.347420
v -65.147086 85.179121 2.268827
v -14.800464 84.263538 3.185485
f 15 14 22
f 2 5 6
f 4 1 7
f 1 4 8
f 8 5 9
f 5 2 9
f 2 6 10
f 7 2 10
f 6 5 11
f 8 4 12
f 5 8 12
f 1 8 13
f 8 9 13
f 9 1 13
f 7 1 14
f 1 9 15
f 9 2 15
f 12 4 16
f 11 12 16
f 11 5 17
f 5 12 17
f 12 11 17
f 4 7 18
f 7 10 18
f 16 4 18
f 16 18 19
f 10 6 19
f 6 11 19
f 11 16 19
f 18 10 19
f 3 2 20
f 2 7 20
f 7 14 20
f 14 3 20
f 2 3 21
f 3 14 21
f 15 2 21
f 14 15 21
f 14 1 22
f 1 15 22
