v -57.218309 125.148063 46.511116
v -14.800464 128.511742 43.155414
v -14.800464 128.205621 44.069921
v -14.800464 91.281691 41.324517
v -57.218309 128.511742 40.103292
v -57.218309 91.281691 46.511116
v -14.800464 91.281691 46.511116
v -57.218309 91.281691 41.324517
v -14.800464 128.511742 40.103292
v -14.800464 125.151708 46.511116
v -15.107720 123.012510 40.103292
v -57.218309 127.589737 44.985056
v -57.218309 123.012510 40.103292
v -57.218309 128.511742 43.155414
v -15.107720 126.984785 45.595355
v -57.218309 126.070068 46.205653
f 10 15 16
f 2 3 4
f 1 5 6
f 4 3 7
f 1 6 7
f 6 4 7
f 4 6 8
f 6 5 8
f 2 4 9
f 5 2 9
f 1 7 10
f 7 3 10
f 4 8 11
f 9 4 11
f 5 9 11
f 5 1 12
f 8 5 13
f 11 8 13
f 5 11 13
f 3 2 14
f 2 5 14
f 12 3 14
f 5 12 14
f 10 3 15
f 3 12 15
f 15 12 16
f 1 10 16
f 12 1 16
