v -59.965834 122.713619 9.282918
v -57.218309 128.511742 38.882635
v -65.151029 128.511742 38.882635
v -57.218309 128.511742 8.061036
v -57.219086 123.324874 38.882635
v -65.151029 122.713619 9.282918
v -65.151029 122.713619 38.574902
v -65.151029 128.511742 8.061036
v -57.219086 123.019530 8.061036
v -59.965834 122.713619 38.574902
v -65.151029 123.019530 8.061036
f 8 9 11
f 3 2 4
f 2 3 5
f 5 3 7
f 3 6 7
f 6 1 7
f 3 4 8
f 6 3 8
f 4 2 9
f 2 5 9
f 1 6 9
f 8 4 9
f 9 5 10
f 7 1 10
f 5 7 10
f 1 9 10
f 6 8 11
f 9 6 11
