v -14.800464 122.713619 38.575828
v -57.217473 123.019530 8.061036
v -57.217473 123.019530 40.103292
v -14.800464 128.511742 8.061036
v -57.217473 128.511742 40.103292
v -14.800464 128.511742 40.103292
v -57.217473 128.511742 8.061036
v -14.800464 122.713619 9.284262
v -14.800464 123.019530 40.103292
v -14.800464 123.019530 8.061036
v -20.297735 122.713619 9.284262
v -20.297735 122.713619 38.575828
f 3 11 12
f 2 3 5
f 1 4 6
f 4 5 6
f 5 3 6
f 4 2 7
f 5 4 7
f 2 5 7
f 4 1 8
f 3 1 9
f 1 6 9
f 6 3 9
f 2 4 10
f 8 2 10
f 4 8 10
f 3 2 11
f 8 1 11
f 2 8 11
f 1 3 12
f 11 1 12
