v -61.861741 -24.534569 0.532893
v -11.924871 23.347063 49.238848
v -11.924871 -2.434596 49.238848
v -61.452665 22.937987 50.058163
v -13.157028 24.574292 0.125780
v -12.338876 -24.539497 0.532893
v -60.634513 -24.948573 49.640872
v -61.043589 24.988297 0.945095
v -13.975181 -24.534569 50.058163
v -13.566105 24.988297 49.233759
v -31.575315 5.337853 51.696792
v -62.275746 23.756140 48.826647
v -61.043589 23.756140 -0.291510
v -13.157028 -25.362578 0.945095
v -13.157028 -24.125492 -0.291510
v -62.275746 -24.130421 48.826647
v -62.275746 23.756140 0.945095
v -11.924871 24.165216 1.352207
v -60.634513 24.988297 49.233759
v -13.157028 -25.362578 48.826647
v -61.043589 -25.362578 0.945095
v -42.216226 -5.298129 51.696792
v -61.043589 -24.125492 -0.291510
v -11.924871 -24.539497 48.007332
v -13.566105 24.165216 50.058163
v -61.043589 -25.362578 48.826647
v -13.157028 23.756140 -0.291510
v -12.747952 24.988297 1.352207
v -11.924871 -23.312268 0.532893
v -62.275746 -24.130421 0.945095
v -61.043589 -24.125492 50.058163
v -12.747952 -23.716416 50.058163
v -42.216226 5.337853 51.696792
v -31.575315 -5.298129 51.696792
v -60.634513 24.165216 50.058163
v -12.338876 24.574292 48.826647
v -12.747952 23.347063 50.058163
v -61.452665 24.988297 48.007332
v -61.452665 -23.307340 50.058163
v -13.566105 -24.948573 0.125780
v -12.338876 23.756140 0.120691
v -61.861741 -24.948573 1.352207
v -61.861741 -23.716416 0.125780
v -11.924871 -24.539497 1.759320
v -60.225436 -24.534569 50.058163
v -60.225436 24.988297 0.532893
v -61.861741 24.574292 1.352207
v -60.634513 -24.948573 0.125780
v -61.861741 -24.948573 48.414445
v -61.861741 23.347063 0.125780
v -11.924871 -23.716416 49.233759
f 32 20 51
f 4 12 16
f 16 12 17
f 8 13 17
f 2 3 18
f 10 8 19
f 9 7 20
f 14 20 21
f 13 15 23
f 18 3 24
f 20 14 24
f 20 7 26
f 21 20 26
f 13 5 27
f 15 13 27
f 8 10 28
f 6 15 29
f 18 24 29
f 16 17 30
f 26 7 31
f 16 26 31
f 3 2 32
f 9 20 32
f 4 22 33
f 22 11 33
f 11 25 33
f 22 9 34
f 11 22 34
f 9 32 34
f 32 11 34
f 12 4 35
f 10 19 35
f 19 12 35
f 25 10 35
f 4 33 35
f 33 25 35
f 2 18 36
f 10 25 36
f 28 10 36
f 18 28 36
f 25 11 37
f 32 2 37
f 11 32 37
f 2 36 37
f 36 25 37
f 19 8 38
f 12 19 38
f 4 16 39
f 22 4 39
f 16 31 39
f 31 22 39
f 6 14 40
f 15 6 40
f 14 21 40
f 23 15 40
f 27 5 41
f 15 27 41
f 5 28 41
f 28 18 41
f 29 15 41
f 18 29 41
f 1 21 42
f 21 26 42
f 16 30 42
f 30 1 42
f 23 1 43
f 30 17 43
f 1 30 43
f 14 6 44
f 24 14 44
f 6 29 44
f 29 24 44
f 7 9 45
f 9 22 45
f 31 7 45
f 22 31 45
f 5 13 46
f 13 8 46
f 28 5 46
f 8 28 46
f 17 12 47
f 8 17 47
f 12 38 47
f 38 8 47
f 21 1 48
f 1 23 48
f 40 21 48
f 23 40 48
f 26 16 49
f 16 42 49
f 42 26 49
f 17 13 50
f 13 23 50
f 43 17 50
f 23 43 50
f 24 3 51
f 20 24 51
f 3 32 51
