v -40.988870 4.110384 140.109185
v -42.216987 -5.304100 51.696792
v -31.983350 -5.304100 51.696792
v -42.216987 4.929818 51.696792
v -42.216987 -5.304100 138.880274
v -31.983350 4.929818 139.287026
v -31.983350 -5.304100 138.880274
v -31.983350 4.929818 51.696792
v -42.216987 4.929818 138.880274
v -32.802762 -4.075949 140.109185
v -40.988870 -4.075949 140.109185
v -32.802762 4.110384 140.109185
f 10 6 12
f 3 2 4
f 2 3 5
f 4 2 5
f 5 3 7
f 3 6 7
f 3 4 8
f 6 3 8
f 4 6 8
f 5 1 9
f 4 5 9
f 6 4 9
f 1 6 9
f 5 7 10
f 7 6 10
f 1 5 11
f 10 1 11
f 5 10 11
f 6 1 12
f 1 10 12
