v 350.231199 5.234072 1.616350
v 410.098143 2.470644 1.616350
v 410.098143 -2.589737 1.616350
v 382.001189 -10.413545 90.032895
v 376.025124 -30.218115 -0.230263
v 384.764824 30.093117 -0.230263
v 382.461795 10.294453 90.032895
v 370.497855 -4.892594 90.032895
v 358.982709 22.275213 -0.221428
v 400.886027 -22.388402 -0.221428
v 355.758469 -18.703830 -0.230263
v 390.292094 -2.583832 90.032895
v 403.189056 19.966452 -0.221428
v 373.261489 8.452167 89.564615
v 371.879672 29.177879 1.616350
v 389.831488 4.312929 89.564615
v 364.509979 -26.072973 1.625185
v 389.831488 -28.836401 0.697461
v 350.231199 -6.728974 0.238017
v 407.795114 -12.722307 -0.230263
v 369.576643 2.931215 89.096335
v 374.643307 -9.498307 89.096335
v 396.279969 25.493308 2.084630
v 353.455440 14.900166 1.156906
v 387.989065 -9.037736 84.042446
v 408.255720 11.682072 0.238017
v 387.067853 8.452167 88.645726
v 365.431191 26.875023 0.238017
v 377.406942 10.294453 90.032895
v 382.461795 -30.218115 1.156906
v 378.328153 29.638451 3.922408
v 404.570874 -17.328021 3.003519
v 352.073622 -12.255831 0.697461
v 394.898152 -26.078877 3.003519
v 391.213305 28.262641 1.165741
v 368.655431 -0.741546 86.348504
v 358.982709 -21.927830 1.616350
v 371.419066 -28.836401 2.535239
v 378.328153 -10.874117 88.186282
v 351.613017 11.215595 -0.230263
v 349.770593 -2.129165 1.156906
v 389.370882 -5.347260 89.564615
v 370.497855 7.070453 84.961335
v 409.176932 -8.110689 1.616350
v 405.492085 16.281881 2.075794
v 392.595123 2.004168 80.358055
v 409.637537 7.070453 0.697461
v 372.340278 -7.650117 89.564615
v 384.764824 -9.492403 90.032895
v 356.219075 19.045309 1.156906
v 400.425421 22.729880 0.697461
v 389.831488 7.991596 81.268109
v 362.206950 24.578070 1.616350
v 354.837257 -17.322116 0.697461
v 384.304218 9.833881 89.564615
v 361.285738 -24.230687 0.238017
v 384.764824 27.796165 10.822909
v 351.613017 9.379215 3.462963
v 374.643307 9.839786 87.726837
v 369.576643 -2.583832 89.564615
v 370.497855 4.773501 90.032895
v 407.334508 -13.176974 1.616350
v 367.734220 -27.915258 0.697461
v 398.122392 -24.230687 2.084630
f 25 34 64
f 4 7 8
f 6 5 11
f 7 4 12
f 7 12 16
f 5 10 18
f 5 6 20
f 10 5 20
f 6 13 20
f 20 13 26
f 6 9 28
f 15 6 28
f 8 7 29
f 18 4 30
f 5 18 30
f 6 15 31
f 15 29 31
f 29 7 31
f 10 20 32
f 25 10 32
f 19 11 33
f 21 1 36
f 22 38 39
f 4 22 39
f 30 4 39
f 5 30 39
f 38 5 39
f 9 6 40
f 6 11 40
f 11 19 40
f 24 9 40
f 36 1 41
f 1 40 41
f 40 19 41
f 25 32 42
f 3 12 44
f 20 3 44
f 16 26 45
f 26 13 45
f 3 2 46
f 12 3 46
f 16 12 46
f 2 3 47
f 3 20 47
f 26 16 47
f 20 26 47
f 46 2 47
f 16 46 47
f 4 8 48
f 22 4 48
f 12 4 49
f 4 18 49
f 18 34 49
f 34 25 49
f 42 12 49
f 25 42 49
f 14 9 50
f 9 24 50
f 43 14 50
f 24 43 50
f 13 6 51
f 23 27 51
f 6 35 51
f 35 23 51
f 27 16 52
f 16 45 52
f 45 13 52
f 13 51 52
f 51 27 52
f 9 14 53
f 28 9 53
f 8 33 54
f 33 11 54
f 11 37 54
f 48 8 54
f 37 48 54
f 7 16 55
f 16 27 55
f 27 23 55
f 35 7 55
f 23 35 55
f 11 5 56
f 17 22 56
f 37 11 56
f 22 48 56
f 48 37 56
f 6 31 57
f 31 7 57
f 35 6 57
f 7 35 57
f 1 21 58
f 40 1 58
f 24 40 58
f 15 28 59
f 29 15 59
f 14 29 59
f 53 14 59
f 28 53 59
f 33 8 60
f 19 33 60
f 21 36 60
f 36 41 60
f 41 19 60
f 8 29 61
f 29 14 61
f 14 43 61
f 43 24 61
f 58 21 61
f 24 58 61
f 60 8 61
f 21 60 61
f 32 20 62
f 12 42 62
f 42 32 62
f 44 12 62
f 20 44 62
f 22 17 63
f 5 38 63
f 38 22 63
f 56 5 63
f 17 56 63
f 18 10 64
f 10 25 64
f 34 18 64
