v 376.941826 -15.945225 95.098819
v 381.540959 3.389803 140.230263
v 378.327462 3.389803 140.230263
v 378.327462 23.196536 104.311825
v 405.032895 -1.666295 110.301507
v 354.835526 3.389803 117.200206
v 379.246306 -23.315630 125.489454
v 375.561104 9.841363 90.032895
v 384.307317 21.810900 127.789020
v 399.505091 -2.590052 131.479136
v 360.825208 -15.483347 122.266131
v 399.043213 16.288011 109.377750
v 395.819889 -20.087393 113.524831
v 390.292086 -3.508896 90.032895
v 360.363330 -6.270341 99.707779
v 360.825208 16.744976 118.119050
v 363.586653 7.531970 133.316824
v 371.875902 -23.315630 108.001941
v 375.099225 -12.260023 137.002026
v 361.744052 12.140930 101.550380
v 399.043213 11.679051 127.789020
v 392.596566 -13.640745 132.859859
v 394.901045 12.136016 97.865178
v 393.515409 -17.321034 101.550380
v 369.576335 -2.590052 90.032895
v 372.799659 21.353935 127.327142
v 361.744052 -4.889618 132.397980
v 387.992519 24.115380 117.657171
v 403.647259 -7.194098 121.804252
v 384.307317 -24.234474 108.001941
v 359.901451 -13.640745 106.616305
v 370.495179 23.653501 113.062952
v 383.845439 12.602808 137.002026
v 401.347692 -5.813376 102.012259
v 386.611797 20.892057 101.550380
v 404.109137 6.613126 120.423529
v 390.292086 -1.204416 138.382748
v 392.596566 -21.011150 122.728009
v 368.652578 -20.549271 125.489454
v 386.149918 8.912692 90.032895
v 401.804658 7.075005 103.392981
v 366.809977 -15.021468 98.788935
v 382.926595 -10.417422 90.032895
v 355.297405 -3.970775 109.839628
v 368.652578 19.968299 103.392981
v 373.718503 13.983531 135.621304
v 402.266536 -11.798144 110.301507
v 356.221162 -3.970775 123.646853
v 396.738733 18.587577 120.880494
v 357.601885 5.694282 103.849946
v 368.652578 1.085323 137.920870
v 394.439167 11.679051 132.859859
v 361.287087 11.679051 128.250899
v 369.576335 -23.315630 116.738327
v 383.383560 -12.721902 137.002026
v 383.383560 -25.158231 117.657171
v 377.865584 25.039137 119.499772
v 399.043213 -15.021468 123.646853
v 382.464716 -20.092306 99.245900
v 359.901451 15.364253 110.758472
v 366.353012 -11.798144 133.316824
v 363.129688 5.689369 96.484455
v 380.622115 -19.630428 131.479136
v 396.738733 4.308646 96.022577
f 41 34 64
f 8 14 25
f 24 13 30
f 16 26 32
f 3 2 33
f 24 14 34
f 8 4 35
f 12 23 35
f 4 28 35
f 28 12 35
f 21 10 36
f 29 5 36
f 10 29 36
f 22 10 37
f 33 2 37
f 14 8 40
f 8 35 40
f 35 23 40
f 23 12 41
f 5 34 41
f 36 5 41
f 12 36 41
f 1 18 42
f 25 1 42
f 15 25 42
f 31 15 42
f 18 31 42
f 14 24 43
f 1 25 43
f 25 14 43
f 31 11 44
f 15 31 44
f 4 8 45
f 8 20 45
f 32 4 45
f 9 26 46
f 3 33 46
f 33 9 46
f 13 24 47
f 5 29 47
f 34 5 47
f 24 34 47
f 11 27 48
f 27 17 48
f 6 44 48
f 44 11 48
f 12 28 49
f 28 9 49
f 36 12 49
f 21 36 49
f 44 6 50
f 15 44 50
f 19 3 51
f 17 27 51
f 3 46 51
f 46 17 51
f 10 21 52
f 9 33 52
f 37 10 52
f 33 37 52
f 49 9 52
f 21 49 52
f 16 6 53
f 26 16 53
f 17 46 53
f 46 26 53
f 6 48 53
f 48 17 53
f 11 31 54
f 31 18 54
f 7 39 54
f 39 11 54
f 2 3 55
f 3 19 55
f 37 2 55
f 22 37 55
f 30 13 56
f 18 30 56
f 38 7 56
f 13 38 56
f 7 54 56
f 54 18 56
f 26 9 57
f 28 4 57
f 9 28 57
f 4 32 57
f 32 26 57
f 10 22 58
f 29 10 58
f 22 38 58
f 38 13 58
f 13 47 58
f 47 29 58
f 18 1 59
f 30 18 59
f 24 30 59
f 1 43 59
f 43 24 59
f 6 16 60
f 16 32 60
f 45 20 60
f 32 45 60
f 50 6 60
f 20 50 60
f 27 11 61
f 11 39 61
f 39 19 61
f 19 51 61
f 51 27 61
f 20 8 62
f 8 25 62
f 25 15 62
f 50 20 62
f 15 50 62
f 7 38 63
f 38 22 63
f 39 7 63
f 19 39 63
f 55 19 63
f 22 55 63
f 34 14 64
f 14 40 64
f 40 23 64
f 23 41 64
