v -0.203252 153.049497 -0.203252
v 26.219512 160.365854 100.203252
v 4.271237 160.365854 100.203252
v 5.489436 153.048780 100.203252
v 26.219512 160.365854 -0.203252
v 26.216926 154.675354 -0.203252
v 2.644385 159.959031 -0.203252
v 26.216926 154.675354 100.203252
v -0.203252 156.707317 100.203252
v -0.203252 153.049497 100.203252
v -0.203252 156.707317 -0.203252
v 5.489436 153.048780 -0.203252
v 4.271237 160.365854 -0.203252
v 1.829666 159.552209 100.203252
v 0.611467 158.332458 -0.203252
v 0.611467 158.332458 100.203252
v 1.829666 159.552209 -0.203252
f 15 14 17
f 2 3 4
f 3 2 5
f 5 2 6
f 1 5 6
f 5 1 7
f 2 4 8
f 6 2 8
f 4 6 8
f 4 3 9
f 1 4 10
f 4 9 10
f 9 1 10
f 7 1 11
f 1 9 11
f 4 1 12
f 6 4 12
f 1 6 12
f 3 5 13
f 7 3 13
f 5 7 13
f 3 7 14
f 9 3 14
f 7 11 15
f 11 9 15
f 14 15 16
f 9 14 16
f 15 9 16
f 14 7 17
f 7 15 17
