v 55.485298 160.365854 -0.203252
v 60.365854 155.488004 100.193424
v 60.365854 155.081460 100.193424
v 33.943089 160.365854 100.203252
v 33.943089 154.674916 -0.203252
v 60.363267 153.455961 -0.203252
v 33.943089 154.674916 100.203252
v 33.943089 160.365854 -0.203252
v 55.485298 160.365854 100.203252
v 54.267099 153.455285 100.203252
v 59.551135 157.925914 -0.203252
v 57.926869 159.552090 100.203252
v 60.363267 153.455961 100.203252
v 54.267099 153.455285 -0.203252
v 57.926869 159.552090 -0.203252
v 59.551135 157.925914 100.203252
v 60.363267 155.488680 -0.203252
v 57.112150 159.959310 100.203252
v 59.957201 157.112826 -0.203252
f 17 11 19
f 2 3 6
f 5 1 6
f 4 5 7
f 4 1 8
f 1 5 8
f 5 4 8
f 1 4 9
f 4 7 9
f 9 7 10
f 7 5 10
f 6 1 11
f 9 10 12
f 3 2 13
f 6 3 13
f 10 6 13
f 12 10 13
f 5 6 14
f 6 10 14
f 10 5 14
f 11 1 15
f 12 11 15
f 11 12 16
f 13 2 16
f 12 13 16
f 2 6 17
f 6 11 17
f 1 9 18
f 9 12 18
f 15 1 18
f 12 15 18
f 16 2 19
f 11 16 19
f 2 17 19
