v 58.331415 100.609756 -0.203252
v 60.365854 106.300813 100.203252
v 54.265284 106.300813 100.203252
v 32.320256 99.796748 100.203252
v 32.320256 105.080982 -0.203252
v 60.365854 106.300813 -0.203252
v 56.706061 99.796748 100.203252
v 32.320256 99.796748 -0.203252
v 32.320256 105.080982 100.203252
v 56.706061 99.796748 -0.203252
v 59.956770 102.643231 100.203252
v 54.265284 106.300813 -0.203252
v 59.956770 102.643231 -0.203252
v 59.144092 101.422764 100.203252
v 60.365854 104.267974 -0.203252
v 60.365854 104.267974 100.203252
v 58.331415 100.609756 100.203252
v 59.550431 101.830223 -0.203252
f 14 1 18
f 2 3 4
f 3 2 6
f 1 5 6
f 2 4 7
f 7 4 8
f 5 1 8
f 4 5 8
f 4 3 9
f 5 4 9
f 3 5 9
f 1 7 10
f 7 8 10
f 8 1 10
f 2 7 11
f 5 3 12
f 3 6 12
f 6 5 12
f 1 6 13
f 11 7 14
f 6 2 15
f 13 6 15
f 13 15 16
f 2 11 16
f 11 13 16
f 15 2 16
f 7 1 17
f 1 14 17
f 14 7 17
f 1 13 18
f 13 11 18
f 11 14 18
