v 0.611666 101.829427 -0.203252
v 32.313890 104.674319 100.203252
v 32.313890 99.796748 100.203252
v -0.200069 107.113821 100.203252
v 32.313890 105.081142 -0.203252
v 3.457513 99.796748 100.203252
v 32.313890 99.796748 -0.203252
v -0.200069 107.113821 -0.203252
v 3.457513 99.796748 -0.203252
v 5.488442 107.113821 100.203252
v -0.200069 103.455285 100.203252
v 5.488442 107.113821 -0.203252
v 32.313890 105.081142 100.193424
v 1.830860 100.610393 100.203252
v -0.200069 103.455285 -0.203252
v 0.611666 101.829427 100.203252
v 1.830860 100.610393 -0.203252
f 9 14 17
f 3 2 4
f 2 3 5
f 3 4 6
f 1 5 7
f 5 3 7
f 3 6 7
f 5 1 8
f 1 7 9
f 7 6 9
f 4 2 10
f 8 4 10
f 6 4 11
f 4 8 11
f 5 8 12
f 10 5 12
f 8 10 12
f 2 5 13
f 10 2 13
f 5 10 13
f 9 6 14
f 6 11 14
f 8 1 15
f 1 11 15
f 11 8 15
f 11 1 16
f 1 14 16
f 14 11 16
f 1 9 17
f 14 1 17
