v 11.518850 1.528324 13.618779
v 0.108853 -0.033963 12.056778
v 0.108853 -0.033963 12.192915
v 12.876349 -0.033963 12.056944
v 0.108853 1.528324 12.056778
v 1.942603 -0.033963 13.754916
v 12.876349 1.528324 12.056944
v 1.942603 1.528324 13.754916
v 11.042600 -0.033963 13.754916
v 0.991353 1.528324 13.347336
v 12.605099 -0.033963 12.736133
v 11.042600 1.528324 13.754916
v 0.991353 -0.033963 13.347336
v 12.605099 1.528324 12.736133
v 11.993849 -0.033963 13.347336
v 0.380103 1.528324 12.736299
v 0.380103 -0.033963 12.736299
v 11.993849 1.528324 13.347336
v 1.331353 -0.033963 13.550960
v 12.808849 -0.033963 12.396539
v 11.518850 -0.033963 13.618779
v 1.670103 1.528324 13.686930
f 10 19 22
f 3 2 4
f 2 3 5
f 4 2 5
f 3 4 6
f 5 1 7
f 4 5 7
f 1 5 8
f 8 6 9
f 6 4 9
f 8 5 10
f 9 4 11
f 1 8 12
f 8 9 12
f 9 1 12
f 3 6 13
f 7 1 14
f 11 14 15
f 9 11 15
f 5 3 16
f 10 5 16
f 13 10 16
f 13 16 17
f 3 13 17
f 16 3 17
f 14 1 18
f 15 14 18
f 1 15 18
f 13 6 19
f 10 13 19
f 4 7 20
f 11 4 20
f 7 14 20
f 14 11 20
f 1 9 21
f 15 1 21
f 9 15 21
f 6 8 22
f 8 10 22
f 19 6 22
