v 12.945372 1.528324 12.056466
v 11.655073 -0.033963 8.864592
v 13.013317 -0.033963 8.864592
v 11.655073 1.528324 8.864592
v 11.723018 -0.033963 12.056466
v 13.013317 1.528324 8.864592
v 13.013317 -0.033963 11.784644
v 11.723018 1.528324 12.056466
v 12.945372 -0.033963 12.056466
v 11.655073 -0.033963 10.426785
v 13.013317 1.528324 11.784644
v 11.655073 1.528324 10.426785
f 10 8 12
f 3 2 4
f 2 3 5
f 3 4 6
f 4 1 6
f 5 3 7
f 3 6 7
f 1 4 8
f 5 1 8
f 1 5 9
f 7 1 9
f 5 7 9
f 4 2 10
f 2 5 10
f 5 8 10
f 6 1 11
f 1 7 11
f 7 6 11
f 8 4 12
f 4 10 12
