v 61.783774 1.528324 3.701568
v 14.575737 -0.033963 -0.033963
v 14.575737 -0.033963 6.554812
v 14.575737 1.528324 -0.033963
v 59.269955 -0.033963 0.034402
v 14.575737 1.528324 6.554812
v 58.655363 -0.033963 6.554812
v 58.928002 1.528324 -0.033963
v 58.655363 1.528324 6.554812
v 61.575829 -0.033963 4.516136
v 61.307812 -0.033963 1.461023
v 61.104488 1.528324 1.189501
v 60.628526 1.528324 5.807319
v 58.928002 -0.033963 -0.033963
v 60.152564 -0.033963 6.146561
v 61.783774 -0.033963 2.819281
v 60.286573 1.528324 0.442008
v 61.645144 1.528324 2.207872
v 60.559211 -0.033963 0.645811
v 61.104488 1.528324 5.331348
v 59.473279 1.528324 6.418728
v 61.104488 -0.033963 5.331348
v 61.575829 1.528324 4.516136
v 61.783774 -0.033963 3.701568
v 59.745917 -0.033963 0.169840
v 59.200640 -0.033963 6.486447
v 59.745917 1.528324 0.169840
v 61.783774 1.528324 2.819281
v 61.575829 -0.033963 2.004713
v 60.152564 1.528324 6.146561
v 61.307812 1.528324 1.461023
v 60.628526 -0.033963 5.807319
f 22 13 32
f 2 3 4
f 3 2 5
f 4 3 6
f 1 4 6
f 3 5 7
f 6 3 7
f 2 4 8
f 4 1 8
f 1 6 9
f 6 7 9
f 7 5 10
f 10 5 11
f 8 1 12
f 1 9 13
f 5 2 14
f 2 8 14
f 8 5 14
f 7 10 15
f 10 11 16
f 8 12 17
f 12 1 18
f 11 5 19
f 12 11 19
f 17 12 19
f 1 13 20
f 13 9 21
f 15 10 22
f 10 20 22
f 20 13 22
f 10 1 23
f 1 20 23
f 20 10 23
f 1 10 24
f 16 1 24
f 10 16 24
f 19 5 25
f 17 19 25
f 9 7 26
f 7 15 26
f 21 9 26
f 15 21 26
f 5 8 27
f 8 17 27
f 25 5 27
f 17 25 27
f 1 16 28
f 18 1 28
f 16 18 28
f 16 11 29
f 18 16 29
f 15 13 30
f 13 21 30
f 21 15 30
f 11 12 31
f 12 18 31
f 29 11 31
f 18 29 31
f 13 15 32
f 15 22 32
