v 8.733797 1.528324 2.819534
v 13.081123 -0.033963 -0.033178
v 12.672752 -0.033963 0.034295
v 13.148204 -0.033963 7.980463
v 2.552922 -0.033963 7.980463
v 13.148204 1.528324 7.980463
v 14.574560 1.528324 -0.033178
v 2.552922 1.528324 7.980463
v 14.574560 -0.033963 6.622365
v 14.574560 -0.033963 -0.033178
v 14.574560 1.528324 6.622365
v 11.518251 1.528324 0.578005
v 11.246396 -0.033963 0.781994
v 2.824777 -0.033963 7.640742
v 12.672752 1.528324 0.034295
v 2.824777 1.528324 7.640742
v 11.993703 -0.033963 0.305758
v 13.081123 1.528324 -0.033178
v 10.567347 -0.033963 1.325704
v 12.265558 1.528324 0.170027
f 17 12 20
f 3 2 4
f 3 4 5
f 5 4 6
f 1 6 7
f 6 1 8
f 5 6 8
f 4 2 9
f 6 4 9
f 7 9 10
f 2 7 10
f 9 2 10
f 7 6 11
f 6 9 11
f 9 7 11
f 1 7 12
f 3 5 13
f 5 8 14
f 13 5 14
f 2 3 15
f 12 7 15
f 8 1 16
f 1 14 16
f 14 8 16
f 3 13 17
f 13 12 17
f 7 2 18
f 2 15 18
f 15 7 18
f 1 12 19
f 12 13 19
f 14 1 19
f 13 14 19
f 15 3 20
f 12 15 20
f 3 17 20
