v 9.276903 1.528324 12.056466
v 2.214497 -0.033963 8.864592
v 2.214497 -0.033963 9.815655
v 10.160579 -0.033963 8.864592
v 2.214497 1.528324 8.864592
v 3.708034 -0.033963 12.056466
v 10.160579 1.528324 8.864592
v 3.708034 1.528324 12.056466
v 9.276903 -0.033963 12.056466
v 10.160579 -0.033963 9.815655
v 2.214497 1.528324 9.815655
v 10.160579 1.528324 9.815655
f 10 7 12
f 3 2 4
f 2 3 5
f 4 2 5
f 3 4 6
f 5 1 7
f 4 5 7
f 1 5 8
f 3 6 8
f 6 1 8
f 6 4 9
f 1 6 9
f 4 7 10
f 1 9 10
f 9 4 10
f 5 3 11
f 8 5 11
f 3 8 11
f 7 1 12
f 1 10 12
