v 0.039678 1.528324 10.494172
v 1.330103 -0.033963 8.864279
v 0.990741 -0.033963 9.136227
v 1.194358 -0.033963 10.698088
v 2.213294 1.528324 9.815110
v 1.330103 1.528324 8.864279
v 2.213294 -0.033963 8.864279
v 0.039678 -0.033963 10.698088
v 1.194358 1.528324 10.698088
v 2.213294 -0.033963 9.815110
v 2.213294 1.528324 8.864279
v 0.447337 1.528324 9.679585
v 0.311380 -0.033963 9.882962
v 0.039678 1.528324 10.698088
f 9 1 14
f 3 2 4
f 2 3 6
f 1 5 6
f 4 2 7
f 2 6 7
f 3 4 8
f 8 4 9
f 5 1 9
f 4 5 9
f 5 4 10
f 4 7 10
f 7 5 10
f 6 5 11
f 5 7 11
f 7 6 11
f 1 6 12
f 6 3 12
f 8 1 13
f 3 8 13
f 1 12 13
f 12 3 13
f 1 8 14
f 8 9 14
