v 31.763614 29.176568 11.736534
v 24.011139 11.954620 12.597583
v 24.657684 11.738916 11.736534
v 29.393706 29.607978 11.736534
v 30.686797 28.099856 13.243664
v 26.812077 11.307506 11.951943
v 29.178191 29.825495 13.243664
v 25.734501 11.523211 13.243664
v 24.226654 13.247037 13.243664
v 31.548099 27.454554 11.951943
v 26.812077 11.307506 11.736534
f 1 10 11
f 3 2 4
f 1 3 4
f 1 4 7
f 5 1 7
f 5 7 8
f 2 3 8
f 6 5 8
f 4 2 9
f 7 4 9
f 8 7 9
f 2 8 9
f 1 5 10
f 5 6 10
f 10 6 11
f 3 1 11
f 8 3 11
f 6 8 11
