v 30.902228 29.391893 17.980508
v 24.011139 11.952850 13.245077
v 24.657347 11.739632 13.245077
v 25.519408 13.029688 19.487955
v 28.533247 28.100046 19.487955
v 28.962928 29.606902 13.245077
v 25.950438 11.952850 13.245077
v 30.902228 28.961875 13.245077
v 24.442169 14.106526 19.487955
v 27.242180 16.475211 19.704208
v 30.256019 26.808198 19.704208
v 25.733911 11.739632 18.196129
v 24.011139 12.597878 13.245077
v 24.011139 12.167859 18.196129
v 28.962928 29.606902 18.626738
v 24.657347 14.751554 19.704208
v 30.040167 29.825495 13.245077
f 6 15 17
f 3 2 6
f 3 6 7
f 7 6 8
f 8 1 11
f 7 8 11
f 10 7 11
f 3 7 12
f 10 4 12
f 7 10 12
f 6 2 13
f 9 6 13
f 9 13 14
f 2 3 14
f 4 9 14
f 3 12 14
f 12 4 14
f 13 2 14
f 9 5 15
f 6 9 15
f 11 1 15
f 5 11 15
f 9 4 16
f 5 9 16
f 4 10 16
f 10 11 16
f 11 5 16
f 1 8 17
f 8 6 17
f 15 1 17
