v 3.123554 37.579256 9.798457
v 40.599736 86.676980 11.736007
v 82.584269 66.645895 11.736007
v 82.584269 63.845146 9.798457
v 84.084306 30.902228 11.520702
v 0.972403 39.086092 11.520702
v 1.400984 78.706039 9.798457
v 84.084306 30.902228 9.798457
v 1.400984 81.714250 11.736007
v 40.599736 84.738840 10.013951
v 34.138041 30.902228 11.520702
v 34.138041 30.902228 9.798457
v 22.294348 85.377608 10.229255
v -0.107294 41.460995 9.798457
v 40.599736 83.657850 9.798457
v -0.107294 76.549517 11.520702
v 84.084306 61.694084 9.798457
v 64.493172 63.626764 11.736007
v 22.294348 86.671521 11.736007
v 82.584269 66.001668 10.659864
v -0.107294 76.549517 9.798457
v 84.084306 61.694084 11.520702
v 3.988959 37.366334 11.520702
v -0.107294 41.460995 11.520702
v 40.599736 85.377608 10.229255
v 1.400984 78.706039 11.736007
v 1.400984 80.638719 10.444560
v 22.294348 83.652390 9.798457
v 40.599736 86.676980 11.520702
v 82.584269 64.920677 10.013951
v 22.294348 86.671521 11.520702
v 82.584269 63.632224 11.736007
v 61.690906 76.554976 11.305398
v 1.400984 79.781570 10.013951
f 13 28 34
f 4 1 7
f 1 4 8
f 3 2 9
f 8 5 11
f 1 8 12
f 8 11 12
f 1 6 14
f 7 1 14
f 4 7 15
f 10 4 15
f 8 4 17
f 5 8 17
f 3 9 18
f 11 5 18
f 9 2 19
f 3 17 20
f 7 14 21
f 16 9 21
f 14 16 21
f 3 5 22
f 17 3 22
f 5 17 22
f 6 1 23
f 1 12 23
f 12 11 23
f 11 18 23
f 14 6 24
f 9 16 24
f 16 14 24
f 10 13 25
f 18 9 26
f 6 23 26
f 23 18 26
f 24 6 26
f 9 24 26
f 21 9 27
f 13 10 28
f 15 7 28
f 10 15 28
f 2 3 29
f 19 2 29
f 25 13 29
f 4 10 30
f 17 4 30
f 20 17 30
f 10 25 30
f 25 20 30
f 9 19 31
f 13 27 31
f 27 9 31
f 19 29 31
f 29 13 31
f 5 3 32
f 3 18 32
f 18 5 32
f 3 20 33
f 20 25 33
f 29 3 33
f 25 29 33
f 7 21 34
f 27 13 34
f 21 27 34
f 28 7 34
