v 39.084135 87.107399 19.487404
v 40.160970 85.600522 11.737040
v 22.290158 84.308442 11.737819
v 22.290158 87.107399 12.598798
v 24.873847 85.385175 19.704208
v 40.590988 84.308442 11.952284
v 23.151985 87.107399 19.056914
v 40.590988 87.107399 12.598798
v 39.514152 85.385175 19.272159
v 22.290158 86.676706 11.737819
v 22.505167 85.385175 18.195936
v 40.590988 87.107399 17.765447
v 40.590988 86.676706 11.737040
v 24.873847 87.107399 19.704208
v 38.222308 85.385175 19.704208
v 40.590988 85.385175 17.765447
v 22.290158 87.107399 17.118934
f 11 7 17
f 5 3 6
f 3 2 6
f 1 4 7
f 4 1 8
f 2 3 10
f 3 4 10
f 3 5 11
f 5 7 11
f 8 1 12
f 6 8 12
f 1 9 12
f 6 2 13
f 4 8 13
f 8 6 13
f 2 10 13
f 10 4 13
f 1 7 14
f 7 5 14
f 5 6 15
f 6 9 15
f 9 1 15
f 1 14 15
f 14 5 15
f 9 6 16
f 6 12 16
f 12 9 16
f 4 3 17
f 7 4 17
f 3 11 17
