v 84.092822 0.323399 10.658305
v 33.058537 -0.107673 -0.106535
v 31.765142 -0.107673 0.324833
v 28.750875 2.045792 9.581593
v 79.998899 1.614930 -0.106535
v 28.970094 -0.107673 9.796708
v 84.092822 2.045792 11.521040
v 81.719771 -0.107673 0.539947
v 33.058537 1.614930 -0.106535
v 28.537136 1.399710 11.521040
v 84.092822 -0.107673 9.796708
v 84.092822 1.614930 3.770082
v 28.104177 2.045792 11.521040
v 29.397572 1.614930 2.908485
v 79.998899 -0.107673 -0.106535
v 84.092822 2.045792 9.581593
v 29.183833 -0.107673 3.554967
v 84.092822 1.399710 11.521040
v 28.970094 0.323399 10.658305
v 84.092822 -0.107673 3.770082
v 28.750875 0.969059 11.303649
v 83.013166 1.614930 1.616659
f 12 20 22
f 3 2 6
f 6 2 8
f 2 3 9
f 4 5 9
f 5 2 9
f 1 6 11
f 7 1 11
f 6 8 11
f 7 11 12
f 7 4 13
f 10 7 13
f 9 3 14
f 4 9 14
f 13 4 14
f 2 5 15
f 5 8 15
f 8 2 15
f 5 4 16
f 4 7 16
f 7 12 16
f 3 6 17
f 6 13 17
f 14 3 17
f 13 14 17
f 1 7 18
f 7 10 18
f 6 1 19
f 11 8 20
f 12 11 20
f 13 6 21
f 10 13 21
f 1 18 21
f 18 10 21
f 19 1 21
f 6 19 21
f 8 5 22
f 5 16 22
f 16 12 22
f 20 8 22
