v 17.333731 82.154429 19.704208
v 19.057388 80.647551 11.737040
v 19.057388 81.723736 11.737040
v 1.399752 81.723736 11.737819
v 2.908401 80.432205 19.487404
v 19.704208 79.355472 11.952284
v 1.399752 79.355472 11.737819
v 1.618345 82.154429 18.411181
v 18.195560 80.432205 19.487404
v 19.704208 82.154429 12.814042
v 1.399752 82.154429 12.814042
v 19.487407 82.154429 18.195936
v 3.770230 82.154429 19.704208
v 1.399752 80.432205 17.765447
v 3.770230 80.432205 19.704208
v 19.704208 80.432205 17.334958
v 17.333731 80.432205 19.704208
f 1 15 17
f 3 2 4
f 2 3 6
f 4 2 7
f 2 6 7
f 6 3 10
f 8 1 10
f 3 4 11
f 4 7 11
f 10 3 11
f 8 10 11
f 1 9 12
f 10 1 12
f 1 8 13
f 8 5 13
f 7 5 14
f 5 8 14
f 11 7 14
f 8 11 14
f 5 7 15
f 7 6 15
f 1 13 15
f 13 5 15
f 9 6 16
f 6 10 16
f 12 9 16
f 10 12 16
f 9 1 17
f 6 9 17
f 15 6 17
