v 82.585396 67.080446 12.382953
v 64.496287 64.281215 11.737166
v 64.496287 64.281215 11.952428
v 82.585396 64.281215 11.737166
v 80.216247 65.358053 19.704208
v 65.144350 67.079898 19.057641
v 64.496287 66.864804 11.952428
v 81.507061 67.079898 19.272124
v 65.790643 65.358053 19.488166
v 82.585396 65.358053 17.980550
v 82.585396 66.649436 11.737166
v 66.865436 67.079898 19.704208
v 64.496287 67.079898 12.382953
v 64.496287 65.358053 18.195813
v 82.585396 67.080446 17.980550
v 80.216247 67.079898 19.704208
v 64.496287 66.649436 11.737166
v 66.865436 65.358053 19.704208
f 12 9 18
f 3 2 4
f 3 4 5
f 2 3 7
f 4 1 10
f 5 4 10
f 8 5 10
f 4 2 11
f 1 4 11
f 7 1 11
f 6 9 12
f 1 7 13
f 7 3 13
f 3 9 14
f 9 6 14
f 13 3 14
f 6 13 14
f 10 1 15
f 8 10 15
f 6 12 15
f 13 6 15
f 1 13 15
f 5 8 16
f 12 5 16
f 8 15 16
f 15 12 16
f 2 7 17
f 11 2 17
f 7 11 17
f 3 5 18
f 9 3 18
f 5 12 18
