v 59.326305 77.201459 19.704208
v 61.049963 75.694581 11.736386
v 61.049963 76.770766 11.736386
v 43.392327 74.402502 11.737166
v 43.392327 77.201459 13.244002
v 45.762804 75.479234 19.704208
v 61.696782 74.402502 11.952428
v 60.833162 75.479234 19.056861
v 44.470957 77.201459 19.272124
v 61.696782 77.201459 13.244002
v 43.392327 76.770766 11.737166
v 43.392327 75.479234 17.765288
v 61.696782 77.201459 17.334764
v 59.326305 75.479234 19.704208
v 45.762804 77.201459 19.704208
v 43.392327 77.201459 17.765288
v 61.696782 75.479234 17.334764
f 13 8 17
f 3 2 4
f 2 3 7
f 4 2 7
f 6 4 7
f 1 5 9
f 5 1 10
f 3 5 10
f 7 3 10
f 3 4 11
f 4 5 11
f 5 3 11
f 5 4 12
f 4 6 12
f 6 9 12
f 1 8 13
f 10 1 13
f 7 10 13
f 1 6 14
f 6 7 14
f 7 8 14
f 8 1 14
f 6 1 15
f 1 9 15
f 9 6 15
f 9 5 16
f 5 12 16
f 12 9 16
f 8 7 17
f 7 13 17
