v 25.522041 12.386768 10.444560
v 84.092716 30.902228 11.520892
v 84.092716 2.045792 11.520892
v 84.092716 30.902228 9.798457
v 29.615156 29.823218 11.736196
v 84.092716 2.045792 9.798457
v 28.108703 2.045792 11.520702
v 34.134517 30.902228 9.798457
v 28.318906 2.045792 9.798457
v 24.441832 11.954599 11.736196
v 34.134517 30.902228 11.520892
v 26.380369 3.771642 9.798457
v 31.337651 29.391050 10.013951
v 32.628063 28.747034 11.736196
v 27.460578 11.093087 11.736196
v 27.244536 11.739927 9.798457
v 29.399114 28.314865 11.090094
v 26.380369 3.771642 11.520702
v 24.441832 12.386768 11.520702
f 5 17 19
f 2 3 4
f 4 3 6
f 6 3 7
f 2 4 8
f 4 6 8
f 8 6 9
f 6 7 9
f 5 2 11
f 2 8 11
f 8 5 11
f 8 9 12
f 9 7 12
f 5 8 13
f 3 2 14
f 2 5 14
f 5 10 14
f 14 10 15
f 7 3 15
f 10 7 15
f 3 14 15
f 12 1 16
f 8 12 16
f 1 13 16
f 13 8 16
f 13 1 17
f 5 13 17
f 7 10 18
f 12 7 18
f 10 12 18
f 10 5 19
f 1 12 19
f 12 10 19
f 17 1 19
