v -113.822055 0.709318 15.477520
v -155.718364 -4.517234 15.477520
v -155.238495 -6.425341 15.477520
v -134.768159 18.330265 45.471469
v -130.962013 -19.753048 44.514340
v -139.529942 20.711250 15.477520
v -154.762727 4.040208 44.514340
v -130.486245 -20.711250 15.477520
v -117.152432 10.233257 43.563083
v -147.622103 -15.949280 44.514340
v -118.108070 -11.187310 44.514340
v -123.341520 17.853238 15.477520
v -151.428248 13.564147 15.956084
v -146.670566 16.899185 44.038712
v -142.860319 -19.757196 15.477520
v -118.108070 -13.087120 15.477520
v -129.530607 19.753048 43.563083
v -114.773591 -2.617424 44.038712
v -153.335422 -7.375246 44.989969
v -123.821389 -16.422158 44.989969
v -138.098536 -20.234223 43.563083
v -151.428248 -13.564147 15.477520
v -117.152432 11.664337 15.477520
v -155.718364 4.517234 15.477520
v -116.676664 2.613276 45.471469
v -142.860319 -16.899185 45.471469
v -121.438447 15.472253 44.038712
v -138.098536 20.234223 43.563083
v -152.859654 10.233257 43.563083
v -130.486245 20.707101 15.477520
v -115.249359 -7.852272 15.956084
v -123.341520 -17.853238 15.956084
v -153.811190 -8.329299 43.563083
v -151.428248 8.802177 45.471469
v -115.249359 5.471287 43.563083
v -146.670566 17.853238 15.477520
v -155.238495 -3.090303 43.563083
v -121.914215 -15.949280 43.563083
v -126.675998 -18.803143 43.563083
v -135.243927 -21.188276 15.956084
v -114.773591 6.425341 15.956084
v -143.336088 18.807291 43.563083
v -145.239160 -17.853238 43.563083
v -146.670566 -17.853238 15.956084
v -116.200896 -8.329299 43.563083
v -150.956581 -13.087120 43.087455
v -118.579737 -8.802177 45.471469
v -134.292391 21.184128 15.956084
v -123.341520 14.518200 45.471469
v -154.762727 7.852272 15.477520
v -126.675998 18.803143 43.563083
v -149.529277 14.518200 44.038712
v -131.913550 -20.230075 43.563083
v -152.859654 -11.660189 15.956084
v -155.238495 3.090303 43.563083
v -118.108070 13.091268 15.956084
v -114.297823 -4.517234 15.477520
v -132.389318 20.230075 44.038712
v -142.860319 16.899185 45.471469
v -132.389318 -18.326117 45.471469
v -153.335422 -2.613276 45.471469
v -119.055505 -13.087120 43.563083
v -148.097871 -15.949280 43.087455
v -114.773591 3.090303 43.563083
f 41 35 64
f 3 2 1
f 1 2 6
f 3 1 8
f 1 6 12
f 3 8 15
f 8 1 16
f 3 15 22
f 1 12 23
f 6 2 24
f 19 10 26
f 25 4 26
f 12 6 30
f 8 16 32
f 26 4 34
f 29 7 34
f 9 25 35
f 6 24 36
f 2 3 37
f 24 2 37
f 3 33 37
f 33 19 37
f 11 20 38
f 32 16 38
f 32 38 39
f 20 5 39
f 8 32 39
f 38 20 39
f 15 8 40
f 21 15 40
f 1 23 41
f 23 9 41
f 9 35 41
f 28 6 42
f 36 14 42
f 6 36 42
f 15 21 43
f 26 10 43
f 21 26 43
f 22 15 44
f 15 43 44
f 18 11 45
f 16 31 45
f 10 19 46
f 19 33 46
f 11 18 47
f 20 11 47
f 18 25 47
f 25 26 47
f 6 28 48
f 30 6 48
f 4 25 49
f 25 9 49
f 9 27 49
f 29 13 50
f 13 36 50
f 36 24 50
f 27 12 51
f 12 30 51
f 30 17 51
f 49 27 51
f 13 29 52
f 29 34 52
f 36 13 52
f 14 36 52
f 5 21 53
f 39 5 53
f 8 39 53
f 40 8 53
f 21 40 53
f 3 22 54
f 33 3 54
f 46 33 54
f 22 46 54
f 7 29 55
f 37 7 55
f 24 37 55
f 50 24 55
f 29 50 55
f 9 23 56
f 23 12 56
f 12 27 56
f 27 9 56
f 16 1 57
f 1 18 57
f 31 16 57
f 18 45 57
f 45 31 57
f 28 4 58
f 17 30 58
f 48 28 58
f 30 48 58
f 4 49 58
f 51 17 58
f 49 51 58
f 4 28 59
f 34 4 59
f 42 14 59
f 28 42 59
f 14 52 59
f 52 34 59
f 5 20 60
f 21 5 60
f 26 21 60
f 20 47 60
f 47 26 60
f 19 26 61
f 34 7 61
f 26 34 61
f 7 37 61
f 37 19 61
f 11 38 62
f 38 16 62
f 45 11 62
f 16 45 62
f 43 10 63
f 22 44 63
f 44 43 63
f 10 46 63
f 46 22 63
f 18 1 64
f 25 18 64
f 35 25 64
f 1 41 64
