v -139.050772 -58.321591 15.474584
v -129.534895 60.231841 13.568948
v -126.197853 59.748383 14.045741
v -75.729513 -12.133627 -0.238071
v -195.238071 5.459542 -0.238071
v -192.856154 8.796584 15.474584
v -160.476233 -54.984549 -0.238071
v -147.139856 59.264924 -0.238071
v -76.684639 -4.516209 15.474584
v -90.492682 41.176505 -0.238071
v -103.345600 -51.659298 -0.238071
v -183.800152 -35.469338 14.520997
v -174.284276 43.558422 15.474584
v -92.402932 -42.131630 14.997790
v -84.785515 32.603963 14.997790
v -182.373361 37.839463 -0.238071
v -190.945903 -23.076295 -0.238071
v -77.156305 17.840794 -0.238071
v -109.536226 54.984549 -0.238071
v -104.772392 50.220715 15.474584
v -122.872603 -59.264924 13.568948
v -129.534895 -60.231841 -0.238071
v -158.565982 55.456216 14.520997
v -194.282945 -11.661960 14.045741
v -165.240067 -51.647507 14.997790
v -189.519111 26.413337 13.568948
v -81.920139 -29.278712 -0.238071
v -79.538222 -24.031420 14.045741
v -176.666193 -44.030089 -0.238071
v -75.257847 8.796584 14.044203
v -166.666858 51.659298 -0.238071
v -147.139856 -59.264924 13.568948
v -101.918808 50.692382 14.045741
v -176.666193 44.030089 13.568948
v -104.772392 -50.220715 15.474584
v -129.534895 60.231841 -0.238071
v -185.238736 -30.222046 15.474584
v -142.859480 59.264924 14.997790
v -191.901028 20.706169 -0.238071
v -194.754612 9.280043 13.568948
v -105.727517 -53.074299 13.568948
v -93.829724 -44.513547 -0.238071
v -75.257847 -9.280043 13.568948
v -74.774388 5.471334 -0.236532
v -114.300060 -56.894799 -0.238071
v -80.021681 25.458212 13.568948
v -147.139856 -59.264924 -0.238071
v -170.947234 -48.793923 13.568948
v -86.212306 -35.941005 13.568948
v -195.238071 -5.459542 -0.238071
v -117.153644 57.838132 13.568948
v -81.920139 29.278712 -0.238071
v -87.639098 37.839463 13.568948
v -189.519111 -26.413337 13.568948
v -186.665528 -31.660629 -0.238071
v -139.522438 -60.231841 14.045741
v -126.197853 57.838132 15.474584
v -183.800152 35.457546 14.520997
v -80.021681 20.222711 15.474584
v -155.712399 -56.883007 13.568948
v -97.154975 47.367131 -0.238071
v -97.154975 -47.367131 13.568948
v -140.477563 60.231841 13.568948
v -84.785515 -30.222046 15.474584
f 49 28 64
f 5 4 7
f 4 5 8
f 6 1 9
f 4 8 10
f 7 4 11
f 6 9 13
f 8 5 16
f 5 7 17
f 4 10 18
f 10 8 19
f 13 9 20
f 7 11 22
f 11 4 27
f 27 4 28
f 17 7 29
f 8 16 31
f 23 8 31
f 20 15 33
f 13 23 34
f 31 16 34
f 23 31 34
f 9 1 35
f 1 21 35
f 2 3 36
f 19 8 36
f 1 6 37
f 6 24 37
f 25 1 37
f 12 25 37
f 3 2 38
f 23 13 38
f 16 5 39
f 26 16 39
f 26 39 40
f 24 6 40
f 6 26 40
f 39 5 40
f 35 21 41
f 11 27 42
f 28 4 43
f 9 28 43
f 30 9 43
f 30 43 44
f 4 18 44
f 18 30 44
f 43 4 44
f 22 11 45
f 21 22 45
f 11 41 45
f 41 21 45
f 30 18 46
f 7 22 47
f 25 12 48
f 29 7 48
f 12 29 48
f 27 28 49
f 42 27 49
f 5 17 50
f 17 24 50
f 40 5 50
f 24 40 50
f 33 19 51
f 20 33 51
f 36 3 51
f 19 36 51
f 18 10 52
f 46 18 52
f 46 52 53
f 33 15 53
f 15 46 53
f 52 10 53
f 24 17 54
f 37 24 54
f 12 37 54
f 17 29 55
f 29 12 55
f 12 54 55
f 54 17 55
f 21 1 56
f 22 21 56
f 1 32 56
f 47 22 56
f 32 47 56
f 13 20 57
f 3 38 57
f 38 13 57
f 51 3 57
f 20 51 57
f 6 13 58
f 26 6 58
f 16 26 58
f 13 34 58
f 34 16 58
f 20 9 59
f 15 20 59
f 9 30 59
f 46 15 59
f 30 46 59
f 1 25 60
f 32 1 60
f 7 47 60
f 47 32 60
f 48 7 60
f 25 48 60
f 10 19 61
f 19 33 61
f 53 10 61
f 33 53 61
f 14 35 62
f 41 11 62
f 35 41 62
f 11 42 62
f 49 14 62
f 42 49 62
f 8 23 63
f 2 36 63
f 36 8 63
f 38 2 63
f 23 38 63
f 28 9 64
f 9 35 64
f 35 14 64
f 14 49 64
