v -364.821429 4.116324 60.535714
v -445.178571 -4.095584 -0.172628
v -445.178571 4.116324 -0.172628
v -445.178571 -4.095584 60.535714
v -365.899045 -5.168201 -0.172628
v -365.899045 5.188942 -0.172628
v -444.100955 5.188942 60.535714
v -365.899045 -5.168201 60.535714
v -444.100955 -5.168201 -0.172628
v -444.100955 5.188942 -0.172628
v -444.100955 -5.168201 60.535714
v -365.899045 5.188942 60.535714
v -364.821429 -4.095584 -0.172628
v -364.821429 4.116324 -0.172628
v -445.178571 4.116324 60.535714
v -364.821429 -4.095584 60.535714
f 8 13 16
f 3 2 4
f 2 3 5
f 5 3 6
f 4 1 7
f 1 4 8
f 5 8 9
f 4 2 9
f 2 5 9
f 6 3 10
f 3 7 10
f 7 6 10
f 8 4 11
f 9 8 11
f 4 9 11
f 1 6 12
f 7 1 12
f 6 7 12
f 5 6 13
f 8 5 13
f 6 1 14
f 1 13 14
f 13 6 14
f 3 4 15
f 7 3 15
f 4 7 15
f 1 8 16
f 13 1 16
