v -404.466523 -6.240049 99.460476
v -408.033197 -5.526463 60.539525
v -408.391389 -6.596843 60.897681
v -385.893906 -6.955104 77.685318
v -407.320625 -20.168201 81.960336
v -424.464286 -5.169669 82.672839
v -389.822582 -5.169669 92.674552
v -394.467642 -16.952657 75.182032
v -414.461594 -15.167222 69.824924
v -395.180215 -15.167222 89.816919
v -415.177977 -15.167222 89.458763
v -392.322303 -5.169669 64.825973
v -402.321184 -15.882277 67.325449
v -420.177418 -5.169669 67.325449
v -417.677697 -5.169669 95.174027
v -419.461035 -14.452168 78.755978
v -406.604241 -14.453636 94.457714
v -389.110010 -12.311408 84.101655
v -393.751259 -10.884235 66.612946
v -408.391389 -19.096353 73.398870
v -400.179655 -19.453146 84.101655
v -397.325554 -10.527442 95.886530
v -420.889990 -10.525973 87.675600
v -421.960755 -9.455593 73.395060
v -400.179655 -7.668691 61.613995
v -385.539525 -5.169669 82.676649
v -400.896038 -19.453146 75.182032
v -413.390830 -10.527442 95.532184
v -410.532918 -12.668201 64.825973
v -389.110010 -11.241028 73.395060
v -414.461594 -18.023037 77.681508
v -404.108331 -17.309450 90.887579
v -396.967362 -5.169669 98.031659
v -394.825833 -17.666243 81.960336
v -416.606933 -9.455593 65.896633
v -411.961874 -18.381298 85.888628
v -388.039245 -5.526463 69.824924
v -389.822582 -9.455593 90.175076
v -402.679375 -12.312876 63.755314
v -395.538406 -15.167222 69.824924
v -417.677697 -15.524016 84.463622
v -422.677138 -10.169180 81.960336
v -409.820345 -5.169669 99.102319
v -424.106094 -5.527931 75.182032
v -389.822582 -13.738581 79.110324
v -413.032638 -5.169669 61.968341
v -401.608611 -13.381788 95.174027
v -418.035889 -13.738581 71.966243
v -419.461035 -8.383745 91.962049
v -408.749580 -16.239070 68.041762
v -406.962433 -10.169180 97.673503
v -409.820345 -16.239070 91.603892
v -423.031519 -5.527931 88.029947
v -400.179655 -5.169669 60.897681
v -393.393067 -9.455593 94.103368
v -406.604241 -18.739560 88.029947
v -398.396318 -13.023526 65.542286
v -386.610289 -6.955104 85.888628
v -401.608611 -18.381298 71.611897
v -398.754510 -17.309450 89.100606
v -400.179655 -19.809940 78.752167
v -406.604241 -20.168201 77.327162
v -391.251538 -14.095374 85.888628
v -401.608611 -9.097332 98.031659
f 51 47 64
f 6 7 12
f 6 12 14
f 7 6 15
f 3 2 25
f 12 19 25
f 12 7 26
f 9 20 31
f 7 15 33
f 24 14 35
f 29 9 35
f 31 5 36
f 19 12 37
f 12 26 37
f 26 4 37
f 4 30 37
f 30 19 37
f 3 25 39
f 29 3 39
f 30 8 40
f 19 30 40
f 11 23 41
f 16 31 41
f 36 11 41
f 31 36 41
f 24 16 42
f 41 23 42
f 16 41 42
f 15 28 43
f 1 33 43
f 33 15 43
f 6 14 44
f 14 24 44
f 42 6 44
f 24 42 44
f 4 18 45
f 30 4 45
f 8 30 45
f 34 8 45
f 2 3 46
f 14 12 46
f 3 29 46
f 35 14 46
f 29 35 46
f 10 22 47
f 17 32 47
f 16 24 48
f 9 31 48
f 31 16 48
f 35 9 48
f 24 35 48
f 23 11 49
f 28 15 49
f 11 28 49
f 20 9 50
f 9 29 50
f 39 13 50
f 29 39 50
f 28 17 51
f 1 43 51
f 43 28 51
f 17 47 51
f 17 28 52
f 28 11 52
f 32 17 52
f 11 36 52
f 15 6 53
f 6 42 53
f 42 23 53
f 49 15 53
f 23 49 53
f 25 2 54
f 12 25 54
f 2 46 54
f 46 12 54
f 22 10 55
f 7 33 55
f 33 22 55
f 10 38 55
f 38 7 55
f 5 21 56
f 21 32 56
f 36 5 56
f 32 52 56
f 52 36 56
f 25 19 57
f 13 39 57
f 39 25 57
f 40 13 57
f 19 40 57
f 18 4 58
f 26 7 58
f 4 26 58
f 38 18 58
f 7 38 58
f 8 27 59
f 27 20 59
f 40 8 59
f 13 40 59
f 50 13 59
f 20 50 59
f 32 21 60
f 34 10 60
f 21 34 60
f 10 47 60
f 47 32 60
f 21 5 61
f 27 8 61
f 8 34 61
f 34 21 61
f 20 27 62
f 5 31 62
f 31 20 62
f 61 5 62
f 27 61 62
f 10 34 63
f 38 10 63
f 18 38 63
f 45 18 63
f 34 45 63
f 33 1 64
f 22 33 64
f 47 22 64
f 1 51 64
