v -400.186123 4.116604 99.456875
v -445.178571 -3.737672 60.539594
v -445.178571 3.758972 60.539594
v -364.821429 -3.737672 60.539594
v -410.175705 -5.168201 99.099907
v -366.253006 5.188452 60.539594
v -417.671824 5.546085 95.177138
v -370.185913 -5.168201 72.323421
v -441.961454 -5.168201 69.110708
v -442.669377 5.188452 67.325868
v -369.824085 4.830820 72.680389
v -392.682137 -5.168201 95.530226
v -365.899045 -5.168201 60.539594
v -392.328176 5.546085 95.177138
v -408.028338 5.546085 60.539594
v -439.814087 -3.381089 74.108261
v -416.963901 -5.168201 95.887194
v -444.100955 -5.168201 60.539594
v -441.599627 3.402388 71.966453
v -370.185913 -3.381089 74.108261
v -409.821743 5.546085 99.099907
v -365.537218 3.044756 66.251084
v -418.749441 0.188942 95.177138
v -443.746994 5.188452 60.539594
v -402.325624 -4.096353 99.813843
v -390.896598 0.903157 94.820170
v -370.185913 3.402388 74.108261
v -444.462782 -3.024505 66.251084
v -366.253006 -3.737672 68.035924
v -386.971557 5.546085 71.970333
v -411.245455 0.545525 99.456875
v -396.969005 -1.596073 98.742939
v -424.106059 5.546085 75.183046
v -407.674376 1.258692 100.174691
v -439.814087 3.402388 74.108261
v -444.816744 3.402388 64.823211
v -440.175915 4.830820 72.680389
v -367.322757 5.188452 67.321988
v -396.969005 5.546085 98.029002
v -364.821429 3.758972 60.539594
v -367.684584 3.402388 70.895549
v -399.824295 -5.168201 99.099907
v -414.462573 2.331589 98.029002
v -391.612387 -3.382137 95.177138
v -440.891703 -4.452937 72.323421
v -394.821638 1.973957 97.672034
v -414.462573 -2.310289 98.029002
v -385.893941 5.546085 84.460335
v -418.749441 -3.382137 94.820170
v -402.325624 1.258692 100.174691
v -404.111163 4.830820 99.813843
v -394.821638 5.546085 63.038371
v -418.749441 3.402388 94.820170
v -442.315416 -3.381089 70.891669
v -443.746994 3.758972 68.039804
v -364.821429 -3.381089 62.681403
v -406.250664 -2.667922 100.174691
v -417.671824 5.546085 64.823211
v -423.744232 5.546085 85.888208
v -366.253006 -4.809520 66.251084
v -369.108297 -4.452937 72.323421
v -444.462782 -4.452937 64.823211
v -391.250559 3.402388 94.820170
v -368.400373 -3.381089 71.966453
f 61 29 64
f 2 3 4
f 4 3 6
f 8 5 9
f 5 8 12
f 2 4 13
f 8 9 13
f 6 3 15
f 7 14 15
f 9 5 17
f 2 13 18
f 13 9 18
f 14 7 21
f 3 10 24
f 15 3 24
f 26 20 27
f 11 14 27
f 15 14 30
f 7 15 33
f 21 31 34
f 19 16 35
f 16 23 35
f 3 2 36
f 10 3 36
f 2 28 36
f 7 10 37
f 35 7 37
f 19 35 37
f 14 11 38
f 14 21 39
f 4 6 40
f 6 38 40
f 38 22 40
f 11 27 41
f 29 22 41
f 38 11 41
f 22 38 41
f 5 12 42
f 25 5 42
f 32 25 42
f 12 32 42
f 21 7 43
f 31 21 43
f 12 20 44
f 20 26 44
f 32 12 44
f 9 17 45
f 17 16 45
f 1 32 46
f 39 1 46
f 14 39 46
f 44 26 46
f 32 44 46
f 17 5 47
f 5 31 47
f 43 23 47
f 31 43 47
f 6 30 48
f 30 14 48
f 14 38 48
f 38 6 48
f 16 17 49
f 23 16 49
f 17 47 49
f 47 23 49
f 32 1 50
f 25 32 50
f 34 50 51
f 21 34 51
f 1 39 51
f 39 21 51
f 50 1 51
f 6 15 52
f 30 6 52
f 15 30 52
f 7 35 53
f 35 23 53
f 43 7 53
f 23 43 53
f 16 19 54
f 9 45 54
f 45 16 54
f 10 36 55
f 36 28 55
f 37 10 55
f 19 37 55
f 54 19 55
f 28 54 55
f 22 29 56
f 4 40 56
f 40 22 56
f 5 25 57
f 31 5 57
f 34 31 57
f 25 50 57
f 50 34 57
f 15 24 58
f 33 15 58
f 24 33 58
f 10 7 59
f 24 10 59
f 7 33 59
f 33 24 59
f 13 4 60
f 8 13 60
f 4 56 60
f 56 29 60
f 12 8 61
f 20 12 61
f 8 60 61
f 60 29 61
f 2 18 62
f 18 9 62
f 28 2 62
f 9 54 62
f 54 28 62
f 26 27 63
f 27 14 63
f 14 46 63
f 46 26 63
f 27 20 64
f 41 27 64
f 29 41 64
f 20 61 64
