v -401.966331 19.829177 83.747309
v -406.961817 5.546085 60.539525
v -409.461466 5.546085 60.897681
v -402.678883 5.546085 99.460476
v -385.539525 5.546085 78.039664
v -424.104986 6.261314 83.747309
v -406.603636 17.687788 69.824924
v -415.535307 15.901864 87.675600
v -393.392841 13.045246 69.108611
v -390.893193 13.045246 87.317444
v -419.460060 11.975984 71.608087
v -418.747507 5.547518 94.103368
v -405.532902 14.115940 94.815871
v -391.963926 6.618212 94.461524
v -393.392841 5.546085 64.109660
v -421.605337 5.547518 69.466768
v -414.464573 18.044686 78.039664
v -394.467385 17.330890 76.969005
v -401.249968 11.975984 63.755314
v -413.031848 13.402144 66.612946
v -396.967034 13.759042 93.028898
v -412.677477 10.546959 95.886530
v -421.605337 11.975984 79.468481
v -388.039173 10.548392 75.182032
v -401.966331 19.116814 73.398870
v -408.036361 19.829177 83.747309
v -386.964629 5.546085 87.675600
v -420.176422 10.191494 89.458763
v -406.603636 17.687788 90.175076
v -396.967034 17.687788 86.601131
v -388.751725 12.331449 81.960336
v -416.964222 6.976544 64.825973
v -388.393544 5.904416 69.466768
v -406.603636 20.188942 77.681508
v -424.104986 5.547518 75.540189
v -413.748210 16.617094 71.608087
v -399.108501 16.617094 69.470578
v -408.748913 11.975984 63.755314
v -410.890381 5.904416 98.744162
v -399.466682 10.191494 96.957190
v -412.319295 14.115940 93.028898
v -398.395949 8.047238 62.326498
v -419.818241 13.759042 83.389152
v -406.603636 10.191494 97.673503
v -394.821756 17.687788 81.960336
v -400.179234 19.829177 79.110324
v -400.895597 17.330890 90.175076
v -418.034955 15.544966 76.965195
v -394.467385 5.546085 96.602843
v -413.031848 18.403018 84.101655
v -395.179937 11.260755 65.896633
v -416.606040 10.903857 93.032708
v -386.964629 9.117933 83.389152
v -390.893193 9.833162 91.245735
v -391.251374 14.829736 76.610848
v -408.748913 19.116814 73.753216
v -405.178531 14.831170 65.896633
v -423.034252 5.547518 87.675600
v -410.532199 18.044686 88.029947
v -390.535011 10.548392 69.824924
v -395.538119 16.973992 73.398870
v -403.037064 5.904416 60.539525
v -411.248562 9.119366 62.684654
v -421.605337 10.903857 74.823876
f 23 48 64
f 3 2 4
f 4 2 5
f 5 2 15
f 4 5 27
f 1 26 29
f 21 10 30
f 3 16 32
f 16 11 32
f 11 20 32
f 5 15 33
f 24 5 33
f 26 1 34
f 17 26 34
f 16 3 35
f 6 23 35
f 20 11 36
f 7 20 36
f 7 25 37
f 12 4 39
f 22 12 39
f 21 13 40
f 14 21 40
f 22 13 41
f 13 29 41
f 23 6 43
f 6 28 43
f 28 8 43
f 13 22 44
f 39 4 44
f 22 39 44
f 4 40 44
f 40 13 44
f 1 30 45
f 30 10 45
f 10 31 45
f 34 1 46
f 25 34 46
f 1 45 46
f 45 18 46
f 13 21 47
f 1 29 47
f 29 13 47
f 30 1 47
f 21 30 47
f 36 11 48
f 17 36 48
f 43 17 48
f 23 43 48
f 4 27 49
f 27 14 49
f 40 4 49
f 14 40 49
f 26 17 50
f 43 8 50
f 17 43 50
f 37 9 51
f 19 37 51
f 15 42 51
f 42 19 51
f 12 22 52
f 28 12 52
f 8 28 52
f 22 41 52
f 41 8 52
f 5 24 53
f 27 5 53
f 24 31 53
f 31 10 53
f 10 21 54
f 21 14 54
f 14 27 54
f 27 53 54
f 53 10 54
f 31 24 55
f 18 45 55
f 45 31 55
f 25 7 56
f 17 34 56
f 34 25 56
f 36 17 56
f 7 36 56
f 20 7 57
f 7 37 57
f 37 19 57
f 19 38 57
f 38 20 57
f 3 4 58
f 4 12 58
f 28 6 58
f 12 28 58
f 35 3 58
f 6 35 58
f 29 26 59
f 8 41 59
f 41 29 59
f 26 50 59
f 50 8 59
f 33 15 60
f 24 33 60
f 15 51 60
f 51 9 60
f 9 55 60
f 55 24 60
f 9 37 61
f 37 25 61
f 46 18 61
f 25 46 61
f 55 9 61
f 18 55 61
f 15 2 62
f 2 38 62
f 38 19 62
f 42 15 62
f 19 42 62
f 2 3 63
f 3 32 63
f 32 20 63
f 38 2 63
f 20 38 63
f 11 16 64
f 16 35 64
f 35 23 64
f 48 11 64
