v 33.432439 -0.027610 6.542851
v 2.899384 -0.027610 -0.026966
v 2.512935 -0.027610 0.028350
v 34.924562 1.518533 6.101605
v 2.570187 1.518533 6.487535
v 33.600616 1.518533 -0.026966
v 34.373514 -0.027610 0.138340
v 2.512935 1.518533 0.028350
v 2.019139 -0.027610 6.322228
v -0.024031 1.518533 2.899671
v 36.524031 -0.027610 2.899671
v 36.359433 1.518533 2.126524
v 0.140567 -0.027610 2.126524
v 33.432439 1.518533 6.542851
v 3.067561 -0.027610 6.542851
v 0.469765 -0.027610 5.051875
v 36.030235 -0.027610 5.052518
v 33.600616 -0.027610 -0.026966
v 36.359433 1.518533 4.389361
v 0.637941 1.518533 5.272498
v 0.691615 1.518533 1.132754
v 35.808385 1.518533 1.132110
v 35.808385 -0.027610 1.132110
v 2.899384 1.518533 -0.026966
v 3.067561 1.518533 6.542851
v 1.135316 -0.027610 0.690864
v 0.029642 -0.027610 3.947471
v 34.480861 -0.027610 6.322228
v 34.870888 1.518533 0.359607
v 0.140567 1.518533 4.389361
v 1.242663 1.518533 5.880338
v 1.629112 1.518533 0.359607
v 35.862059 1.518533 5.272498
v 35.257337 -0.027610 5.880338
v 36.470358 -0.027610 3.947471
v 36.527610 1.518381 3.616214
v 1.242663 -0.027610 5.880338
v 36.194834 -0.027610 1.739951
v 35.364684 -0.027610 0.690864
v 0.140567 1.518533 2.126524
v 0.362418 -0.027610 1.629960
v -0.024031 -0.027610 2.899671
v 33.929813 1.518533 6.487535
v -0.024031 1.518533 3.616214
v 1.740037 -0.027610 0.304290
v 36.527610 1.518381 2.899027
v 2.019139 1.518533 6.322228
v 33.987065 1.518533 0.028350
v 36.470358 -0.027610 2.513097
v 0.691615 -0.027610 1.132754
v 0.140567 -0.027610 4.389361
v 36.359433 -0.027610 4.389361
v 1.135316 1.518533 0.690864
v 35.364684 1.518533 0.690864
v 35.257337 1.518533 5.880338
v 36.137582 1.518533 1.629960
v 34.870888 -0.027610 0.359607
v 0.305166 1.518533 1.739951
v 2.126486 1.518533 0.138340
v 33.929813 -0.027610 6.487535
v 2.570187 -0.027610 6.487535
v 1.575438 -0.027610 6.100961
v 34.480861 1.518533 6.322228
v 0.029642 1.518533 2.513097
f 13 42 64
f 3 2 1
f 5 4 6
f 1 2 7
f 2 3 8
f 5 6 8
f 3 1 9
f 5 8 10
f 1 7 11
f 6 4 12
f 3 9 13
f 4 5 14
f 9 1 15
f 1 14 15
f 13 9 16
f 1 11 17
f 2 6 18
f 7 2 18
f 12 4 19
f 5 10 20
f 10 8 21
f 6 12 22
f 11 7 23
f 6 2 24
f 2 8 24
f 8 6 24
f 14 5 25
f 5 15 25
f 15 14 25
f 3 13 26
f 13 16 27
f 1 17 28
f 6 22 29
f 20 10 30
f 16 20 30
f 5 20 31
f 21 8 32
f 19 4 33
f 17 19 33
f 4 28 34
f 28 17 34
f 17 33 34
f 17 11 35
f 19 35 36
f 12 19 36
f 35 11 36
f 16 9 37
f 20 16 37
f 31 20 37
f 11 23 38
f 22 23 39
f 23 7 39
f 10 21 40
f 26 13 41
f 13 27 42
f 14 1 43
f 4 14 43
f 30 10 44
f 27 30 44
f 10 42 44
f 42 27 44
f 3 26 45
f 26 32 45
f 36 11 46
f 12 36 46
f 9 5 47
f 5 31 47
f 18 6 48
f 7 18 48
f 6 29 48
f 29 7 48
f 11 38 49
f 38 12 49
f 46 11 49
f 12 46 49
f 21 26 50
f 41 21 50
f 26 41 50
f 27 16 51
f 16 30 51
f 30 27 51
f 19 17 52
f 17 35 52
f 35 19 52
f 26 21 53
f 21 32 53
f 32 26 53
f 29 22 54
f 22 39 54
f 39 29 54
f 33 4 55
f 4 34 55
f 34 33 55
f 22 12 56
f 23 22 56
f 12 38 56
f 38 23 56
f 7 29 57
f 39 7 57
f 29 39 57
f 13 40 58
f 40 21 58
f 21 41 58
f 41 13 58
f 8 3 59
f 32 8 59
f 3 45 59
f 45 32 59
f 1 28 60
f 43 1 60
f 28 43 60
f 5 9 61
f 15 5 61
f 9 15 61
f 37 9 62
f 31 37 62
f 9 47 62
f 47 31 62
f 28 4 63
f 4 43 63
f 43 28 63
f 10 40 64
f 40 13 64
f 42 10 64
