v -587.216578 9.876933 100.116769
v -591.770368 -10.120490 -0.116769
v -592.783422 -9.866731 -0.116769
v -591.770368 -10.120490 100.116769
v -600.126582 1.776460 100.116769
v -594.809532 9.119620 -0.116769
v -579.873418 -1.512499 -0.116769
v -580.886472 -4.801457 100.116769
v -599.365304 -4.295921 -0.116769
v -581.645768 6.080455 -0.116769
v -580.380936 3.548810 100.116769
v -584.684932 -8.851694 -0.116769
v -598.354232 -6.068271 100.116769
v -596.074363 8.360324 100.116769
v -599.365304 4.308105 -0.116769
v -587.216578 9.876933 -0.116769
v -585.697987 -9.359212 100.116769
v -591.518591 10.132674 100.116769
v -583.671877 8.106565 100.116769
v -596.074363 -8.348140 -0.116769
v -581.645768 -6.068271 -0.116769
v -600.126582 -1.764276 -0.116769
v -600.126582 -1.764276 100.116769
v -594.809532 -9.107435 100.116769
v -579.873418 -1.512499 100.116769
v -579.873418 1.524683 -0.116769
v -588.481409 -10.120490 -0.116769
v -598.100473 6.334215 100.116769
v -591.518591 10.132674 -0.116769
v -583.925637 -8.346158 100.116769
v -584.684932 8.865860 -0.116769
v -598.100473 6.334215 -0.116769
v -600.126582 1.776460 -0.116769
v -581.645768 6.080455 100.116769
v -588.481409 -10.120490 100.116769
v -580.634696 -4.295921 -0.116769
v -594.302013 9.371396 100.116769
v -598.354232 -6.068271 -0.116769
v -599.113528 4.813641 100.116769
v -588.481409 10.132674 -0.116769
v -579.873418 1.524683 100.116769
v -580.886472 4.815624 -0.116769
v -599.365304 -4.295921 100.116769
v -581.645768 -6.068271 100.116769
v -596.074363 -8.348140 100.116769
v -585.697987 9.371396 100.116769
v -596.074363 8.360324 -0.116769
v -587.216578 -9.866731 -0.116769
v -588.481409 10.132674 100.116769
v -580.127177 -2.777330 100.116769
v -592.783422 9.878915 -0.116769
v -594.302013 -9.359212 -0.116769
v -583.925637 -8.346158 -0.116769
v -580.127177 2.789514 -0.116769
v -583.671877 8.106565 -0.116769
v -599.872823 2.789514 100.116769
v -592.783422 -9.866731 100.116769
v -580.886472 4.815624 100.116769
v -599.872823 -2.777330 -0.116769
v -584.684932 8.865860 100.116769
v -587.216578 -9.866731 100.116769
v -592.783422 9.878915 100.116769
v -580.127177 -2.777330 -0.116769
v -585.697987 -9.359212 -0.116769
f 17 48 64
f 3 2 4
f 4 1 5
f 2 3 6
f 2 6 7
f 1 4 8
f 6 3 9
f 7 6 10
f 1 8 11
f 2 7 12
f 4 5 13
f 5 1 14
f 6 9 15
f 10 6 16
f 8 4 17
f 14 1 18
f 1 11 19
f 9 3 20
f 12 7 21
f 15 9 22
f 13 5 23
f 5 22 23
f 4 13 24
f 11 8 25
f 7 10 26
f 25 7 26
f 4 2 27
f 2 12 27
f 5 14 28
f 16 6 29
f 8 17 30
f 17 12 30
f 10 16 31
f 6 15 32
f 22 5 33
f 15 22 33
f 19 11 34
f 10 19 34
f 17 4 35
f 4 27 35
f 21 7 36
f 8 21 36
f 6 14 37
f 14 18 37
f 13 9 38
f 9 20 38
f 20 13 38
f 5 28 39
f 32 15 39
f 28 32 39
f 1 16 40
f 16 29 40
f 29 18 40
f 11 25 41
f 25 26 41
f 26 10 42
f 10 34 42
f 9 13 43
f 13 23 43
f 21 8 44
f 8 30 44
f 30 21 44
f 13 20 45
f 24 13 45
f 20 24 45
f 16 1 46
f 1 19 46
f 31 16 46
f 14 6 47
f 28 14 47
f 6 32 47
f 32 28 47
f 27 12 48
f 35 27 48
f 18 1 49
f 1 40 49
f 40 18 49
f 7 25 50
f 25 8 50
f 8 36 50
f 29 6 51
f 18 29 51
f 6 37 51
f 20 3 52
f 24 20 52
f 12 21 53
f 30 12 53
f 21 30 53
f 11 41 54
f 41 26 54
f 42 11 54
f 26 42 54
f 19 10 55
f 10 31 55
f 31 19 55
f 33 5 56
f 15 33 56
f 5 39 56
f 39 15 56
f 3 4 57
f 4 24 57
f 52 3 57
f 24 52 57
f 34 11 58
f 11 42 58
f 42 34 58
f 22 9 59
f 23 22 59
f 9 43 59
f 43 23 59
f 19 31 60
f 46 19 60
f 31 46 60
f 17 35 61
f 48 17 61
f 35 48 61
f 37 18 62
f 18 51 62
f 51 37 62
f 36 7 63
f 7 50 63
f 50 36 63
f 12 17 64
f 48 12 64
