v 94.593195 -39.799134 8.105448
v 79.852595 -4.131780 1.622146
v 79.852595 -4.131780 8.401383
v 95.182237 0.000000 1.032296
v 98.423787 -41.568079 -0.147405
v 98.423787 -19.755337 10.170934
v 93.707813 -0.004242 10.170934
v 83.979527 -20.344985 0.147520
v 86.044811 -23.874390 10.170934
v 81.032498 0.000000 -0.147405
v 98.423787 -41.568079 10.170934
v 98.423787 -19.458391 -0.147405
v 81.327019 0.000000 10.170934
v 87.813755 -30.360520 1.622146
v 83.392303 -20.930391 8.401383
v 94.002335 -0.004242 -0.147405
v 88.699137 -31.539817 8.991234
v 95.182237 0.000000 8.696309
v 98.129266 -43.337023 1.032296
v 82.212400 -17.396744 1.622146
v 98.423787 -16.217447 8.401383
v 80.737977 -10.910613 8.696309
v 89.875403 -31.242872 -0.147405
v 79.852595 0.000000 8.991234
v 92.233390 -36.846651 1.327221
v 98.423787 -16.217447 1.622146
v 80.737977 -10.613668 1.032296
v 81.917879 -12.976503 9.876009
v 98.129266 -43.337023 8.991234
v 84.864908 -24.464038 1.327221
v 86.044811 -27.119576 8.105448
v 92.527911 -35.964300 9.876009
v 79.852595 0.000000 1.032296
v 81.917879 -10.613668 -0.147405
v 91.053487 -35.374651 8.105448
v 92.233390 -35.667354 0.147520
v 83.686824 -20.930391 9.286159
v 81.327019 -13.858854 8.696309
v 87.519234 -28.888521 0.442445
v 80.443455 -5.311076 9.581084
v 80.737977 -11.207558 1.622146
v 80.443455 -5.603779 0.442445
v 94.593195 -39.799134 1.917071
v 81.623358 -8.259317 10.170934
v 86.928374 -27.709224 9.581084
v 80.148934 -7.372724 8.401383
f 41 22 46
f 6 7 9
f 5 6 11
f 6 9 11
f 6 5 12
f 5 10 12
f 9 7 13
f 4 10 13
f 10 4 16
f 4 12 16
f 12 10 16
f 7 6 18
f 4 13 18
f 13 7 18
f 5 11 19
f 6 12 21
f 18 6 21
f 4 18 21
f 10 5 23
f 2 3 24
f 13 10 24
f 12 4 26
f 4 21 26
f 21 12 26
f 8 20 27
f 1 19 29
f 19 11 29
f 20 8 30
f 15 20 30
f 14 17 31
f 30 14 31
f 15 30 31
f 11 9 32
f 1 29 32
f 29 11 32
f 2 24 33
f 24 10 33
f 10 23 34
f 23 8 34
f 8 27 34
f 17 14 35
f 14 25 35
f 1 32 35
f 32 17 35
f 5 19 36
f 23 5 36
f 19 25 36
f 9 28 37
f 15 31 37
f 20 15 38
f 28 22 38
f 15 37 38
f 37 28 38
f 8 23 39
f 25 14 39
f 14 30 39
f 30 8 39
f 23 36 39
f 36 25 39
f 24 3 40
f 13 24 40
f 22 28 40
f 2 27 41
f 27 20 41
f 20 38 41
f 38 22 41
f 27 2 42
f 2 33 42
f 33 10 42
f 34 27 42
f 10 34 42
f 19 1 43
f 25 19 43
f 1 35 43
f 35 25 43
f 9 13 44
f 28 9 44
f 13 40 44
f 40 28 44
f 31 17 45
f 32 9 45
f 17 32 45
f 9 37 45
f 37 31 45
f 3 2 46
f 40 3 46
f 22 40 46
f 2 41 46
