v 173.600343 49.528402 9.581084
v 144.124021 60.141175 8.105448
v 147.367014 59.843422 8.105448
v 161.807927 40.388927 -0.147405
v 142.057438 45.992100 10.170934
v 142.057438 58.665944 -0.147405
v 171.829436 50.410061 0.147520
v 174.188548 40.388927 10.170934
v 142.057438 45.992100 -0.147405
v 174.188548 40.388927 -0.147405
v 142.057438 58.665944 10.170934
v 160.037020 56.896826 1.622146
v 159.156285 40.388927 8.696309
v 162.100457 56.013234 8.991234
v 142.057438 44.812688 1.032296
v 174.188548 49.528402 1.032296
v 149.722981 59.255650 0.737371
v 159.448815 55.717414 10.170934
v 142.057438 44.812688 8.991234
v 160.332695 55.421594 -0.147405
v 166.526152 54.244116 1.917071
v 162.100457 40.388927 10.170934
v 142.057438 60.141175 1.327221
v 153.853000 58.665944 8.696309
v 174.188548 48.053170 10.170934
v 171.829436 51.295586 8.401383
v 159.156285 40.388927 1.327221
v 174.188548 48.053170 -0.147405
v 151.198212 59.255650 1.622146
v 147.955219 58.959830 9.876009
v 142.057438 60.141175 8.696309
v 163.280013 55.421594 0.737371
v 166.526152 54.244116 8.105448
v 168.885264 52.474998 9.581084
v 169.769145 52.474998 1.327221
v 153.261649 58.076238 0.147520
v 157.388523 57.780418 8.105448
v 156.212112 58.076238 1.327221
v 147.367014 59.843422 1.917071
v 174.188548 49.528402 8.991234
f 34 1 40
f 5 6 9
f 6 4 9
f 4 6 10
f 8 4 10
f 6 5 11
f 5 8 11
f 4 8 13
f 9 4 15
f 5 9 15
f 8 10 16
f 11 8 18
f 5 15 19
f 15 13 19
f 10 6 20
f 8 5 22
f 13 8 22
f 5 19 22
f 19 13 22
f 6 11 23
f 17 6 23
f 18 14 24
f 8 16 25
f 18 8 25
f 4 13 27
f 15 4 27
f 13 15 27
f 7 16 28
f 16 10 28
f 10 20 28
f 20 7 28
f 3 24 29
f 11 18 30
f 24 3 30
f 18 24 30
f 3 2 31
f 2 23 31
f 23 11 31
f 30 3 31
f 11 30 31
f 7 20 32
f 12 21 32
f 12 14 33
f 21 12 33
f 26 33 34
f 14 18 34
f 25 1 34
f 18 25 34
f 33 14 34
f 16 7 35
f 26 16 35
f 7 32 35
f 32 21 35
f 21 33 35
f 33 26 35
f 6 17 36
f 20 6 36
f 32 20 36
f 14 12 37
f 24 14 37
f 17 29 38
f 29 24 38
f 12 32 38
f 36 17 38
f 32 36 38
f 37 12 38
f 24 37 38
f 2 3 39
f 23 2 39
f 17 23 39
f 29 17 39
f 3 29 39
f 1 25 40
f 25 16 40
f 16 26 40
f 26 34 40
