v 199.249594 -11.204269 1.622146
v 180.972317 -31.839446 -0.147405
v 189.523846 -31.839446 -0.147405
v 180.972317 -31.839446 10.170934
v 185.100835 0.000000 0.737371
v 198.660609 0.000000 10.170934
v 191.879784 -30.365282 9.286159
v 185.689820 0.000000 9.876009
v 198.955101 0.000000 -0.147405
v 180.972317 -17.686850 8.401383
v 197.186272 -16.505648 9.876009
v 180.972317 -20.635177 -0.147405
v 195.417443 -23.580388 1.032296
v 200.134946 -3.244407 8.696309
v 189.523846 -31.839446 10.170934
v 185.984312 -0.296079 -0.147405
v 197.186272 -19.161013 8.696309
v 180.972317 -20.931257 10.170934
v 184.806343 0.000000 8.696309
v 191.288924 -31.839446 1.622146
v 196.597288 -16.801728 -0.147405
v 200.134946 0.000000 1.032296
v 180.972317 -17.686850 1.622146
v 186.278804 0.000000 10.170934
v 199.249594 -11.204269 8.401383
v 195.122951 -24.468627 8.696309
v 198.069749 -16.209569 1.327221
v 199.838578 -6.192735 1.032296
v 184.806343 0.000000 1.327221
v 198.364241 -8.255941 10.170934
v 200.134946 0.000000 8.696309
v 191.288924 -31.839446 8.401383
v 193.943106 -23.879584 10.170934
v 192.468769 -28.298959 0.147520
v 198.955101 -8.255941 0.147520
v 195.417443 -23.879584 1.622146
v 199.544086 -5.603693 9.581084
v 199.838578 -7.373936 1.622146
v 192.174277 -30.365282 1.622146
v 198.364241 -15.330681 8.105448
f 27 1 40
f 2 3 4
f 6 5 8
f 3 2 9
f 5 6 9
f 2 4 10
f 9 2 12
f 2 10 12
f 4 3 15
f 6 4 15
f 5 9 16
f 9 12 16
f 12 5 16
f 4 6 18
f 10 4 18
f 10 18 19
f 8 5 19
f 18 8 19
f 15 3 20
f 3 9 21
f 9 6 22
f 12 10 23
f 10 19 23
f 6 8 24
f 18 6 24
f 8 18 24
f 11 17 25
f 17 11 26
f 13 21 27
f 5 12 29
f 19 5 29
f 12 23 29
f 23 19 29
f 6 15 30
f 22 6 31
f 14 22 31
f 7 15 32
f 15 20 32
f 26 7 32
f 15 7 33
f 7 26 33
f 26 11 33
f 30 15 33
f 11 30 33
f 20 3 34
f 3 21 34
f 21 13 34
f 21 9 35
f 9 22 35
f 1 27 35
f 27 21 35
f 22 28 35
f 28 1 35
f 17 26 36
f 13 27 36
f 27 17 36
f 25 14 37
f 11 25 37
f 6 30 37
f 30 11 37
f 31 6 37
f 14 31 37
f 22 14 38
f 25 1 38
f 14 25 38
f 28 22 38
f 1 28 38
f 32 20 39
f 26 32 39
f 20 34 39
f 34 13 39
f 13 36 39
f 36 26 39
f 1 25 40
f 25 17 40
f 17 27 40
