v 103.439419 48.052045 1.622146
v 142.057438 60.141175 8.696309
v 142.057438 59.843249 9.286159
v 142.057438 44.813381 1.032296
v 91.940369 33.903114 10.170934
v 142.057438 45.696886 9.876009
v 109.039966 33.903114 -0.147405
v 141.759483 58.959744 -0.147405
v 119.059340 55.715942 9.876009
v 91.940369 34.198472 -0.147405
v 110.221686 33.903114 9.581084
v 122.301496 57.190164 0.442445
v 98.429732 43.631949 8.991234
v 142.057438 58.664386 10.170934
v 142.057438 45.992244 -0.147405
v 112.282122 53.653573 8.105448
v 128.790858 59.255102 8.401383
v 112.282122 52.179352 -0.147405
v 135.860981 60.141175 1.622146
v 91.940369 36.558767 1.917071
v 106.979530 48.935551 10.170934
v 109.039966 33.903114 10.170934
v 142.057438 44.813381 8.991234
v 110.812547 33.903114 1.032296
v 116.115139 55.423153 1.622146
v 90.465744 34.493830 8.401383
v 98.429732 43.631949 1.032296
v 142.057438 46.287602 10.170934
v 121.715686 57.485522 8.401383
v 126.134512 58.664386 1.327221
v 106.388670 50.114414 8.696309
v 90.465744 33.903114 1.032296
v 142.057438 60.141175 1.327221
v 128.199998 57.780880 10.170934
v 109.630826 52.179352 1.622146
v 104.323184 47.756687 0.147520
v 131.442154 58.371596 -0.147405
v 110.812547 33.903114 8.991234
v 94.596715 39.802568 8.105448
v 136.749796 60.141175 8.696309
v 94.889620 38.916494 9.876009
v 100.197263 45.401528 8.401383
v 112.282122 53.358215 9.286159
v 96.071341 39.507210 -0.147405
v 131.740109 59.255102 9.581084
v 134.391405 59.550459 0.442445
v 95.187576 40.390716 1.327221
v 121.715686 57.485522 1.622146
v 117.584714 56.011300 8.401383
v 132.623875 59.843249 1.622146
v 112.282122 53.358215 0.737371
v 103.439419 47.461329 9.581084
v 124.659887 58.073670 9.286159
v 92.531230 36.558767 0.442445
v 99.904357 43.339159 10.170934
f 52 13 55
f 2 3 4
f 4 3 6
f 8 7 10
f 5 7 11
f 6 3 14
f 2 4 15
f 4 7 15
f 7 8 15
f 8 10 18
f 5 14 21
f 5 11 22
f 14 5 22
f 4 6 23
f 22 11 23
f 6 22 23
f 7 4 24
f 11 7 24
f 4 23 24
f 6 14 28
f 22 6 28
f 14 22 28
f 29 17 30
f 7 5 32
f 10 7 32
f 5 26 32
f 26 20 32
f 2 15 33
f 15 8 33
f 19 2 33
f 21 14 34
f 9 21 34
f 16 25 35
f 1 31 35
f 31 16 35
f 27 1 36
f 1 35 36
f 8 18 37
f 18 12 37
f 23 11 38
f 11 24 38
f 24 23 38
f 20 26 39
f 3 2 40
f 2 19 40
f 26 5 41
f 13 39 41
f 39 26 41
f 1 27 42
f 31 1 42
f 39 13 42
f 27 39 42
f 21 9 43
f 16 31 43
f 18 10 44
f 36 18 44
f 27 36 44
f 14 3 45
f 34 14 45
f 3 40 45
f 40 17 45
f 12 30 46
f 33 8 46
f 19 33 46
f 8 37 46
f 37 12 46
f 20 39 47
f 39 27 47
f 12 25 48
f 29 30 48
f 30 12 48
f 25 16 49
f 43 9 49
f 16 43 49
f 48 25 49
f 29 48 49
f 30 17 50
f 40 19 50
f 17 40 50
f 46 30 50
f 19 46 50
f 12 18 51
f 25 12 51
f 35 25 51
f 18 36 51
f 36 35 51
f 31 42 52
f 42 13 52
f 21 43 52
f 43 31 52
f 17 29 53
f 9 34 53
f 45 17 53
f 34 45 53
f 49 9 53
f 29 49 53
f 10 32 54
f 32 20 54
f 44 10 54
f 27 44 54
f 20 47 54
f 47 27 54
f 5 21 55
f 41 5 55
f 13 41 55
f 21 52 55
