v 105.205420 -47.755244 -0.147405
v 98.720934 -20.346024 10.170934
v 98.720934 -19.167708 9.876009
v 108.449134 -33.612113 10.170934
v 98.425605 -43.038635 9.581084
v 98.425605 -18.869782 0.147520
v 108.449134 -32.728377 0.147520
v 108.449134 -50.704380 9.581084
v 98.425605 -42.744057 0.147520
v 108.449134 -50.998959 1.032296
v 98.720934 -17.098962 8.696309
v 98.425605 -41.860320 10.170934
v 108.449134 -31.550061 1.622146
v 103.437370 -48.053170 1.622146
v 98.720934 -17.098962 1.327221
v 108.449134 -31.550061 8.401383
v 98.425605 -20.048097 -0.147405
v 108.449134 -49.526065 10.170934
v 106.384774 -50.115222 8.696309
v 108.449134 -49.526065 -0.147405
v 98.425605 -17.691467 9.286159
v 100.195618 -45.398614 8.401383
v 108.449134 -33.314187 -0.147405
v 98.425605 -43.627793 1.032296
v 98.425605 -41.860320 -0.147405
v 108.153805 -51.296885 1.917071
v 103.437370 -47.460665 9.581084
v 108.449134 -32.728377 9.876009
v 104.615743 -48.347749 0.442445
f 26 14 29
f 3 2 4
f 7 4 8
f 5 6 9
f 7 8 10
f 4 2 12
f 6 5 12
f 4 7 13
f 7 6 15
f 13 7 15
f 11 13 15
f 4 13 16
f 13 11 16
f 9 6 17
f 8 4 18
f 4 12 18
f 7 10 20
f 1 17 20
f 2 3 21
f 12 2 21
f 6 12 21
f 15 6 21
f 11 15 21
f 14 19 22
f 6 7 23
f 17 6 23
f 7 20 23
f 20 17 23
f 5 9 24
f 22 5 24
f 14 22 24
f 1 9 25
f 17 1 25
f 9 17 25
f 10 8 26
f 8 19 26
f 19 14 26
f 12 5 27
f 8 18 27
f 18 12 27
f 19 8 27
f 5 22 27
f 22 19 27
f 3 4 28
f 4 16 28
f 16 11 28
f 21 3 28
f 11 21 28
f 9 1 29
f 1 20 29
f 20 10 29
f 24 9 29
f 14 24 29
f 10 26 29
