v 86.633247 25.055649 10.170934
v 79.852595 0.000000 1.032296
v 79.852595 0.000000 8.991234
v 95.181083 0.000000 1.032296
v 99.602910 33.903114 -0.147405
v 99.602910 22.105388 10.170934
v 93.707785 0.000000 10.170934
v 84.570243 23.582177 1.032296
v 91.055075 33.903114 9.876009
v 99.602910 33.903114 10.170934
v 91.642847 33.903114 -0.147405
v 81.033941 0.000000 -0.147405
v 99.602910 21.813348 -0.147405
v 81.327827 13.861913 8.696309
v 81.327827 0.000000 10.170934
v 94.001671 0.000000 -0.147405
v 87.814592 30.362136 8.401383
v 80.738121 10.616294 1.032296
v 95.181083 0.000000 8.696309
v 99.602910 19.158445 8.696309
v 83.392764 16.805537 -0.147405
v 89.875663 33.607756 1.622146
v 83.392764 20.927274 8.401383
v 99.602910 19.158445 1.327221
v 80.148415 7.078636 8.696309
v 81.917533 12.975839 9.876009
v 82.213352 17.389616 1.622146
v 86.043541 27.119836 1.917071
v 79.852595 4.131693 1.622146
v 86.929066 27.119836 0.147520
v 84.864129 23.286820 9.581084
v 90.169549 33.903114 8.696309
v 91.938667 33.903114 10.170934
v 81.033941 7.961391 0.147520
v 81.327827 5.605164 10.170934
v 86.043541 27.119836 8.105448
v 80.738121 11.207010 1.622146
v 82.803058 17.684974 0.442445
f 21 34 38
f 3 2 4
f 3 4 7
f 6 1 7
f 1 6 10
f 6 5 10
f 5 9 10
f 9 5 11
f 4 2 12
f 11 5 12
f 5 6 13
f 12 5 13
f 7 1 15
f 3 7 15
f 4 12 16
f 13 4 16
f 12 13 16
f 7 4 19
f 6 7 19
f 13 6 20
f 19 4 20
f 6 19 20
f 11 12 21
f 4 13 24
f 20 4 24
f 13 20 24
f 14 25 26
f 14 23 27
f 23 8 27
f 17 22 28
f 8 23 28
f 2 3 29
f 18 2 29
f 3 25 29
f 11 21 30
f 22 11 30
f 8 28 30
f 28 22 30
f 1 9 31
f 9 17 31
f 23 14 31
f 26 1 31
f 14 26 31
f 9 11 32
f 17 9 32
f 11 22 32
f 22 17 32
f 9 1 33
f 1 10 33
f 10 9 33
f 12 2 34
f 2 18 34
f 21 12 34
f 15 1 35
f 3 15 35
f 25 3 35
f 1 26 35
f 26 25 35
f 17 28 36
f 28 23 36
f 31 17 36
f 23 31 36
f 25 14 37
f 14 27 37
f 27 18 37
f 18 29 37
f 29 25 37
f 18 27 38
f 27 8 38
f 8 30 38
f 30 21 38
f 34 18 38
