v 109.040081 -32.135583 1.327221
v 108.450548 -41.568165 -0.147405
v 108.450548 -41.568165 10.170934
v 122.893395 -41.568165 1.327221
v 122.303862 -41.272028 9.286159
v 108.450548 -33.020185 9.876009
v 108.450548 -33.609602 -0.147405
v 108.746022 -31.841350 8.401383
v 119.650258 -41.272028 -0.147405
v 119.650258 -41.568165 10.170934
v 122.893395 -41.272028 1.327221
v 122.893395 -41.272028 8.696309
v 109.040081 -33.904787 10.170934
v 109.040081 -32.725000 0.442445
v 108.746022 -31.841350 1.622146
v 121.124797 -41.272028 0.147520
f 14 11 16
f 3 2 4
f 2 3 6
f 2 6 7
f 6 5 8
f 4 2 9
f 2 7 9
f 3 4 10
f 8 5 12
f 10 4 12
f 5 10 12
f 4 11 12
f 11 8 12
f 6 3 13
f 5 6 13
f 3 10 13
f 10 5 13
f 1 11 14
f 7 6 15
f 6 8 15
f 11 1 15
f 8 11 15
f 1 14 15
f 14 7 15
f 4 9 16
f 9 7 16
f 11 4 16
f 7 14 16
