v 108.742501 33.903114 -0.147405
v 99.604844 19.752249 1.327221
v 99.604844 19.752249 8.696309
v 99.604844 33.903114 10.170934
v 110.217040 33.608073 9.286159
v 99.604844 33.903114 -0.147405
v 110.512802 33.608073 1.032296
v 99.900606 22.406229 10.170934
v 99.900606 22.406229 -0.147405
v 108.447807 33.903114 10.170934
v 99.900606 19.752249 8.696309
v 99.900606 19.752249 1.327221
v 110.512802 33.608073 8.696309
v 99.900606 20.637370 0.442445
f 7 12 14
f 2 3 4
f 2 4 6
f 4 1 6
f 4 3 8
f 2 6 9
f 6 1 9
f 1 4 10
f 4 8 10
f 8 5 10
f 3 2 11
f 8 3 11
f 5 8 11
f 11 2 12
f 7 11 12
f 7 1 13
f 1 10 13
f 10 5 13
f 11 7 13
f 5 11 13
f 1 7 14
f 2 9 14
f 9 1 14
f 12 2 14
