v 159.747433 40.092847 8.696309
v 174.190280 40.388927 10.170934
v 174.190280 40.388927 -0.147405
v 174.190280 29.186159 1.032296
v 173.894778 29.776124 9.581084
v 160.632526 40.388927 0.442445
v 162.401298 40.388927 10.170934
v 173.894778 30.956056 -0.147405
v 159.747433 40.092847 1.327221
v 173.894778 29.186159 8.991234
v 174.190280 31.249942 10.170934
v 162.401298 40.388927 -0.147405
v 173.894778 29.186159 1.032296
v 160.632526 40.092847 9.581084
f 10 5 14
f 3 2 4
f 2 3 6
f 2 6 7
f 6 1 7
f 3 4 8
f 1 6 9
f 1 9 10
f 4 2 11
f 7 5 11
f 2 7 11
f 5 10 11
f 10 4 11
f 6 3 12
f 3 8 12
f 8 6 12
f 8 4 13
f 6 8 13
f 9 6 13
f 4 10 13
f 10 9 13
f 7 1 14
f 5 7 14
f 1 10 14
