v 172.717645 -30.659024 0.737371
v 180.972317 -21.522117 10.170934
v 180.972317 -20.342994 9.876009
v 180.972317 -31.839446 -0.147405
v 173.602305 -31.839446 10.170934
v 180.972317 -19.459950 0.442445
v 180.972317 -31.839446 10.170934
v 171.538407 -31.543366 8.401383
v 180.675891 -18.573010 8.696309
v 173.308650 -31.839446 -0.147405
v 180.675891 -18.573010 1.327221
v 171.538407 -31.543366 1.622146
v 180.675891 -21.228635 -0.147405
v 172.717645 -31.543366 9.876009
f 9 8 14
f 3 2 4
f 3 4 6
f 4 2 7
f 5 4 7
f 2 5 7
f 3 6 9
f 4 5 10
f 5 8 10
f 6 1 11
f 9 6 11
f 8 9 11
f 1 10 12
f 10 8 12
f 11 1 12
f 8 11 12
f 1 6 13
f 6 4 13
f 4 10 13
f 10 1 13
f 2 3 14
f 5 2 14
f 8 5 14
f 3 9 14
