v 193.354554 27.711649 8.991234
v 174.191694 28.889733 1.032296
v 174.191694 28.889733 8.991234
v 184.806689 0.000000 1.327221
v 182.742098 41.562625 0.147520
v 200.134946 0.000000 8.696309
v 198.659512 6.195851 -0.147405
v 174.191694 47.758476 10.170934
v 186.279583 0.004848 10.170934
v 174.191694 47.758476 -0.147405
v 197.184079 19.164476 1.327221
v 197.184079 14.447291 10.170934
v 186.279583 0.004848 -0.147405
v 200.134946 0.000000 1.032296
v 180.088349 45.101726 8.696309
v 189.814529 33.897804 1.032296
v 198.954091 12.677740 8.401383
v 187.457899 36.549706 9.581084
v 184.806689 0.000000 8.696309
v 193.649133 24.764013 -0.147405
v 174.191694 30.659284 -0.147405
v 174.191694 30.659284 10.170934
v 198.659512 0.000000 10.170934
v 174.488812 49.528027 1.622146
v 199.837828 7.373936 1.622146
v 185.690426 39.502189 1.917071
v 189.519951 32.128253 10.170934
v 195.416606 23.881662 8.401383
v 198.954091 0.000000 -0.147405
v 188.047056 36.549706 8.401383
v 192.173699 30.358702 1.622146
v 174.488812 49.528027 8.401383
v 178.026298 46.871277 1.327221
v 199.837828 6.195851 8.991234
v 198.659512 12.978321 0.737371
v 197.184079 19.164476 8.696309
v 187.752478 34.785003 -0.147405
v 191.289963 31.837368 8.401383
v 195.122027 24.468280 1.327221
v 178.910034 45.101726 9.876009
v 195.416606 21.816378 9.876009
v 185.101268 40.088807 8.696309
v 198.364934 15.329642 1.917071
v 196.594921 18.573010 0.147520
v 200.134946 4.130568 8.105448
v 198.659512 11.795389 9.581084
v 180.088349 45.101726 1.327221
v 192.468278 28.884885 0.442445
v 185.101268 0.000000 0.737371
v 185.101268 0.000000 9.286159
v 188.930793 35.371621 1.917071
v 174.191694 48.640827 0.147520
v 183.331256 40.088807 10.170934
v 199.248670 5.308652 9.876009
f 34 46 54
f 3 2 4
f 2 3 8
f 2 8 10
f 8 9 12
f 10 7 13
f 6 4 14
f 3 4 19
f 4 6 19
f 7 10 20
f 2 10 21
f 10 13 21
f 8 3 22
f 9 8 22
f 12 9 23
f 19 6 23
f 16 5 26
f 8 12 27
f 1 18 27
f 13 7 29
f 14 4 29
f 7 14 29
f 24 32 33
f 32 15 33
f 25 17 34
f 14 7 35
f 25 14 35
f 11 28 36
f 10 5 37
f 5 16 37
f 20 10 37
f 18 1 38
f 1 28 38
f 30 18 38
f 28 31 38
f 28 11 39
f 31 28 39
f 32 8 40
f 15 32 40
f 1 27 41
f 27 12 41
f 28 1 41
f 36 28 41
f 26 15 42
f 18 30 42
f 30 26 42
f 15 40 42
f 40 18 42
f 17 25 43
f 35 11 43
f 25 35 43
f 11 36 43
f 36 17 43
f 7 20 44
f 35 7 44
f 11 35 44
f 39 11 44
f 6 14 45
f 14 25 45
f 34 6 45
f 25 34 45
f 34 17 46
f 17 36 46
f 41 12 46
f 36 41 46
f 26 5 47
f 15 26 47
f 5 33 47
f 33 15 47
f 16 31 48
f 37 16 48
f 20 37 48
f 31 39 48
f 44 20 48
f 39 44 48
f 4 2 49
f 2 21 49
f 21 13 49
f 29 4 49
f 13 29 49
f 3 19 50
f 22 3 50
f 9 22 50
f 23 9 50
f 19 23 50
f 16 26 51
f 26 30 51
f 31 16 51
f 30 38 51
f 38 31 51
f 5 10 52
f 10 8 52
f 8 32 52
f 32 24 52
f 24 33 52
f 33 5 52
f 8 27 53
f 27 18 53
f 18 40 53
f 40 8 53
f 23 6 54
f 12 23 54
f 6 34 54
f 46 12 54
