v 121.718444 -57.485031 8.401383
v 123.781827 -41.569983 8.105448
v 123.781827 -41.569983 1.917071
v 139.404151 -60.139357 1.032296
v 108.450375 -49.823847 -0.147405
v 139.404151 -46.285957 10.170934
v 108.450375 -41.569983 10.170934
v 139.404151 -45.991436 -0.147405
v 139.404151 -58.666752 10.170934
v 108.450375 -41.569983 -0.147405
v 108.747309 -50.707410 9.876009
v 125.548276 -57.781371 0.147520
v 112.283238 -53.652621 1.917071
v 139.404151 -44.811534 8.696309
v 139.404151 -58.959455 -0.147405
v 131.441492 -59.550315 8.991234
v 126.136083 -58.664934 1.327221
v 119.061194 -55.127044 10.170934
v 120.242867 -41.569983 10.170934
v 139.404151 -44.811534 1.327221
v 120.536770 -41.569983 -0.147405
v 108.450375 -51.294634 8.991234
v 139.404151 -60.139357 8.991234
v 117.882551 -56.010608 1.032296
v 115.525264 -55.127044 8.696309
v 132.620136 -59.844836 1.622146
v 108.450375 -51.294634 1.032296
v 118.767291 -55.127044 -0.147405
v 128.493369 -58.370413 9.876009
v 108.450375 -49.823847 10.170934
v 127.314726 -58.959455 8.401383
v 135.571288 -60.139357 8.105448
v 119.061194 -56.601468 1.622146
v 131.735396 -59.255794 0.442445
v 120.536770 -56.601468 9.581084
v 109.632048 -52.180015 8.401383
v 111.695432 -52.769058 0.442445
f 5 28 37
f 2 3 7
f 6 4 8
f 4 6 9
f 6 7 9
f 7 3 10
f 5 7 10
f 8 5 10
f 3 2 14
f 6 8 14
f 8 4 15
f 5 8 15
f 9 7 18
f 2 7 19
f 7 6 19
f 14 2 19
f 6 14 19
f 3 14 20
f 14 8 20
f 10 3 21
f 8 10 21
f 3 20 21
f 20 8 21
f 7 5 22
f 4 9 23
f 12 17 24
f 11 22 25
f 22 5 27
f 5 15 28
f 15 12 28
f 12 24 28
f 9 18 29
f 23 9 29
f 16 23 29
f 18 7 30
f 11 18 30
f 7 22 30
f 22 11 30
f 1 17 31
f 17 26 31
f 26 16 31
f 16 29 31
f 4 23 32
f 23 16 32
f 26 4 32
f 16 26 32
f 17 1 33
f 13 24 33
f 24 17 33
f 1 25 33
f 25 13 33
f 15 4 34
f 12 15 34
f 17 12 34
f 4 26 34
f 26 17 34
f 18 11 35
f 25 1 35
f 11 25 35
f 29 18 35
f 1 31 35
f 31 29 35
f 25 22 36
f 13 25 36
f 22 27 36
f 27 13 36
f 24 13 37
f 27 5 37
f 13 27 37
f 28 24 37
