v 158.271625 -57.192328 0.737371
v 183.330794 -41.569983 8.991234
v 183.330794 -41.569983 1.032296
v 139.404151 -44.813352 8.696309
v 145.303462 -59.253976 9.876009
v 139.404151 -45.991436 -0.147405
v 139.404151 -58.961273 -0.147405
v 159.746452 -41.569983 10.170934
v 168.883504 -52.474536 9.581084
v 159.454067 -41.569983 -0.147405
v 139.404151 -58.664934 10.170934
v 174.481829 -48.643944 0.147520
v 181.559281 -41.864505 10.170934
v 151.198472 -59.255794 8.401383
v 139.404151 -46.285957 10.170934
v 143.531949 -60.139357 1.327221
v 173.600372 -50.118368 1.622146
v 181.559281 -41.569983 -0.147405
v 163.869950 -55.423384 8.401383
v 159.454067 -55.716087 10.170934
v 156.212026 -41.569983 1.622146
v 177.728169 -47.171339 8.105448
v 139.404151 -44.813352 1.327221
v 139.404151 -60.139357 8.991234
v 162.691808 -54.538002 -0.147405
v 166.230534 -54.243481 1.032296
v 157.390168 -57.781371 1.917071
v 156.212026 -41.569983 8.401383
v 170.358331 -52.180015 8.105448
v 180.084454 -45.106055 1.327221
v 149.723644 -59.253976 0.737371
v 156.212026 -58.074074 8.696309
v 139.404151 -60.139357 1.032296
v 174.778514 -48.351241 9.876009
v 143.828634 -60.139357 8.401383
v 152.084229 -57.781371 -0.147405
v 149.431259 -59.550315 1.622146
v 183.330794 -41.864505 8.991234
v 166.527219 -54.243481 1.917071
v 160.924594 -56.601468 1.917071
v 158.568310 -56.895989 9.581084
v 169.175889 -51.294634 10.170934
v 175.367585 -48.938465 8.401383
v 176.545727 -48.054902 1.622146
v 180.084454 -45.106055 8.696309
v 179.202997 -44.222491 -0.147405
v 152.673300 -58.959455 1.622146
f 37 31 47
f 4 6 7
f 2 3 8
f 7 6 10
f 8 3 10
f 4 7 11
f 2 8 13
f 8 11 13
f 8 4 15
f 4 11 15
f 11 8 15
f 10 3 18
f 7 10 18
f 11 5 20
f 13 11 20
f 8 10 21
f 6 4 23
f 10 6 23
f 4 21 23
f 21 10 23
f 5 11 24
f 11 7 24
f 7 18 25
f 12 17 26
f 1 25 26
f 25 12 26
f 4 8 28
f 21 4 28
f 8 21 28
f 9 19 29
f 5 14 32
f 24 7 33
f 16 24 33
f 7 31 33
f 31 16 33
f 14 5 35
f 5 24 35
f 24 16 35
f 25 1 36
f 7 25 36
f 31 7 36
f 1 31 36
f 16 31 37
f 14 35 37
f 35 16 37
f 3 2 38
f 2 13 38
f 30 3 38
f 13 34 38
f 26 17 39
f 29 19 39
f 17 29 39
f 1 26 40
f 27 1 40
f 19 32 40
f 32 27 40
f 26 39 40
f 39 19 40
f 19 9 41
f 20 5 41
f 9 20 41
f 5 32 41
f 32 19 41
f 20 9 42
f 13 20 42
f 34 13 42
f 9 34 42
f 9 29 43
f 29 17 43
f 34 9 43
f 17 12 44
f 12 30 44
f 30 22 44
f 43 17 44
f 22 43 44
f 22 30 45
f 30 38 45
f 38 34 45
f 43 22 45
f 34 43 45
f 18 3 46
f 12 25 46
f 25 18 46
f 3 30 46
f 30 12 46
f 1 27 47
f 31 1 47
f 32 14 47
f 27 32 47
f 14 37 47
