v 190.109825 -31.841350 9.876009
v 160.044838 -41.568165 -0.147405
v 158.863476 -41.568165 0.147520
v 181.856886 -41.568165 10.170934
v 187.750420 -34.788437 -0.147405
v 171.539883 -31.841350 8.991234
v 159.158817 -41.568165 9.876009
v 173.308607 -31.841350 -0.147405
v 183.625610 -41.568165 1.032296
v 190.697187 -31.841350 0.737371
v 157.094752 -41.272028 1.327221
v 173.308607 -31.841350 10.170934
v 188.045760 -36.557642 8.401383
v 157.094752 -41.272028 8.696309
v 181.856886 -41.568165 -0.147405
v 171.244543 -31.841350 1.622146
v 183.625610 -41.568165 8.696309
v 160.340178 -41.568165 10.170934
v 190.109825 -33.609602 1.327221
v 190.995846 -32.135583 8.696309
v 189.519144 -31.841350 10.170934
v 189.519144 -31.841350 -0.147405
v 185.686356 -39.502824 1.917071
v 187.455080 -36.557642 9.581084
v 171.244543 -31.841350 8.401383
v 171.539883 -31.841350 0.737371
f 11 16 26
f 3 2 4
f 3 4 7
f 2 3 8
f 5 2 8
f 6 1 8
f 4 2 9
f 8 1 10
f 1 6 12
f 3 7 14
f 11 3 14
f 12 6 14
f 7 12 14
f 2 5 15
f 9 2 15
f 5 9 15
f 6 8 16
f 11 14 16
f 4 9 17
f 7 4 18
f 4 12 18
f 12 7 18
f 9 5 19
f 5 10 19
f 13 19 20
f 10 1 20
f 19 10 20
f 1 12 21
f 12 4 21
f 5 8 22
f 10 5 22
f 8 10 22
f 17 9 23
f 13 17 23
f 9 19 23
f 19 13 23
f 4 17 24
f 17 13 24
f 13 20 24
f 20 1 24
f 1 21 24
f 21 4 24
f 14 6 25
f 6 16 25
f 16 14 25
f 8 3 26
f 3 11 26
f 16 8 26
