v 6.097522 -0.034292 18.843657
v 18.429020 -0.034292 6.718806
v 18.429020 1.549793 6.718806
v 22.492331 -0.034292 13.814259
v 0.242549 1.549793 18.498252
v 22.492331 1.549793 13.814259
v 10.300185 -0.034292 7.408341
v 10.853167 1.549793 7.064211
v 0.311119 -0.034292 15.881589
v 22.560901 1.550103 6.720081
v 3.067181 1.549793 19.738395
v 1.069810 1.549793 15.054402
v 22.563113 -0.034292 6.720081
v 1.483441 -0.034292 19.600743
v 11.952495 -0.034292 6.720081
v 0.036840 -0.034292 17.947644
v -0.033942 1.549793 16.845153
v 11.952495 1.549793 6.720081
v 1.069810 -0.034292 15.054402
v 3.067181 -0.034292 19.738395
v 1.897071 1.549793 19.738395
v 9.957336 1.549793 7.684920
v 22.560901 1.550103 13.744159
v 0.793319 -0.034292 19.187787
v 3.617951 1.549793 19.600743
v 21.872991 1.549793 14.020737
v 1.069810 1.549793 19.394265
v 22.563113 -0.034292 13.744159
v 0.450470 1.549793 15.673836
v -0.033942 -0.034292 16.845153
v -0.033942 1.549793 17.672340
v 21.872991 -0.034292 14.020737
v 11.333155 -0.034292 6.857733
v 0.242549 -0.034292 18.498252
v 1.897071 -0.034292 19.738395
v 0.105410 1.549793 16.294545
v 0.587610 1.549793 18.980035
v 7.546335 -0.034292 9.682149
v 3.617951 -0.034292 19.600743
v 11.333155 1.549793 6.857733
v 0.036840 -0.034292 16.501023
f 36 9 41
f 1 2 4
f 2 1 7
f 7 1 9
f 2 3 13
f 4 2 13
f 3 10 13
f 9 1 14
f 3 2 15
f 2 7 15
f 9 14 16
f 10 3 18
f 3 15 18
f 7 9 19
f 14 1 20
f 20 11 21
f 8 7 22
f 10 8 22
f 12 10 22
f 13 10 23
f 10 17 23
f 21 11 23
f 16 14 24
f 11 20 25
f 23 11 25
f 23 25 26
f 4 6 26
f 6 23 26
f 25 1 26
f 14 21 27
f 21 23 27
f 24 14 27
f 6 4 28
f 4 13 28
f 23 6 28
f 13 23 28
f 10 12 29
f 19 9 29
f 12 19 29
f 9 16 30
f 17 30 31
f 16 5 31
f 5 23 31
f 23 17 31
f 30 16 31
f 1 4 32
f 26 1 32
f 4 26 32
f 7 8 33
f 15 7 33
f 18 15 33
f 5 16 34
f 16 24 34
f 14 20 35
f 21 14 35
f 20 21 35
f 17 10 36
f 10 29 36
f 29 9 36
f 23 5 37
f 27 23 37
f 24 27 37
f 5 34 37
f 34 24 37
f 7 19 38
f 19 12 38
f 22 7 38
f 12 22 38
f 20 1 39
f 1 25 39
f 25 20 39
f 8 10 40
f 10 18 40
f 33 8 40
f 18 33 40
f 9 30 41
f 30 17 41
f 17 36 41
