v 56.113499 1.549948 5.479533
v 52.256011 -0.034292 -0.032753
v 51.979467 -0.034292 0.037382
v 43.645408 -0.034292 13.745939
v 40.268732 1.549948 6.719022
v 43.645408 1.549948 13.745939
v 40.268732 -0.034292 6.719022
v 55.838525 -0.034292 5.892247
v 53.013367 1.549948 -0.032753
v 40.268732 -0.034292 13.744590
v 40.268732 1.549948 13.744590
v 56.182635 -0.034292 3.619626
v 44.885146 1.549948 13.263091
v 51.497084 1.549948 0.243738
v 54.322242 1.549948 0.795371
v 53.839860 -0.034292 0.312524
v 44.885146 -0.034292 13.263091
v 55.631117 1.549948 6.098603
v 56.182635 1.549948 3.619626
v 56.320908 -0.034292 4.859114
v 51.497084 -0.034292 0.243738
v 55.631117 -0.034292 6.098603
v 54.322242 -0.034292 0.795371
v 56.320908 1.549948 4.101125
v 53.013367 -0.034292 -0.032753
v 53.634022 1.549948 0.174953
v 52.256011 1.549948 -0.032753
v 56.320908 1.549948 4.859114
v 44.333628 -0.034292 13.538234
v 55.975226 1.549948 3.275698
v 56.320908 -0.034292 4.101125
v 56.182635 -0.034292 5.340613
v 44.333628 1.549948 13.538234
v 53.495750 -0.034292 0.106167
f 9 26 34
f 3 2 4
f 1 5 6
f 3 4 7
f 4 2 8
f 5 1 9
f 4 6 10
f 7 4 10
f 5 7 10
f 6 5 11
f 10 6 11
f 5 10 11
f 8 2 12
f 1 6 13
f 7 5 14
f 5 9 14
f 9 1 15
f 12 2 16
f 4 8 17
f 8 1 18
f 1 13 18
f 15 1 19
f 8 12 20
f 3 7 21
f 14 3 21
f 7 14 21
f 17 8 22
f 13 17 22
f 18 13 22
f 8 18 22
f 12 16 23
f 16 15 23
f 19 1 24
f 12 19 24
f 2 9 25
f 16 2 25
f 9 15 26
f 15 16 26
f 2 3 27
f 9 2 27
f 3 14 27
f 14 9 27
f 24 1 28
f 20 24 28
f 6 4 29
f 4 17 29
f 17 13 29
f 19 12 30
f 15 19 30
f 12 23 30
f 23 15 30
f 20 12 31
f 12 24 31
f 24 20 31
f 1 8 32
f 8 20 32
f 28 1 32
f 20 28 32
f 13 6 33
f 6 29 33
f 29 13 33
f 25 9 34
f 16 25 34
f 26 16 34
