v -462.156695 2.704274 59.284261
v -492.431933 -3.714693 41.853961
v -491.513245 -6.467796 41.853961
v -491.053900 -3.714693 60.661306
v -480.963142 15.091754 41.853961
v -467.203556 -11.971038 41.853961
v -476.378589 -15.183485 59.742663
v -485.091314 13.254376 59.742663
v -465.369142 10.041929 41.853961
v -471.331728 13.713721 60.201064
v -483.716244 -14.264796 41.853961
v -465.828486 -8.302210 60.661306
v -491.969625 5.457376 41.853961
v -462.156695 -3.255349 41.853961
v -487.385072 -11.971038 58.825860
v -492.431933 3.622962 58.825860
v -464.453416 -8.758591 58.825860
v -473.625486 15.091754 41.853961
v -474.084830 -15.183485 41.853961
v -466.747175 9.585549 60.661306
v -469.500277 -13.346107 59.284261
v -479.128728 15.091754 59.742663
v -489.678831 9.585549 41.853961
v -488.300798 9.126204 60.661306
v -491.969625 -5.089763 59.284261
v -467.203556 11.879307 58.825860
v -463.075383 6.376065 41.853961
v -481.881831 -14.264796 60.201064
v -490.594556 8.210479 58.825860
v -462.156695 -2.796005 59.284261
v -464.453416 8.666860 59.284261
v -489.678831 -9.677279 41.853961
v -486.925728 12.338651 41.853961
v -463.075383 -6.467796 41.853961
v -480.503797 -15.183485 58.825860
v -469.040933 13.254376 41.853961
v -472.247453 14.632409 59.284261
v -474.084830 -13.805452 60.661306
v -490.135211 -8.758591 59.284261
v -462.156695 3.163618 41.853961
v -480.503797 -15.183485 41.853961
v -480.963142 13.713721 60.661306
v -487.385072 11.879307 59.284261
v -463.534728 3.163618 60.661306
v -472.247453 -14.724140 58.367458
v -469.956658 -13.805452 41.853961
v -483.716244 14.173065 58.825860
v -486.925728 -10.595968 60.661306
v -486.925728 -12.430382 41.853961
v -492.431933 -1.880279 59.742663
v -466.287830 -11.052349 58.825860
v -492.431933 3.622962 41.853961
v -465.369142 -10.133660 41.853961
v -462.616039 4.998032 58.824019
v -482.338211 -14.724140 58.825860
v -491.513245 4.535724 60.201064
v -474.084830 15.091754 59.284261
v -482.797556 14.632409 41.853961
v -463.075383 -6.008452 59.284261
v -480.963142 15.091754 58.825860
v -470.872383 14.173065 58.825860
v -486.007039 -12.889726 59.284261
v -462.616039 -2.336660 60.201064
f 59 30 63
f 3 2 5
f 3 5 6
f 6 5 9
f 3 6 11
f 5 2 13
f 6 9 14
f 9 5 18
f 11 6 19
f 4 12 20
f 18 5 22
f 5 13 23
f 4 20 24
f 2 3 25
f 10 20 26
f 14 9 27
f 13 16 29
f 23 13 29
f 14 1 30
f 9 26 31
f 26 20 31
f 27 9 31
f 3 11 32
f 5 23 33
f 6 14 34
f 19 7 35
f 7 28 35
f 9 18 36
f 26 9 36
f 12 4 38
f 7 21 38
f 21 12 38
f 28 7 38
f 25 3 39
f 4 25 39
f 3 32 39
f 32 15 39
f 1 14 40
f 14 27 40
f 11 19 41
f 19 35 41
f 20 10 42
f 22 8 42
f 10 22 42
f 24 20 42
f 8 24 42
f 24 8 43
f 23 29 43
f 29 24 43
f 33 23 43
f 20 12 44
f 31 20 44
f 7 19 45
f 21 7 45
f 21 45 46
f 19 6 46
f 6 21 46
f 45 19 46
f 43 8 47
f 33 43 47
f 38 4 48
f 28 38 48
f 4 39 48
f 39 15 48
f 32 11 49
f 15 32 49
f 16 2 50
f 2 25 50
f 25 4 50
f 17 12 51
f 12 21 51
f 21 6 51
f 13 2 52
f 2 16 52
f 16 13 52
f 6 34 53
f 34 17 53
f 51 6 53
f 17 51 53
f 27 31 54
f 1 40 54
f 40 27 54
f 44 1 54
f 31 44 54
f 35 28 55
f 11 41 55
f 41 35 55
f 4 24 56
f 29 16 56
f 24 29 56
f 16 50 56
f 50 4 56
f 22 10 57
f 18 22 57
f 10 37 57
f 37 18 57
f 5 33 58
f 33 47 58
f 12 17 59
f 14 30 59
f 34 14 59
f 17 34 59
f 22 5 60
f 8 22 60
f 47 8 60
f 5 58 60
f 58 47 60
f 10 26 61
f 36 18 61
f 26 36 61
f 37 10 61
f 18 37 61
f 48 15 62
f 28 48 62
f 49 11 62
f 15 49 62
f 11 55 62
f 55 28 62
f 30 1 63
f 44 12 63
f 1 44 63
f 12 59 63
