v -522.248456 3.163618 59.284261
v -552.523695 -3.255349 41.853961
v -552.061387 -5.089763 41.853961
v -551.145662 -3.255349 60.661306
v -541.054903 15.091754 41.853961
v -529.132695 -13.346107 41.853961
v -537.842456 -15.183485 59.742663
v -545.183076 12.797996 60.201064
v -525.004522 9.585549 41.853961
v -531.423489 13.713721 60.201064
v -526.838936 -9.677279 60.661306
v -544.723731 -13.805452 41.853961
v -522.248456 -3.714693 41.855802
v -550.686317 8.210479 41.853961
v -548.851903 -10.595968 58.367458
v -552.061387 4.998032 58.825860
v -531.882834 14.632409 41.853961
v -523.626489 -7.383521 58.825860
v -526.379592 9.126204 60.661306
v -539.220489 15.091754 59.742663
v -528.673350 -12.889726 59.284261
v -534.176592 -15.183485 41.853961
v -527.295317 11.879307 59.284261
v -552.523695 -2.796005 59.284261
v -522.248456 3.622962 41.855802
v -542.889317 -13.805452 60.201064
v -547.476834 11.879307 58.825860
v -525.004522 -9.677279 41.853961
v -552.523695 3.163618 41.853961
v -547.017489 12.338651 41.853961
v -524.085834 8.210479 58.825860
v -549.311248 -10.133660 41.853961
v -547.933215 9.585549 60.661306
v -522.248456 -1.877316 59.742663
v -533.717248 15.091754 58.825860
v -532.339214 -14.724140 58.825860
v -540.595559 -15.183485 41.853961
v -543.808006 14.173065 58.825860
v -543.348662 -14.264796 59.284261
v -550.686317 -7.842866 59.284261
v -534.176592 -13.805452 60.661306
v -527.754661 12.338651 41.853961
v -550.226973 8.666860 59.284261
v -541.054903 13.713721 60.661306
v -525.920248 -10.595968 59.284261
v -529.132695 13.254376 58.825860
v -545.642420 -11.511693 60.661306
v -523.626489 3.622962 60.661306
v -552.523695 2.704274 59.284261
v -522.707800 5.457376 41.855802
v -533.717248 15.091754 41.853961
v -546.098801 -12.889726 58.825860
v -547.476834 -11.971038 41.853961
v -522.248456 -3.714693 58.365617
v -523.167145 -6.467796 41.853961
v -540.139178 -15.183485 59.284261
v -550.686317 4.998032 60.661306
v -543.808006 14.173065 41.853961
v -527.754661 -12.430382 41.853961
v -551.605006 -6.467796 42.314204
v -524.085834 -5.089763 60.661306
v -534.176592 -15.183485 58.825860
v -549.311248 10.041929 42.314204
v -551.605006 -6.008452 59.284261
f 60 40 64
f 3 2 5
f 3 5 6
f 6 5 9
f 3 6 12
f 5 2 14
f 9 5 17
f 4 11 19
f 12 6 22
f 10 19 23
f 2 3 24
f 1 13 25
f 6 9 28
f 14 2 29
f 16 14 29
f 2 24 29
f 5 14 30
f 9 23 31
f 23 19 31
f 3 12 32
f 4 19 33
f 8 27 33
f 13 1 34
f 5 20 35
f 20 10 35
f 6 21 36
f 22 6 36
f 12 22 37
f 22 7 37
f 20 5 38
f 8 20 38
f 27 8 38
f 30 27 38
f 12 37 39
f 32 15 40
f 11 4 41
f 21 11 41
f 26 7 41
f 36 21 41
f 9 17 42
f 23 9 42
f 14 16 43
f 33 27 43
f 19 10 44
f 20 8 44
f 10 20 44
f 8 33 44
f 33 19 44
f 11 21 45
f 28 18 45
f 10 23 46
f 17 35 46
f 35 10 46
f 42 17 46
f 23 42 46
f 4 40 47
f 40 15 47
f 41 4 47
f 26 41 47
f 19 11 48
f 1 31 48
f 31 19 48
f 34 1 48
f 24 4 49
f 16 29 49
f 29 24 49
f 1 25 50
f 25 9 50
f 31 1 50
f 9 31 50
f 17 5 51
f 5 35 51
f 35 17 51
f 12 39 52
f 39 26 52
f 47 15 52
f 26 47 52
f 32 12 53
f 15 32 53
f 12 52 53
f 52 15 53
f 13 34 54
f 34 18 54
f 9 25 55
f 25 13 55
f 28 9 55
f 18 28 55
f 13 54 55
f 54 18 55
f 7 26 56
f 37 7 56
f 26 39 56
f 39 37 56
f 4 33 57
f 43 16 57
f 33 43 57
f 49 4 57
f 16 49 57
f 5 30 58
f 38 5 58
f 30 38 58
f 21 6 59
f 6 28 59
f 45 21 59
f 28 45 59
f 3 32 60
f 32 40 60
f 18 34 61
f 11 45 61
f 45 18 61
f 48 11 61
f 34 48 61
f 7 22 62
f 22 36 62
f 41 7 62
f 36 41 62
f 30 14 63
f 27 30 63
f 14 43 63
f 43 27 63
f 24 3 64
f 4 24 64
f 40 4 64
f 3 60 64
