v -461.703053 1.329204 41.853961
v -556.645221 -18.391980 0.110829
v -557.107395 -18.850337 0.576639
v -556.192882 20.137627 39.553513
v -458.487508 19.216963 0.110829
v -458.487508 -20.229358 39.557599
v -556.192882 -19.308693 40.476961
v -458.949681 -20.229358 1.030191
v -556.192882 20.137627 1.030191
v -458.487508 20.137627 39.557599
v -541.963848 15.091754 41.853961
v -556.192882 -20.229358 1.487829
v -538.758137 -15.641841 41.853961
v -458.035168 -18.391980 0.110829
v -457.110822 18.758606 39.557599
v -557.569568 18.758606 39.553513
v -458.035168 20.137627 1.491916
v -556.645221 -20.229358 38.638236
v -556.645221 18.300249 0.110829
v -457.110822 -19.308693 1.949554
v -475.922253 -15.641841 41.853961
v -475.007740 15.550110 41.853961
v -457.110822 -18.850337 39.557599
v -457.110822 18.300249 1.034277
v -557.569568 19.216963 1.491916
v -557.569568 -19.308693 38.638236
v -552.977337 1.329204 41.853961
v -557.569568 -19.308693 1.949554
v -556.192882 19.216963 40.476961
v -458.487508 -19.308693 40.476961
v -458.487508 19.216963 40.476961
v -555.730709 -19.308693 0.110829
v -550.223965 -9.216947 41.853961
v -464.456425 -9.216947 41.853961
v -464.456425 9.125216 41.853961
v -556.192882 19.216963 0.110829
v -556.192882 -20.229358 39.553513
v -458.949681 -19.308693 0.110829
v -556.645221 -18.850337 40.476961
v -550.223965 9.125216 41.853961
v -458.035168 -18.850337 40.476961
v -556.645221 18.758606 40.476961
v -458.035168 18.758606 40.476961
v -458.487508 20.137627 1.030191
v -555.730709 -20.229358 1.030191
v -539.672649 15.550110 41.853961
v -457.110822 19.216963 39.099960
v -556.645221 20.137627 39.099960
v -458.035168 -20.229358 38.642322
v -457.110822 19.216963 1.491916
v -557.569568 -18.850337 39.553513
v -457.110822 -18.391980 1.030191
v -458.035168 -20.229358 1.949554
v -546.556080 -12.887751 41.853961
v -468.124310 -12.887751 41.853961
v -557.569568 -18.391980 1.034277
f 28 25 56
f 9 4 10
f 8 6 12
f 1 11 13
f 2 5 14
f 9 10 17
f 12 6 18
f 5 2 19
f 1 13 21
f 13 7 21
f 11 1 22
f 20 15 23
f 14 5 24
f 15 20 24
f 16 25 26
f 13 11 27
f 3 12 28
f 12 18 28
f 18 26 28
f 26 25 28
f 10 4 29
f 7 6 30
f 21 7 30
f 6 23 30
f 10 29 31
f 29 22 31
f 3 2 32
f 2 14 32
f 13 27 33
f 1 21 34
f 22 1 35
f 31 22 35
f 9 5 36
f 5 19 36
f 25 9 36
f 19 25 36
f 6 7 37
f 18 6 37
f 26 18 37
f 8 32 38
f 32 14 38
f 7 33 39
f 33 27 39
f 27 11 40
f 11 29 40
f 23 15 41
f 30 23 41
f 1 34 41
f 34 30 41
f 29 16 42
f 16 39 42
f 39 27 42
f 27 40 42
f 40 29 42
f 15 31 43
f 35 1 43
f 31 35 43
f 41 15 43
f 1 41 43
f 5 9 44
f 9 17 44
f 12 3 45
f 8 12 45
f 3 32 45
f 32 8 45
f 11 22 46
f 22 29 46
f 29 11 46
f 17 10 47
f 15 24 47
f 10 31 47
f 31 15 47
f 4 9 48
f 9 25 48
f 25 16 48
f 29 4 48
f 16 29 48
f 6 8 49
f 23 6 49
f 20 23 49
f 24 5 50
f 5 44 50
f 44 17 50
f 17 47 50
f 47 24 50
f 16 26 51
f 37 7 51
f 26 37 51
f 39 16 51
f 7 39 51
f 20 8 52
f 14 24 52
f 24 20 52
f 8 38 52
f 38 14 52
f 8 20 53
f 49 8 53
f 20 49 53
f 7 13 54
f 33 7 54
f 13 33 54
f 21 30 55
f 34 21 55
f 30 34 55
f 2 3 56
f 19 2 56
f 25 19 56
f 3 28 56
