v 1.675117 -0.031549 15.931007
v 3.820013 0.031604 8.361192
v 3.820013 1.545892 8.361192
v 14.923967 1.545892 12.334478
v 15.113702 -0.031549 8.361192
v 0.539670 1.545892 15.174477
v 13.535046 -0.031549 13.849797
v 15.113702 1.545892 8.361192
v 3.126294 1.545892 15.995056
v 0.097943 -0.031549 12.587659
v 13.157058 1.545892 13.975635
v 0.349935 1.545892 12.084311
v 14.986224 -0.031549 12.083557
v 3.314547 -0.031549 8.487029
v 3.126294 -0.031549 15.995056
v 0.034204 -0.031549 14.228062
v -0.029535 1.545892 13.912339
v 3.378286 1.545892 8.423733
v 14.482240 1.545892 13.155056
v 1.927109 1.545892 15.995056
v 12.905066 -0.031549 14.038930
v 14.482240 -0.031549 13.155056
v 0.791662 -0.031549 15.426905
v 0.791662 -0.031549 11.515407
v 15.049963 1.545892 11.704539
v -0.029535 1.545892 13.092515
v 1.233389 1.545892 15.741874
v 13.788521 1.545892 13.723207
v -0.029535 -0.031549 13.092515
v 2.494832 -0.031549 16.058351
v 15.049963 -0.031549 11.704539
v 0.349935 -0.031549 14.922050
v 0.097943 1.545892 14.417194
v 0.791662 1.545892 11.515407
v 3.442025 -0.031549 8.361945
v 12.905066 1.545892 14.038930
v 14.166509 -0.031549 13.470779
v 14.734232 -0.031549 12.776792
v 2.620828 1.545892 16.058351
v 0.349935 -0.031549 12.084311
v 0.097943 1.545892 12.587659
v 1.233389 -0.031549 15.741874
v -0.029535 -0.031549 13.912339
f 17 29 43
f 2 3 5
f 4 3 6
f 1 5 7
f 3 4 8
f 5 3 8
f 4 6 9
f 5 1 10
f 4 9 11
f 6 3 12
f 7 5 13
f 5 10 14
f 1 7 15
f 10 1 16
f 6 12 17
f 12 3 18
f 4 11 19
f 9 6 20
f 7 11 21
f 15 7 21
f 9 15 21
f 7 13 22
f 16 1 23
f 14 10 24
f 8 4 25
f 5 8 25
f 4 13 25
f 17 12 26
f 1 20 27
f 20 6 27
f 6 23 27
f 11 7 28
f 19 11 28
f 10 16 29
f 26 10 29
f 17 26 29
f 1 15 30
f 20 1 30
f 13 5 31
f 5 25 31
f 25 13 31
f 16 23 32
f 23 6 32
f 6 17 33
f 17 16 33
f 32 6 33
f 16 32 33
f 12 18 34
f 18 14 34
f 24 12 34
f 14 24 34
f 3 2 35
f 2 5 35
f 5 14 35
f 18 3 35
f 14 18 35
f 11 9 36
f 21 11 36
f 9 21 36
f 7 22 37
f 22 19 37
f 28 7 37
f 19 28 37
f 13 4 38
f 4 19 38
f 22 13 38
f 19 22 38
f 15 9 39
f 9 20 39
f 30 15 39
f 20 30 39
f 10 12 40
f 24 10 40
f 12 24 40
f 12 10 41
f 10 26 41
f 26 12 41
f 23 1 42
f 1 27 42
f 27 23 42
f 16 17 43
f 29 16 43
