v 46.031549 1.545892 3.879616
v 16.691273 -0.031549 -0.031549
v 16.691273 -0.031549 7.035388
v 16.691273 1.545892 -0.031549
v 43.759803 -0.031549 0.157991
v 16.691273 1.545892 7.035388
v 43.254332 -0.031549 6.971746
v 42.875229 1.545892 -0.031549
v 42.875229 1.545892 7.035388
v 45.841997 -0.031549 4.763675
v 45.526078 1.545892 1.609286
v 45.841997 -0.031549 2.240164
v 44.831056 1.545892 6.214970
v 42.875229 -0.031549 -0.031549
v 42.875229 -0.031549 7.035388
v 44.831056 -0.031549 6.214970
v 44.767872 1.545892 0.726611
v 45.273343 -0.031549 1.230898
v 45.526078 1.545892 5.394552
v 43.759803 1.545892 6.845848
v 46.031549 -0.031549 3.124223
v 45.968365 1.545892 2.682193
v 43.759803 1.545892 0.157991
v 44.388769 -0.031549 0.473430
v 44.388769 -0.031549 6.530409
v 45.210159 -0.031549 5.835890
v 45.841997 1.545892 4.763675
v 45.968365 -0.031549 4.321645
v 43.759803 -0.031549 6.845848
v 45.273343 1.545892 1.230898
v 44.767872 -0.031549 0.726611
v 45.841997 1.545892 2.240164
v 45.526078 -0.031549 5.394552
v 44.388769 1.545892 6.530409
v 43.317516 -0.031549 0.032092
v 46.031549 1.545892 3.124223
v 46.031549 -0.031549 3.879616
v 45.210159 1.545892 5.835890
f 26 19 38
f 2 3 4
f 3 2 5
f 4 3 6
f 1 4 6
f 3 5 7
f 2 4 8
f 4 1 8
f 1 6 9
f 6 3 9
f 7 5 10
f 8 1 11
f 10 5 12
f 1 9 13
f 5 2 14
f 2 8 14
f 3 7 15
f 9 3 15
f 7 9 15
f 7 10 16
f 8 11 17
f 12 5 18
f 11 12 18
f 1 13 19
f 9 7 20
f 13 9 20
f 10 12 21
f 21 12 22
f 11 1 22
f 8 17 23
f 23 17 24
f 18 5 24
f 5 23 24
f 7 16 25
f 16 13 25
f 16 10 26
f 13 16 26
f 1 19 27
f 19 10 27
f 10 21 28
f 1 27 28
f 27 10 28
f 20 7 29
f 7 25 29
f 25 20 29
f 17 11 30
f 11 18 30
f 18 17 30
f 17 18 31
f 24 17 31
f 18 24 31
f 12 11 32
f 22 12 32
f 11 22 32
f 10 19 33
f 26 10 33
f 19 26 33
f 13 20 34
f 25 13 34
f 20 25 34
f 5 14 35
f 14 8 35
f 23 5 35
f 8 23 35
f 1 21 36
f 21 22 36
f 22 1 36
f 21 1 37
f 1 28 37
f 28 21 37
f 19 13 38
f 13 26 38
