v 15.806572 1.545892 7.477071
v 6.407240 -0.031549 4.826970
v 6.154158 -0.031549 5.079373
v 16.689927 -0.031549 7.098337
v 16.691143 1.545892 4.827229
v 4.260907 1.545892 7.477071
v 4.260907 -0.031549 7.477071
v 6.407240 1.545892 4.826970
v 16.689927 -0.031549 4.826970
v 15.806572 -0.031549 7.477071
v 16.691143 1.545892 7.098078
v 4.260907 1.545892 7.350740
v 4.260907 -0.031549 7.350740
v 6.154158 1.545892 5.079373
f 12 8 14
f 3 2 4
f 1 5 6
f 1 6 7
f 3 4 7
f 2 3 8
f 6 5 8
f 4 2 9
f 5 4 9
f 2 8 9
f 8 5 9
f 1 7 10
f 7 4 10
f 5 1 11
f 4 5 11
f 1 10 11
f 10 4 11
f 7 6 12
f 6 8 12
f 3 7 13
f 7 12 13
f 12 3 13
f 8 3 14
f 3 12 14
