v 10.823285 -0.031549 0.158059
v 12.337406 1.545892 0.978224
v 10.444754 1.545892 2.113771
v 10.444754 1.545892 0.347247
v 10.381379 -0.031549 2.113771
v 12.337406 -0.031549 -0.031129
v 12.337406 1.545892 -0.031129
v 12.337406 -0.031549 0.978224
v 10.381379 -0.031549 0.410450
v 11.579962 1.545892 -0.031129
v 10.381379 1.545892 0.410450
v 11.579962 -0.031549 -0.031129
v 10.381379 1.545892 2.113771
v 11.012646 1.545892 0.094856
v 10.444754 -0.031549 2.113771
f 5 8 15
f 3 2 4
f 5 1 6
f 4 2 7
f 2 6 7
f 2 3 8
f 6 2 8
f 5 6 8
f 4 1 9
f 1 5 9
f 4 7 10
f 7 6 10
f 3 4 11
f 4 9 11
f 9 5 11
f 6 1 12
f 10 6 12
f 5 3 13
f 3 11 13
f 11 5 13
f 1 4 14
f 4 10 14
f 12 1 14
f 10 12 14
f 3 5 15
f 8 3 15
