v 9.939473 -0.031549 0.662599
v 10.380996 1.545892 4.826970
v 6.469325 1.545892 4.826970
v 10.380996 1.545892 0.410567
v 10.380996 -0.031549 4.826970
v 6.469325 -0.031549 4.826970
v 10.380996 -0.031549 0.410567
v 9.308398 1.545892 1.293761
v 6.469325 -0.031549 4.700305
v 6.469325 1.545892 4.700305
v 9.308398 -0.031549 1.293761
v 10.191826 1.545892 0.473683
f 1 8 12
f 3 2 4
f 2 3 5
f 4 2 5
f 1 5 6
f 5 3 6
f 5 1 7
f 4 5 7
f 3 4 8
f 1 6 9
f 6 3 9
f 8 9 10
f 3 8 10
f 9 3 10
f 8 1 11
f 1 9 11
f 9 8 11
f 7 1 12
f 4 7 12
f 8 4 12
